<?xml version="1.0" encoding="UTF-8" standalone="no"?>
<svg
   inkscape:version="1.1.2 (0a00cf5339, 2022-02-04)"
   sodipodi:docname="lantern_v2.svg"
   id="svg3729"
   height="300mm"
   width="600mm"
   version="1.1"
   xmlns:inkscape="http://www.inkscape.org/namespaces/inkscape"
   xmlns:sodipodi="http://sodipodi.sourceforge.net/DTD/sodipodi-0.dtd"
   xmlns="http://www.w3.org/2000/svg"
   xmlns:svg="http://www.w3.org/2000/svg"
   xmlns:rdf="http://www.w3.org/1999/02/22-rdf-syntax-ns#"
   xmlns:cc="http://creativecommons.org/ns#"
   xmlns:dc="http://purl.org/dc/elements/1.1/">
  <metadata
     id="metadata3735">
    <rdf:RDF>
      <cc:Work
         rdf:about="">
        <dc:format>image/svg+xml</dc:format>
        <dc:type
           rdf:resource="http://purl.org/dc/dcmitype/StillImage" />
      </cc:Work>
    </rdf:RDF>
  </metadata>
  <defs
     id="defs3733">
    <linearGradient
       id="linearGradient4546"
       inkscape:swatch="solid">
      <stop
         style="stop-color:#000016;stop-opacity:1;"
         offset="0"
         id="stop4544" />
    </linearGradient>
    <linearGradient
       id="linearGradient4546-6"
       inkscape:swatch="solid">
      <stop
         style="stop-color:#000016;stop-opacity:1;"
         offset="0"
         id="stop4544-7" />
    </linearGradient>
  </defs>
  <sodipodi:namedview
     pagecolor="#ffffff"
     bordercolor="#666666"
     borderopacity="1"
     objecttolerance="10"
     gridtolerance="10"
     guidetolerance="10"
     inkscape:pageopacity="0"
     inkscape:pageshadow="2"
     inkscape:window-width="2560"
     inkscape:window-height="1379"
     id="namedview3731"
     showgrid="false"
     inkscape:measure-start="158.054,731.343"
     inkscape:measure-end="255.353,747.56"
     inkscape:zoom="2"
     inkscape:cx="559.25"
     inkscape:cy="895.5"
     inkscape:window-x="0"
     inkscape:window-y="0"
     inkscape:window-maximized="1"
     inkscape:current-layer="layer1"
     inkscape:pagecheckerboard="0"
     inkscape:document-units="mm"
     width="600px"
     units="mm" />
  <g
     inkscape:groupmode="layer"
     id="layer1"
     inkscape:label="Layer 1"
     style="display:inline">
    <path
       d="m 130.449,237.61671 c -9.3484,-1.79629 -21.7802,-5.14314 -30.3925,-7.95104 -8.610802,-2.81011 -13.400002,-5.08162 -18.188702,-7.35388 -0.1234,3.03999 -0.2465,6.07776 -1.0603,10.2233 -0.8134,4.14369 -2.3179,9.39441 -4.9736,12.67864 -2.6547,3.28423 -6.462,4.60603 -9.8078,5.14277 -3.3468,0.53786 -6.2321,0.2914 -9.5926,-1.22785 -3.3627,-1.52036 -7.1991,-4.31279 -11.036,-7.10742 v -37.39308 c 1.0735,-1.65814 2.147,-3.31554 4.4653,-2.60933 2.3165,0.70584 5.8785,3.77603 8.4724,6.61635 2.5938,2.83921 4.2218,5.45002 6.2936,6.83039 2.0718,1.38148 4.5906,1.5351 7.5532,-0.0295 2.9615,-1.56641 6.3702,-4.85064 9.8247,-6.3699 3.4533,-1.52073 6.9516,-1.27427 9.439,-1.59661 2.4862,-0.32382 3.9609,-1.21349 3.5004,-3.57785 -0.4616,-2.36435 -2.8561,-6.2008 -2.7644,-8.39606 0.092,-2.19489 2.6723,-2.74822 5.1214,-1.78045 2.4487,0.96593 4.768902,3.4537 6.427402,6.03171 1.6563,2.57839 2.6535,5.25072 4.6093,7.73701 1.9569,2.4874 4.8724,4.78912 9.4173,5.93998 4.5423,1.1516 10.7121,1.1516 16.8219,0.93757 6.1102,-0.21625 12.1563,-0.64543 16.916,-0.0295 4.7589,0.61412 8.2269,2.27152 9.4091,5.11184 1.1818,2.8392 0.078,6.8617 -1.7337,10.46864 -1.8106,3.60695 -4.3286,6.80018 -8.7184,8.27486 -4.3901,1.47321 -10.6547,1.22712 -20.003,-0.56806 z m 172.307,856.01449 -156.64,-0.096 v -11.2727 L 0.18419801,1082.1897 V 11.355511 H 146.116 V 0.18419801 h 156.64 V 11.355511 H 448.9531 V 1082.2626 H 302.756 Z m 52.1245,-982.47192 c -3.96,2.07185 -7.7055,2.87053 -10.6077,2.64065 -2.9,-0.23062 -4.9582,-1.48905 -5.8018,-2.6867 -0.844,-1.19765 -0.4763,-2.33377 -0.1065,-3.47027 -1.8736,0.64543 -3.7458,1.28975 -5.2205,1.6283 -1.4732,0.33708 -2.5467,0.3684 -3.7289,-0.27593 -1.1821,-0.64432 -2.473,-1.96611 -3.2551,-3.40838 -0.7821,-1.44226 -1.0599,-3.00867 -1.7344,-3.49937 -0.6756,-0.4907 -1.7491,0.0921 -2.855,0.27777 -1.1048,0.18383 -2.241,-0.0331 -3.6854,-1.33653 -1.4419,-1.305587 -3.1911,-3.699777 -4.9413,-6.094337 -1.9643,2.05601 -3.9297,4.11422 -5.0658,6.154747 -1.1361,2.04164 -1.4423,4.06855 -1.8567,5.31224 -0.4155,1.2437 -0.9357,1.70309 -1.443,1.22823 -0.5065,-0.47634 -0.9983,-1.88912 -2.1492,-1.32106 -1.152,0.56806 -2.9615,3.11587 -4.3297,4.8348 -1.3657,1.72003 -2.2859,2.6097 -3.6225,2.74858 -1.3357,0.13778 -3.0838,-0.47633 -5.356,-1.87254 -2.2723,-1.39806 -5.0658,-3.57637 -8.7803,-7.45997 -3.7153,-3.88472 -8.3519,-9.472517 -12.8643,-15.427227 -4.5121,-5.95619 -8.9023,-12.280412 -12.3725,-16.716612 -3.4677,-4.43582 -6.0159,-6.98401 -8.5335,-8.24318 -2.518,-1.25843 -5.0043,-1.22822 -8.0586,-1.18217 -3.0555,0.046 -6.6783,0.10757 -9.3808,-0.62848 -2.7014,-0.73753 -4.4808,-2.27262 -5.5712,-3.9455 -1.0901,-1.67177 -1.488,-3.48058 -1.888,-5.29013 h 181.8046 v 53.228109 c -0.9814,-1.99559 -1.9632,-3.99118 -4.112,-6.691507 -2.1481,-2.70253 -5.4648,-6.10981 -8.0586,-8.52021 -2.5943,-2.41003 -4.4664,-3.82208 -6.9999,-3.89834 -2.5323,-0.077 -5.7244,1.18217 -8.6882,3.93076 -2.9615,2.74638 -5.6946,6.9818 -9.149,10.773677 -3.4534,3.79188 -7.6273,7.13873 -11.5882,9.21058 z M 87.439698,270.74379 c -0.015,-3.69978 1.0279,-6.40232 2.7464,-8.1964 1.72,-1.79629 4.1135,-2.6878 8.8724,-1.35127 4.757502,1.3358 11.881502,4.89559 19.924602,7.19916 8.0428,2.30246 17.0076,3.34575 25.2044,1.82649 8.1975,-1.52036 15.625,-5.60253 20.5991,-9.29715 4.9726,-3.69462 7.4906,-7.00169 11.9883,-8.65504 4.4966,-1.65188 10.9752,-1.65188 18.1743,1.15196 7.1981,2.80385 15.1189,8.41264 21.1211,13.38227 6.0015,4.96779 10.0837,9.29605 13.7676,11.50789 3.6843,2.20963 6.9697,2.30136 11.4663,1.16523 4.4973,-1.13613 10.2074,-3.49937 15.5794,-5.80073 5.3726,-2.30246 10.4082,-4.5445 16.609,-5.94072 6.2019,-1.39731 13.569,-1.94991 20.8758,-0.7832 7.3067,1.16744 14.5519,4.05159 21.0596,7.36824 6.5091,3.31555 12.2807,7.05916 17.9293,9.68544 5.6482,2.62444 11.1734,4.12822 15.4718,4.97405 4.2981,0.84363 7.3684,1.02856 10.4386,1.21239 -0.092,-2.33414 -0.185,-4.66681 -1.0912,-7.20026 -0.9055,-2.53234 -2.6233,-5.26545 -5.8012,-8.47342 -3.1778,-3.20798 -7.8144,-6.89081 -11.299,-8.99323 -3.4835,-2.1039 -5.8155,-2.62628 -8.1493,-3.1483 1.9337,-1.96427 3.8678,-3.92965 7.7201,-6.29179 3.8534,-2.36398 9.6261,-5.12841 15.9044,-6.5401 6.2782,-1.41205 13.0618,-1.47357 18.8478,-1.61135 5.7885,-0.13778 10.5766,-0.35292 15.0887,0.50765 4.5142,0.85835 8.7508,2.79242 12.9884,4.72612 v 291.89755 c -2.51631,-9.07933 -2.67589,-14.54563 -7.3996,-21.95038 -1.4264,-2.20998 -3.2683,-4.26708 -4.7283,-3.69902 -1.4577,0.56806 -1.91542,3.78426 -2.63822,7.19156 -0.57308,2.43629 -0.984,6.79032 -1.37224,10.80346 -1.56631,9.98502 -5.05431,13.91455 -5.50584,23.11255 l 0.015,0.56806 c -6.56217,-4.80848 -14.50307,-1.99749 -17.68962,1.39259 -1.7804,-1.25917 -6.22618,-6.67238 -8.06818,-7.99237 -12.06878,-7.89895 -16.82868,-27.361 -26.48097,-30.65207 -6.66037,1.29683 6.45239,34.31609 12.69667,40.13824 3.5923,3.28421 6.5998,5.40394 8.6713,6.81602 2.0741,1.41168 3.2103,2.11752 4.3464,2.82373 -0.9523,1.38036 -1.9036,2.76294 -2.6105,5.72448 -0.7062,2.96371 -1.1656,7.50823 -0.4616,11.83573 0.7058,4.32864 2.5792,8.44285 4.129,10.86653 1.5499,2.42586 2.7777,3.16412 4.0059,3.90054 -0.1234,3.68395 -0.2464,7.36714 -0.4918,12.70775 -0.2457,5.34246 -0.6141,12.34305 -1.2742,17.07062 -2.72045,15.03927 -27.11265,15.54758 -41.15113,17.92255 -6.77469,0.7484 -11.57607,1.42035 -19.12927,2.31002 -7.5521,0.88966 -17.3753,1.22785 -25.0361,1.22785 -7.6596,0 -13.1535,-0.33819 -18.6495,-0.67563 0.2151,-13.72268 0.4303,-27.44646 0.6454,-41.16909 8.4731,2.57837 16.9461,5.15785 25.4339,7.32146 8.4889,2.16467 16.9933,3.9149 24.4838,4.80456 7.4917,0.89077 13.9684,0.92209 17.5606,0.0763 3.5922,-0.84362 4.2981,-2.56253 2.4874,-5.31114 -1.8117,-2.74747 -6.1404,-6.52349 -14.7368,-11.9422 -8.5961,-5.41761 -21.4597,-12.48009 -29.4421,-17.39223 -7.9823,-4.91107 -11.0827,-7.67438 -12.4789,-9.97797 -1.397,-2.30171 -1.0901,-4.14367 -0.7832,-5.98567 3.8994,0.33819 7.7985,0.67563 13.4629,1.30525 5.6641,0.62885 13.0927,1.55093 19.1557,1.98011 6.0642,0.43028 10.7601,0.36839 12.8938,-0.66016 2.1345,-1.02745 1.7053,-3.02417 -2.0707,-6.27817 -3.7764,-3.25405 -10.8993,-7.76722 -17.715,-12.29516 -6.8149,-4.5279 -13.3229,-9.07242 -17.975,-12.61893 -4.6502,-3.54434 -7.4445,-6.09214 -9.3638,-8.54824 -1.9186,-2.45607 -2.9616,-4.82041 -3.4839,-6.76998 -0.522,-1.94953 -0.522,-3.48462 -0.522,-5.01971 6.0796,0.92098 12.1573,1.84196 19.4025,2.14883 7.246,0.30724 15.6575,0 19.7238,-1.16743 4.0686,-1.16523 3.793,-3.19212 0.8459,-5.5867 -2.9479,-2.39345 -8.5659,-5.15753 -13.5857,-7.95215 -5.019,-2.79352 -9.4401,-5.61691 -13.0168,-8.45758 -3.5756,-2.83809 -6.3084,-5.69427 -8.3961,-8.64214 -2.0873,-2.94607 -3.5307,-5.98567 -4.9736,-9.02454 3.5922,0.12194 7.1833,0.24646 10.0228,0.18383 2.8404,-0.0619 4.9288,-0.30724 6.0785,-1.09048 1.152,-0.7832 1.3671,-2.10315 0.9527,-3.86775 -0.4148,-1.76607 -1.4581,-3.97572 -3.8983,-6.38574 -2.4418,-2.41002 -6.2782,-5.01974 -9.5477,-7.50639 -3.2699,-2.48628 -5.9724,-4.84955 -7.3686,-7.00354 -1.3962,-2.15251 -1.4902,-4.09467 -1.5045,-5.0669 -0.015,-0.97034 0.047,-0.97034 0.1083,-0.97034 4.3588,0.37613 8.7188,0.75299 11.7587,0.75299 3.0385,0 4.7575,-0.37686 5.1093,-1.91085 0.354,-1.53619 -0.6587,-4.2295 -1.7031,-5.86778 -1.044,-1.63861 -2.1175,-2.22104 -5.4647,-4.30761 -3.3458,-2.08841 -8.9638,-5.68064 -12.1718,-9.41098 -3.208,-3.73 -4.007,-7.59812 -5.2205,-11.58931 -1.2124,-3.9912 -1.562,-9.43957 -2.0696,-15.48824 -0.5066,-6.04829 -1.1686,-12.69426 -1.5989,-17.1146 -0.4291,-4.42258 -1.9034,-5.28093 -3.3918,-2.91659 -1.4879,2.36216 -1.8259,12.37435 -2.5619,19.12849 -0.88963,9.67907 -1.27824,18.78032 -5.6499,25.12518 -2.0877,3.08606 -5.4044,7.32146 -7.5064,10.89821 -2.1021,3.57746 -2.9939,6.49295 -2.7943,8.50032 0.2004,2.00699 1.4902,3.10333 3.7915,3.34978 2.3029,0.24535 5.6195,-0.36139 8.1518,-0.004 2.5331,0.35697 4.2815,1.67803 4.0351,3.42719 -3.94448,9.16522 -21.05001,11.10428 -24.65611,16.88598 -0.6454,1.19765 -0.71932,2.98859 -0.31222,4.10191 0.4074,1.11328 3.17113,2.43716 4.72213,3.00522 1.5517,0.56916 3.8375,0.92098 6.0943,1.0827 2.2575,0.16209 4.4819,0.12968 5.6795,0.18309 1.1981,0.0542 1.366,0.19304 1.4578,1.21312 1.86579,15.18236 -53.76316,36.16728 -29.963,42.7429 2.7317,0.26229 6.23,-0.0147 10.7288,-0.82815 4.4977,-0.81341 9.9916,-2.16578 12.2491,-1.99632 2.2567,0.1691 1.2742,1.85854 -1.0138,4.72832 -2.2859,2.87054 -5.8781,6.92359 -10.1305,10.46866 -4.2524,3.54651 -9.1634,6.58615 -13.0157,9.34836 -3.8545,2.76404 -6.6477,5.25072 -8.8743,7.4445 -2.2262,2.19598 -3.8825,4.09983 -5.31,6.14039 -1.4286,2.04163 -2.6241,4.22177 -2.7162,5.78711 -0.094,1.5664 0.9203,2.51685 3.2382,3.20795 2.3176,0.69148 5.94,1.12065 10.5608,1.12065 4.62,0 10.238,-0.42917 14.7272,-0.73604 4.4893,-0.30724 7.8479,-0.49181 9.5271,0.16798 1.6802,0.65979 1.6802,2.16467 0.3297,4.11461 -1.3491,1.94953 -4.0476,4.34408 -8.1065,7.91936 -4.0601,3.57672 -9.4777,8.33638 -15.3956,12.0343 -5.9167,3.69979 -12.3349,6.34079 -16.679,8.39679 -4.3441,2.05751 -6.6145,3.53181 -8.4104,6.14039 -1.7963,2.60973 -3.1163,6.35554 -2.1032,8.78029 1.0127,2.4259 4.3596,3.52961 7.4298,3.4994 3.0691,-0.0295 5.8637,-1.1958 9.6397,-2.33192 3.7761,-1.13616 8.5339,-2.24097 13.1764,-3.16195 4.644,-0.92135 9.173,-1.6585 12.788,-2.18051 3.6132,-0.52128 6.3117,-0.82925 9.1126,-1.50378 2.8017,-0.67563 5.7057,-1.71895 8.6086,-2.76334 -1.1048,4.23765 -2.2096,8.47342 -2.5938,13.84498 -0.3843,5.37266 -0.046,11.88182 0.1838,16.10248 0.2299,4.22108 0.354,6.15513 0.4763,8.08919 -2.2578,-0.76662 -4.5176,-1.53435 -9.0153,-2.37907 -4.4977,-0.84362 -11.233,-1.7646 -16.8418,-2.27114 -5.6099,-0.50654 -10.0929,-0.59827 -15.312,0.27556 -5.2194,0.8764 -11.1748,2.71836 -14.767,4.43617 -3.5922,1.71969 -4.8194,3.31667 -6.1183,5.58155 -1.2993,2.26598 -2.6672,5.20247 -4.0372,8.13708 -22.4791,-11.15495 -38.7171,-25.52636 -48.7201,-43.11166 11.5911,7.22641 44.337,12.44158 49.9384,8.72078 -33.6714,-32.48192 -51.1404,-34.88896 -51.654,-56.67915 10.9229,2.76626 17.1493,6.81222 27.9503,10.53699 10.5994,3.82319 34.3415,7.42465 19.7873,0.525 -13.2069,-6.26123 -44.2755,-36.92918 -51.0683,-51.45569 7.7661,0.27151 27.2503,15.01935 20.387,1.94737 -3.537,-9.103 -19.946,-16.08045 -22.6091,-36.18053 -3.0908,-39.04605 -7.1435,-39.04605 -12.159202,0 -4.9928,19.0259 -19.8864,25.59378 -22.5645,37.20814 1.8205,5.02922 12.8308,1.35347 19.5245,0 -10.2056,20.09995 -26.3844,32.8714 -48.5355,38.31406 V 302.53286 c 1.1969,-2.20963 2.3934,-4.42036 5.8784,-5.66406 3.4836,-1.24296 9.2552,-1.51852 15.3797,-1.64193 6.1238,-0.12304 12.6024,-0.0928 16.671,-0.44465 4.0674,-0.35403 5.7233,-1.09008 6.3687,-2.9781 0.6444,-1.88838 0.2767,-4.928 -0.4446,-8.79614 -0.7228,-3.86776 -1.7963,-8.56589 -1.811,-12.26382 z M 235.0916,241.98881 c -2.6701,-0.76737 -5.4644,-2.39419 -10.4226,-5.47912 -4.9571,-3.08493 -12.08,-7.62944 -17.7297,-11.62062 -5.6482,-3.99007 -9.8225,-7.42902 -12.6315,-10.37581 -2.809,-2.94678 -4.252,-5.40286 -4.0976,-8.25791 0.1536,-2.85505 1.9027,-6.10908 5.2651,-9.3631 3.3605,-3.25402 8.3345,-6.50989 14.8591,-8.81161 6.5236,-2.30246 14.5954,-3.65263 20.153,-3.97423 5.5569,-0.32382 8.5946,0.38202 11.7879,1.41168 3.1921,1.02782 6.539,2.37798 8.2579,1.58004 1.7189,-0.79867 1.8129,-3.74582 3.2091,-6.44615 1.3962,-2.70254 4.0976,-5.15752 6.8911,-6.56957 2.7943,-1.41279 5.6788,-1.78044 8.535,-1.366 2.8558,0.4137 5.6795,1.61135 7.46,2.97736 1.7804,1.366 2.5179,2.9011 3.6684,5.94072 1.152,3.03777 2.7173,7.58265 4.2671,10.82193 1.5506,3.23818 3.0868,5.17225 5.449,6.3699 2.3643,1.19691 5.5575,1.6563 9.0411,0.47633 3.4846,-1.18217 7.261,-4.00812 10.4071,-7.75285 3.1476,-3.74582 5.664,-8.41153 8.3353,-13.80003 2.6705,-5.38813 5.4949,-11.49609 7.1678,-16.02402 1.6733,-4.53014 2.1953,-7.47618 2.7173,-10.42407 2.2409,0.98398 4.4822,1.96538 6.1551,3.45443 1.6729,1.48905 2.7788,3.4839 3.8063,5.81767 1.0285,2.33193 1.9808,5.00426 3.6684,6.96854 1.6895,1.96501 4.1146,3.22344 7.1082,3.2997 2.9939,0.0774 6.5542,-1.02745 9.3319,-3.11403 2.7788,-2.08843 4.7743,-5.15862 6.2479,-8.5659 1.4743,-3.40874 2.4248,-7.15457 3.7761,-10.03872 1.3512,-2.88637 3.1004,-4.91217 5.2024,-5.63385 2.1043,-0.72132 4.5604,-0.13889 8.5659,1.6574 4.007,1.79592 9.5624,4.80459 13.4762,7.46108 3.9142,2.65575 6.1854,4.95711 8.4565,7.25994 v 64.65237 c -2.8853,-1.25806 -5.7705,-2.5176 -9.4088,-4.64987 -3.636,-2.13447 -8.0262,-5.14204 -11.5723,-7.50639 -3.5454,-2.36398 -6.248,-4.0829 -9.2567,-4.78875 -3.0072,-0.70694 -6.3227,-0.39897 -9.3627,1.38148 -3.0378,1.77934 -5.8018,5.03447 -9.4246,9.21021 -3.6214,4.17427 -8.1044,9.27026 -14.6751,12.87794 -6.5695,3.60584 -15.2253,5.72595 -25.1115,5.84789 -9.8859,0.1223 -20.9981,-1.75024 -29.7018,-3.65373 -8.7029,-1.90275 -14.9969,-3.83682 -21.2906,-5.77052 -1.8725,2.36398 -3.7436,4.72612 -4.9416,6.44615 -1.1966,1.72003 -1.7189,2.79353 -4.252,4.13007 -2.5324,1.33468 -7.0772,2.9302 -10.6234,3.77603 -3.5454,0.84362 -6.0932,0.93572 -8.7637,0.16799 z m 150.3368,430.79011 c 0.8742,-6.35443 1.1822,-12.18865 1.0894,-18.48156 -0.092,-6.29365 -0.5828,-13.04705 -0.798,-19.75513 -0.2162,-6.70846 -0.33397,-13.30113 -0.27317,-17.3146 -0.19602,-6.58565 -0.37128,-9.06246 2.1906,-10.70373 l 2.98196,-3.01887 c 2.48569,-2.14704 4.37727,-7.86988 4.41605,-13.66641 0.0451,-6.73975 0.95092,-12.3241 -3.62942,-17.97489 1.3211,-1.50382 2.68732,-3.1022 3.1,-4.7287 0.12038,-1.47423 0.48241,-4.21214 3.7017,-5.12321 2.0089,-0.44502 5.26878,-2.21006 5.26878,-2.21006 v 322.94765 h -21.6244 c 0.1839,-3.42093 0.3684,-6.84402 -0.015,-11.87003 -0.3831,-5.02601 -1.3354,-11.6571 -2.9939,-19.74629 -1.6563,-8.08993 -4.0203,-17.63868 -5.7558,-27.24896 -1.7347,-9.6081 -2.8384,-19.27806 -4.0059,-29.02649 -1.1663,-9.74699 -2.3945,-19.57056 -3.0087,-26.15671 -0.6137,-6.58394 -0.6137,-9.93078 -0.6137,-13.27692 2.1175,-2.24203 4.2365,-4.48186 7.5215,-8.16581 3.2843,-3.68429 7.737,-8.81161 10.3615,-13.20173 2.6251,-4.39017 3.4231,-8.04281 3.191,-12.63371 -0.2295,-4.58947 -1.488,-10.11465 -2.4705,-15.02678 -0.9817,-4.91218 -1.6876,-9.21058 -1.3199,-14.79728 0.3684,-5.5878 1.8128,-12.46425 2.6867,-18.81978 z M 278.0393,753.0442 c 4.4966,0.41481 9.1645,0.38423 13.047,-0.46049 3.8837,-0.84362 6.9841,-2.50102 11.1591,-3.88359 4.175,-1.38151 9.4253,-2.48521 13.355,-2.88528 3.9296,-0.39897 6.5404,-0.0917 9.149,0.21514 -1.8725,5.24851 -3.7451,10.49924 -4.7128,17.3149 -0.966,6.81599 -1.0278,15.19624 -0.8134,22.37992 0.2158,7.18438 0.7058,13.17116 0.4446,18.35889 -0.2612,5.1881 -1.2728,9.57823 -2.809,14.81201 -1.534,5.23488 -3.5922,11.31449 -4.8506,16.70112 -1.2585,5.38814 -1.7179,10.08628 -1.7794,15.28981 -0.062,5.20284 0.2756,10.9148 0.9973,16.30842 0.7224,5.39588 1.8265,10.47493 2.9324,15.55436 h -54.158 c 0.3699,-21.47405 0.7372,-42.94736 0.1537,-64.58976 -0.5817,-21.64351 -2.1179,-43.45426 -3.6519,-65.26576 2.7946,-0.66089 5.5867,-1.32105 9.1487,-1.22269 3.562,0.0991 7.8906,0.95966 12.3883,1.373 z m 47.0631,108.56308 c 0.5367,-8.52536 2.6251,-19.27106 4.175,-26.50153 1.5516,-7.22936 2.5636,-10.94385 3.9293,-17.08425 1.3671,-6.14002 3.086,-14.70517 4.6041,-22.87135 1.5208,-8.16619 2.8407,-15.9334 4.1603,-23.70061 1.5981,8.74971 3.1936,17.4998 4.9741,26.87836 1.7804,9.37855 3.7469,19.38673 5.9867,30.43816 2.2422,11.05257 4.7598,23.14949 6.7399,30.70157 1.9797,7.55207 3.4231,10.56076 4.298,13.68399 0.8742,3.12326 1.1822,6.36069 1.4884,9.59779 h -38.8668 c -1.0131,-6.30728 -2.0258,-12.61455 -1.489,-21.14213 z M 124.24656,682.06411 c 13.42307,4.58427 21.66969,7.09491 36.84255,8.55618 -0.53739,20.59608 6.79347,25.55647 16.70367,48.34236 -22.9613,-10.42884 -51.01726,-48.53849 -53.54622,-56.89854 z m 28.46074,71.41553 c 8.5184,4.20633 18.9882,9.54802 29.4557,14.89047 -1.1361,3.16195 -2.2723,6.32386 -4.2678,9.04001 -1.9967,2.7184 -4.8507,4.98954 -9.1185,7.79742 -4.2679,2.81013 -9.9456,4.62989 -15.6254,9.50201 -4.25686,17.00302 1.7189,58.69287 2.5772,88.03986 h -31.8634 c -1.4736,-30.69718 -2.9483,-61.39433 -4.574,-85.0942 -1.628,-23.6995 -1.20675,-38.97292 -2.98715,-55.67371 5.6486,0.85949 9.09695,0.29346 15.20605,2.25772 6.109,1.96427 12.6793,5.03412 21.1973,9.24042 z m 15.7894,64.52639 c 2.4259,-2.11788 4.8506,-4.23654 6.9247,-6.38574 2.0718,-2.1481 3.7897,-4.32864 5.5093,-6.50768 4.1146,10.06966 8.227,20.13973 12.7568,30.56121 4.5283,10.42298 9.4695,21.19959 14.4119,31.9755 0.4922,5.03334 0.9829,10.06671 1.4747,15.10009 h -43.1032 c 0.7685,-12.12607 1.5373,-24.25102 1.8755,-35.04126 0.3374,-10.79138 0.2435,-20.2462 0.1503,-29.70212 z M 45.397498,882.74941 V 745.25304 c 10.261447,-4.61652 32.028646,-7.45487 43.321766,-6.73988 2.565554,50.09194 3.376431,97.78948 1.252834,144.23625 z m -0.504672,-170.74188 0.504672,-31.96167 c 14.8143,-0.53565 25.627487,-5.70521 35.065387,-2.46774 -3.215891,14.13474 -16.718959,20.67653 -35.570059,34.42941 z m 0.504672,-44.58135 v -41.54009 c 12.2119,1.88064 26.2415,0.5629 42.0883,-3.95878 -5.0625,14.08922 -19.0924,29.25526 -42.0883,45.49887 z m 0,-48.8155 v -37.02321 c 13.5462,0.74562 26.9307,-1.00277 40.1542,-5.24963 -8.2568,16.58807 -21.6413,30.67947 -40.1542,42.27284 z M 124.9352,87.689283 c -7.6449,0.98361 -16.4252,3.92966 -22.2576,9.11848 -5.833102,5.188087 -8.719502,12.616747 -12.648102,18.051297 -3.9296,5.43417 -8.9033,8.87203 -12.5257,9.6405 -3.6228,0.76662 -5.8939,-1.13613 -8.9026,-3.5318 -3.0094,-2.39419 -6.7541,-5.27945 -9.3336,-5.40175 -2.5784,-0.12415 -3.9912,2.5176 -4.7888,5.92598 -0.7979,3.40653 -0.984,7.58154 -2.3934,10.06783 -1.4121,2.48666 -4.0498,3.28644 -6.6879,4.08439 V 53.126211 H 178.0153 c -1.6571,2.51576 -3.3156,5.03004 -4.9413,6.19675 -1.6283,1.16523 -3.2238,0.9814 -5.096,0.67563 -1.8737,-0.30834 -4.0229,-0.73642 -4.7902,0.0615 -0.7674,0.79794 -0.1536,2.82374 -0.9512,4.1437 -0.7991,1.31995 -3.0087,1.93406 -4.4823,2.57838 -1.4743,0.64432 -2.2114,1.31996 -1.5977,2.36399 0.6141,1.04329 2.5795,2.45608 4.2376,4.45167 1.6574,1.99448 3.0076,4.57508 0.4911,7.184782 -2.518,2.6086 -8.9037,5.24851 -15.3499,6.0785 -6.4483,0.82815 -12.956,-0.15436 -20.6002,0.82815 z M 45.397498,931.37553 H 403.4764 V 1040.4212 H 45.397498 Z M 163.5105,172.24155 c -2.809,1.35127 -7.1387,2.45497 -10.0844,3.02304 -2.9479,0.56806 -4.5143,0.59827 -5.7425,-0.0921 -1.2283,-0.69 -2.1179,-2.1039 -4.6344,-3.13171 -2.5176,-1.02856 -6.6624,-1.67288 -10.8375,-3.25366 -4.175,-1.58115 -8.3802,-4.09875 -12.5865,-7.18478 -4.2063,-3.08456 -8.4115,-6.73756 -11.3439,-10.88125 -2.9325,-4.14443 -4.5884,-8.78104 -3.6059,-13.09309 0.9818,-4.31352 4.6031,-8.3058 8.2572,-9.71786 3.6526,-1.41168 7.3369,-0.24645 10.101,1.25954 2.7622,1.50379 4.6031,3.34576 6.277,5.17225 1.6729,1.8265 3.1767,3.63826 4.6827,5.45002 0.4907,-2.94789 0.9814,-5.89393 0.8584,-8.88787 -0.1223,-2.99394 -0.8606,-6.03282 -0.6746,-8.30396 0.1839,-2.27226 1.2887,-3.77714 3.4386,-3.96097 2.1481,-0.18383 5.3414,0.95229 8.8264,2.25678 3.4835,1.30411 7.2595,2.77879 11.5576,3.96097 4.2984,1.18107 9.1177,2.07184 13.5381,2.45608 4.4203,0.38313 8.4428,0.25898 13.2946,0.35292 4.8495,0.0917 10.5283,0.39787 14.8577,1.76387 4.3286,1.36563 7.3056,3.78967 10.2841,6.21444 -0.4922,-2.79354 -0.9818,-5.58486 -1.4121,-9.20654 -0.4303,-3.62351 -0.7976,-8.07408 -0.8436,-12.5718 -0.048,-4.49772 0.2295,-9.04223 1.3962,-12.84847 1.1652,-3.806607 3.2234,-6.875697 4.9737,-7.858207 1.748,-0.98361 3.1925,0.12231 5.7863,1.99448 2.5939,1.87145 6.3375,4.5132 11.0806,7.153107 4.743,2.63991 10.4856,5.28092 16.3334,7.87478 5.8479,2.59423 11.8045,5.14204 16.3022,7.0459 4.4966,1.90276 7.5351,3.16193 8.8238,5.86446 1.2897,2.7007 0.8303,6.84402 -1.0422,9.83796 -1.8733,2.99393 -5.1575,4.83627 -10.2075,5.94109 -5.0503,1.10481 -11.8659,1.4732 -17.6221,2.07074 -5.7558,0.59606 -10.4532,1.42016 -14.8116,3.84603 -4.357,2.42477 -8.3751,6.45021 -13.8233,11.4261 -5.45,4.97516 -12.3305,10.90004 -18.0417,14.3692 -5.7119,3.46917 -10.2546,4.48188 -13.3863,4.71176 -3.1317,0.22987 -4.8495,-0.32161 -5.9241,-2.30136 -1.0757,-1.98012 -1.506,-5.38849 -1.1362,-8.67273 0.3677,-3.28423 1.534,-6.44615 2.7004,-9.60844 -2.1176,1.56457 -4.2366,3.13061 -5.9396,5.29455 -1.7042,2.16358 -2.9929,4.92801 -4.2826,7.10816 -1.2898,2.17942 -2.5784,3.7753 -5.3874,5.12657 z M 207.64,827.53821 c -4.1761,-11.40472 -7.0603,-21.74997 -8.0741,-28.99628 -1.0142,-7.2452 -0.1536,-11.38887 1.8261,-15.99491 1.9802,-4.6042 5.0817,-9.66996 8.2738,-13.53811 3.1925,-3.86775 6.4789,-6.5401 9.4707,-8.56589 2.9939,-2.02579 5.6953,-3.40652 8.3957,-4.78803 -1.5956,36.07313 -3.1922,72.14515 -4.788,108.21827 -5.4644,-12.46425 -10.9281,-24.92882 -15.1042,-36.33505 z"
       style="fill:none;stroke:#000016;stroke-width:0.368396;stroke-linecap:butt;stroke-linejoin:miter;stroke-miterlimit:4;stroke-dasharray:none;stroke-opacity:1"
       id="path3713"
       sodipodi:nodetypes="cccsccccccccccccccccccccccccccccccccccccccccccsscccccccccccccccsccccccccccccccccccccccccccccccsccccsccccccccccccccccccccccssccccccccccccccccccccccccccccscccccscccccccccccccccccccccccccccccccscccccccccsscccssccsccccccccccccccccccccccccccsscccccccccsccccccccsccccccccccccscccccccccccccccccsccccccscccscccccccccccccccsccscccccccsccccscccccsccccsccccccccsscccccccccccccccccccccccccccccccccccccccsccccccccscccscccccccccccccccccccccccccscccccccccscccccsccccccccc" />
    <path
       d="m 605.38055,237.6167 c -9.3484,-1.79629 -21.7802,-5.14314 -30.3925,-7.95104 -8.6108,-2.81011 -13.4,-5.08162 -18.1887,-7.35388 -0.1234,3.03999 -0.2465,6.07776 -1.0603,10.2233 -0.8134,4.14369 -2.3179,9.39441 -4.9736,12.67864 -2.6547,3.28423 -6.462,4.60603 -9.8078,5.14277 -3.3468,0.53786 -6.2321,0.2914 -9.5926,-1.22785 -3.3627,-1.52036 -7.1991,-4.31279 -11.036,-7.10742 v -37.39308 c 1.0735,-1.65814 2.147,-3.31554 4.4653,-2.60933 2.3165,0.70584 5.8785,3.77603 8.4724,6.61635 2.5938,2.83921 4.2218,5.45002 6.2936,6.83039 2.0718,1.38148 4.5906,1.5351 7.5532,-0.0295 2.9615,-1.56641 6.3702,-4.85064 9.8247,-6.3699 3.4533,-1.52073 6.9516,-1.27427 9.439,-1.59661 2.4862,-0.32382 3.9609,-1.21349 3.5004,-3.57785 -0.4616,-2.36435 -2.8561,-6.2008 -2.7644,-8.39606 0.092,-2.19489 2.6723,-2.74822 5.1214,-1.78045 2.4487,0.96593 4.7689,3.4537 6.4274,6.03171 1.6563,2.57839 2.6535,5.25072 4.6093,7.73701 1.9569,2.4874 4.8724,4.78912 9.4173,5.93998 4.5423,1.1516 10.7121,1.1516 16.8219,0.93757 6.1102,-0.21625 12.1563,-0.64543 16.916,-0.0295 4.7589,0.61412 8.2269,2.27152 9.4091,5.11184 1.1818,2.8392 0.078,6.8617 -1.7337,10.46864 -1.8106,3.60695 -4.3286,6.80018 -8.7184,8.27486 -4.3901,1.47321 -10.6547,1.22712 -20.003,-0.56806 z m 172.307,856.0144 -156.64,-0.096 v -11.2726 l -145.9318,-0.073 V 11.355508 h 145.9318 V 0.18419801 h 156.64 V 11.355508 h 146.1971 V 1082.2626 h -146.1971 z m 52.1245,-982.47183 c -3.96,2.07185 -7.7055,2.87053 -10.6077,2.64065 -2.9,-0.23062 -4.9582,-1.48905 -5.8018,-2.6867 -0.844,-1.19765 -0.4763,-2.33377 -0.1065,-3.47027 -1.8736,0.64543 -3.7458,1.28975 -5.2205,1.6283 -1.4732,0.33708 -2.5467,0.3684 -3.7289,-0.27593 -1.1821,-0.64432 -2.473,-1.96611 -3.2551,-3.40838 -0.7821,-1.44226 -1.0599,-3.00867 -1.7344,-3.49937 -0.6756,-0.4907 -1.7491,0.0921 -2.855,0.27777 -1.1048,0.18383 -2.241,-0.0331 -3.6854,-1.33653 -1.4419,-1.30559 -3.1911,-3.69978 -4.9413,-6.09434 -1.9643,2.05601 -3.9297,4.11422 -5.0658,6.15475 -1.1361,2.04164 -1.4423,4.06855 -1.8567,5.31224 -0.4155,1.2437 -0.9357,1.70309 -1.443,1.22823 -0.5065,-0.47634 -0.9983,-1.88912 -2.1492,-1.32106 -1.152,0.56806 -2.9615,3.11587 -4.3297,4.8348 -1.3657,1.72003 -2.2859,2.6097 -3.6225,2.74858 -1.3357,0.13778 -3.0838,-0.47633 -5.356,-1.87254 -2.2723,-1.39806 -5.0658,-3.57637 -8.7803,-7.45997 -3.7153,-3.88472 -8.3519,-9.47252 -12.8643,-15.42723 -4.5121,-5.95619 -8.9023,-12.280402 -12.3725,-16.716602 -3.4677,-4.43582 -6.0159,-6.98401 -8.5335,-8.24318 -2.518,-1.25843 -5.0043,-1.22822 -8.0586,-1.18217 -3.0555,0.046 -6.6783,0.10757 -9.3808,-0.62848 -2.7014,-0.73753 -4.4808,-2.27262 -5.5712,-3.9455 -1.0901,-1.67177 -1.488,-3.48058 -1.888,-5.29013 h 181.8046 v 53.228102 c -0.9814,-1.99559 -1.9632,-3.99118 -4.112,-6.69151 -2.1481,-2.70253 -5.4648,-6.10981 -8.0586,-8.52021 -2.5943,-2.41003 -4.4664,-3.82208 -6.9999,-3.89834 -2.5323,-0.077 -5.7244,1.18217 -8.6882,3.93076 -2.9615,2.74638 -5.6946,6.9818 -9.149,10.77368 -3.4534,3.79188 -7.6273,7.13873 -11.5882,9.21058 z m -267.4408,159.58451 c -0.015,-3.69978 1.0279,-6.40232 2.7464,-8.1964 1.72,-1.79629 4.1135,-2.6878 8.8724,-1.35127 4.7575,1.3358 11.8815,4.89559 19.9246,7.19916 8.0428,2.30246 17.0076,3.34575 25.2044,1.82649 8.1975,-1.52036 15.625,-5.60253 20.5991,-9.29715 4.9726,-3.69462 7.4906,-7.00169 11.9883,-8.65504 4.4966,-1.65188 10.9752,-1.65188 18.1743,1.15196 7.1981,2.80385 15.1189,8.41264 21.1211,13.38227 6.0015,4.96779 10.0837,9.29605 13.7676,11.50789 3.6843,2.20963 6.9697,2.30136 11.4663,1.16523 4.4973,-1.13613 10.2074,-3.49937 15.5794,-5.80073 5.3726,-2.30246 10.4082,-4.5445 16.609,-5.94072 6.2019,-1.39731 13.569,-1.94991 20.8758,-0.7832 7.3067,1.16744 14.5519,4.05159 21.0596,7.36824 6.5091,3.31555 12.2807,7.05916 17.9293,9.68544 5.6482,2.62444 11.1734,4.12822 15.4718,4.97405 4.2981,0.84363 7.3684,1.02856 10.4386,1.21239 -0.092,-2.33414 -0.185,-4.66681 -1.0912,-7.20026 -0.9055,-2.53234 -2.6233,-5.26545 -5.8012,-8.47342 -3.1778,-3.20798 -7.8144,-6.89081 -11.299,-8.99323 -3.4835,-2.1039 -5.8155,-2.62628 -8.1493,-3.1483 1.9337,-1.96427 3.8678,-3.92965 7.7201,-6.29179 3.8534,-2.36398 9.6261,-5.12841 15.9044,-6.5401 6.2782,-1.41205 13.0618,-1.47357 18.8478,-1.61135 5.7885,-0.13778 10.5766,-0.35292 15.0887,0.50765 4.5142,0.85835 8.7508,2.79242 12.9884,4.72612 v 291.8976 c -2.51631,-9.0794 -2.67589,-14.5457 -7.3996,-21.9504 -1.4264,-2.21 -3.2683,-4.2671 -4.7283,-3.699 -1.4577,0.568 -1.91542,3.7842 -2.63822,7.1915 -0.57308,2.4363 -0.984,6.7903 -1.37224,10.8035 -1.56631,9.985 -5.05431,13.9145 -5.50584,23.1125 l 0.015,0.5681 c -6.56217,-4.8085 -14.50307,-1.9975 -17.68962,1.3926 -1.7804,-1.2592 -6.22618,-6.6724 -8.06818,-7.9924 -12.06878,-7.8989 -16.82868,-27.361 -26.48097,-30.6521 -6.66037,1.2969 6.45239,34.3161 12.69667,40.1383 3.5923,3.2842 6.5998,5.4039 8.6713,6.816 2.0741,1.4117 3.2103,2.1175 4.3464,2.8237 -0.9523,1.3804 -1.9036,2.763 -2.6105,5.7245 -0.7062,2.9637 -1.1656,7.5082 -0.4616,11.8357 0.7058,4.3287 2.5792,8.4429 4.129,10.8666 1.5499,2.4258 2.7777,3.1641 4.0059,3.9005 -0.1234,3.6839 -0.2464,7.3671 -0.4918,12.7077 -0.2457,5.3425 -0.6141,12.3431 -1.2742,17.0707 -2.72045,15.0392 -27.11265,15.5475 -41.15113,17.9225 -6.77469,0.7484 -11.57607,1.4204 -19.12927,2.31 -7.5521,0.8897 -17.3753,1.2279 -25.0361,1.2279 -7.6596,0 -13.1535,-0.3382 -18.6495,-0.6756 0.2151,-13.7227 0.4303,-27.4465 0.6454,-41.1691 8.4731,2.5783 16.9461,5.1578 25.4339,7.3214 8.4889,2.1647 16.9933,3.9149 24.4838,4.8046 7.4917,0.8908 13.9684,0.9221 17.5606,0.076 3.5922,-0.8436 4.2981,-2.5625 2.4874,-5.3112 -1.8117,-2.7474 -6.1404,-6.5234 -14.7368,-11.9422 -8.5961,-5.4176 -21.4597,-12.48 -29.4421,-17.3922 -7.9823,-4.9111 -11.0827,-7.6744 -12.4789,-9.978 -1.397,-2.3017 -1.0901,-4.1436 -0.7832,-5.9856 3.8994,0.3382 7.7985,0.6756 13.4629,1.3052 5.6641,0.6289 13.0927,1.551 19.1557,1.9801 6.0642,0.4303 10.7601,0.3684 12.8938,-0.6601 2.1345,-1.0275 1.7053,-3.0242 -2.0707,-6.2782 -3.7764,-3.254 -10.8993,-7.7672 -17.715,-12.2952 -6.8149,-4.5279 -13.3229,-9.0724 -17.975,-12.6189 -4.6502,-3.5443 -7.4445,-6.0921 -9.3638,-8.5482 -1.9186,-2.4561 -2.9616,-4.8204 -3.4839,-6.77 -0.522,-1.9495 -0.522,-3.4846 -0.522,-5.0197 6.0796,0.921 12.1573,1.8419 19.4025,2.1488 7.246,0.3073 15.6575,0 19.7238,-1.1674 4.0686,-1.1652 3.793,-3.1921 0.8459,-5.5867 -2.9479,-2.3935 -8.5659,-5.1575 -13.5857,-7.9522 -5.019,-2.7935 -9.4401,-5.6169 -13.0168,-8.4575 -3.5756,-2.8381 -6.3084,-5.6943 -8.3961,-8.6422 -2.0873,-2.9461 -3.5307,-5.9857 -4.9736,-9.0245 3.5922,0.1219 7.1833,0.2464 10.0228,0.1838 2.8404,-0.062 4.9288,-0.3072 6.0785,-1.0905 1.152,-0.7832 1.3671,-2.1031 0.9527,-3.8677 -0.4148,-1.7661 -1.4581,-3.9757 -3.8983,-6.3858 -2.4418,-2.41 -6.2782,-5.0197 -9.5477,-7.5064 -3.2699,-2.4862 -5.9724,-4.8495 -7.3686,-7.0035 -1.3962,-2.1525 -1.4902,-4.0947 -1.5045,-5.0669 -0.015,-0.9703 0.047,-0.9703 0.1083,-0.9703 4.3588,0.3761 8.7188,0.753 11.7587,0.753 3.0385,0 4.7575,-0.3769 5.1093,-1.9109 0.354,-1.5362 -0.6587,-4.2295 -1.7031,-5.8678 -1.044,-1.6386 -2.1175,-2.221 -5.4647,-4.3076 -3.3458,-2.0884 -8.9638,-5.6806 -12.1718,-9.411 -3.208,-3.73 -4.007,-7.5981 -5.2205,-11.5893 -1.2124,-3.9912 -1.562,-9.4395 -2.0696,-15.4882 -0.5066,-6.0483 -1.1686,-12.6943 -1.5989,-17.1146 -0.4291,-4.4226 -1.9034,-5.2809 -3.3918,-2.9166 -1.4879,2.3622 -1.8259,12.3743 -2.5619,19.1285 -0.88963,9.6791 -1.27824,18.7803 -5.6499,25.1252 -2.0877,3.086 -5.4044,7.3214 -7.5064,10.8982 -2.1021,3.5774 -2.9939,6.4929 -2.7943,8.5003 0.2004,2.007 1.4902,3.1033 3.7915,3.3498 2.3029,0.2453 5.6195,-0.3614 8.1518,0 2.5331,0.3569 4.2815,1.678 4.0351,3.4272 -3.94448,9.1652 -21.05001,11.1042 -24.65611,16.8859 -0.6454,1.1977 -0.71932,2.9886 -0.31222,4.102 0.4074,1.1132 3.17113,2.4371 4.72213,3.0052 1.5517,0.5691 3.8375,0.921 6.0943,1.0827 2.2575,0.1621 4.4819,0.1297 5.6795,0.1831 1.1981,0.054 1.366,0.193 1.4578,1.2131 1.86579,15.1823 -53.76316,36.1673 -29.963,42.7429 2.7317,0.2623 6.23,-0.015 10.7288,-0.8282 4.4977,-0.8134 9.9916,-2.1657 12.2491,-1.9963 2.2567,0.1691 1.2742,1.8586 -1.0138,4.7283 -2.2859,2.8706 -5.8781,6.9236 -10.1305,10.4687 -4.2524,3.5465 -9.1634,6.5861 -13.0157,9.3484 -3.8545,2.764 -6.6477,5.2507 -8.8743,7.4445 -2.2262,2.1959 -3.8825,4.0998 -5.31,6.1403 -1.4286,2.0417 -2.6241,4.2218 -2.7162,5.7872 -0.094,1.5664 0.9203,2.5168 3.2382,3.2079 2.3176,0.6915 5.94,1.1207 10.5608,1.1207 4.62,0 10.238,-0.4292 14.7272,-0.7361 4.4893,-0.3072 7.8479,-0.4918 9.5271,0.168 1.6802,0.6598 1.6802,2.1647 0.3297,4.1146 -1.3491,1.9495 -4.0476,4.3441 -8.1065,7.9194 -4.0601,3.5767 -9.4777,8.3363 -15.3956,12.0343 -5.9167,3.6998 -12.3349,6.3408 -16.679,8.3968 -4.3441,2.0575 -6.6145,3.5318 -8.4104,6.1403 -1.7963,2.6098 -3.1163,6.3556 -2.1032,8.7803 1.0127,2.4259 4.3596,3.5296 7.4298,3.4994 3.0691,-0.029 5.8637,-1.1958 9.6397,-2.3319 3.7761,-1.1361 8.5339,-2.241 13.1764,-3.1619 4.644,-0.9214 9.173,-1.6585 12.788,-2.1805 3.6132,-0.5213 6.3117,-0.8293 9.1126,-1.5038 2.8017,-0.6757 5.7057,-1.719 8.6086,-2.7634 -1.1048,4.2377 -2.2096,8.4735 -2.5938,13.845 -0.3843,5.3727 -0.046,11.8818 0.1838,16.1025 0.2299,4.2211 0.354,6.1551 0.4763,8.0892 -2.2578,-0.7666 -4.5176,-1.5344 -9.0153,-2.3791 -4.4977,-0.8436 -11.233,-1.7646 -16.8418,-2.2711 -5.6099,-0.5066 -10.0929,-0.5983 -15.312,0.2755 -5.2194,0.8764 -11.1748,2.7184 -14.767,4.4362 -3.5922,1.7197 -4.8194,3.3167 -6.1183,5.5816 -1.2993,2.2659 -2.6672,5.2024 -4.0372,8.137 -22.4791,-11.1549 -38.7171,-25.5263 -48.7201,-43.1116 11.5911,7.2264 44.337,12.4416 49.9384,8.7208 -33.6714,-32.482 -51.1404,-34.889 -51.654,-56.6792 10.9229,2.7663 17.1493,6.8122 27.9503,10.537 10.5994,3.8232 34.3415,7.4246 19.7873,0.525 -13.2069,-6.2612 -44.2755,-36.9292 -51.0683,-51.4557 7.7661,0.2715 27.2503,15.0194 20.387,1.9474 -3.537,-9.103 -19.946,-16.0805 -22.6091,-36.1806 -3.0908,-39.046 -7.1435,-39.046 -12.1592,0 -4.9928,19.0259 -19.8864,25.5938 -22.5645,37.2082 1.8205,5.0292 12.8308,1.3535 19.5245,0 -10.2056,20.0999 -26.3844,32.8714 -48.5355,38.314 V 302.53285 c 1.1969,-2.20963 2.3934,-4.42036 5.8784,-5.66406 3.4836,-1.24296 9.2552,-1.51852 15.3797,-1.64193 6.1238,-0.12304 12.6024,-0.0928 16.671,-0.44465 4.0674,-0.35403 5.7233,-1.09008 6.3687,-2.9781 0.6444,-1.88838 0.2767,-4.928 -0.4446,-8.79614 -0.7228,-3.86776 -1.7963,-8.56589 -1.811,-12.26382 z m 147.6519,-28.75498 c -2.6701,-0.76737 -5.4644,-2.39419 -10.4226,-5.47912 -4.9571,-3.08493 -12.08,-7.62944 -17.7297,-11.62062 -5.6482,-3.99007 -9.8225,-7.42902 -12.6315,-10.37581 -2.809,-2.94678 -4.252,-5.40286 -4.0976,-8.25791 0.1536,-2.85505 1.9027,-6.10908 5.2651,-9.3631 3.3605,-3.25402 8.3345,-6.50989 14.8591,-8.81161 6.5236,-2.30246 14.5954,-3.65263 20.153,-3.97423 5.5569,-0.32382 8.5946,0.38202 11.7879,1.41168 3.1921,1.02782 6.539,2.37798 8.2579,1.58004 1.7189,-0.79867 1.8129,-3.74582 3.2091,-6.44615 1.3962,-2.70254 4.0976,-5.15752 6.8911,-6.56957 2.7943,-1.41279 5.6788,-1.78044 8.535,-1.366 2.8558,0.4137 5.6795,1.61135 7.46,2.97736 1.7804,1.366 2.5179,2.9011 3.6684,5.94072 1.152,3.03777 2.7173,7.58265 4.2671,10.82193 1.5506,3.23818 3.0868,5.17225 5.449,6.3699 2.3643,1.19691 5.5575,1.6563 9.0411,0.47633 3.4846,-1.18217 7.261,-4.00812 10.4071,-7.75285 3.1476,-3.74582 5.664,-8.41153 8.3353,-13.80003 2.6705,-5.38813 5.4949,-11.49609 7.1678,-16.02402 1.6733,-4.53014 2.1953,-7.47618 2.7173,-10.42407 2.2409,0.98398 4.4822,1.96538 6.1551,3.45443 1.6729,1.48905 2.7788,3.4839 3.8063,5.81767 1.0285,2.33193 1.9808,5.00426 3.6684,6.96854 1.6895,1.96501 4.1146,3.22344 7.1082,3.2997 2.9939,0.0774 6.5542,-1.02745 9.3319,-3.11403 2.7788,-2.08843 4.7743,-5.15862 6.2479,-8.5659 1.4743,-3.40874 2.4248,-7.15457 3.7761,-10.03872 1.3512,-2.88637 3.1004,-4.91217 5.2024,-5.63385 2.1043,-0.72132 4.5604,-0.13889 8.5659,1.6574 4.007,1.79592 9.5624,4.80459 13.4762,7.46108 3.9142,2.65575 6.1854,4.95711 8.4565,7.25994 v 64.65237 c -2.8853,-1.25806 -5.7705,-2.5176 -9.4088,-4.64987 -3.636,-2.13447 -8.0262,-5.14204 -11.5723,-7.50639 -3.5454,-2.36398 -6.248,-4.0829 -9.2567,-4.78875 -3.0072,-0.70694 -6.3227,-0.39897 -9.3627,1.38148 -3.0378,1.77934 -5.8018,5.03447 -9.4246,9.21021 -3.6214,4.17427 -8.1044,9.27026 -14.6751,12.87794 -6.5695,3.60584 -15.2253,5.72595 -25.1115,5.84789 -9.8859,0.1223 -20.9981,-1.75024 -29.7018,-3.65373 -8.7029,-1.90275 -14.9969,-3.83682 -21.2906,-5.77052 -1.8725,2.36398 -3.7436,4.72612 -4.9416,6.44615 -1.1966,1.72003 -1.7189,2.79353 -4.252,4.13007 -2.5324,1.33468 -7.0772,2.9302 -10.6234,3.77603 -3.5454,0.84362 -6.0932,0.93572 -8.7637,0.16799 z m 150.3368,430.79011 c 0.8742,-6.3544 1.1822,-12.1887 1.0894,-18.4816 -0.092,-6.2936 -0.5828,-13.047 -0.798,-19.7551 -0.2162,-6.7084 -0.33397,-13.3011 -0.27317,-17.3146 -0.19602,-6.5856 -0.37128,-9.0624 2.1906,-10.7037 l 2.98196,-3.0189 c 2.48569,-2.147 4.37727,-7.8699 4.41605,-13.6664 0.0451,-6.7397 0.95092,-12.3241 -3.62942,-17.9749 1.3211,-1.5038 2.68732,-3.1022 3.1,-4.7287 0.12038,-1.4742 0.48241,-4.2121 3.7017,-5.1232 2.0089,-0.445 5.26878,-2.2101 5.26878,-2.2101 v 322.9477 h -21.6244 c 0.1839,-3.4209 0.3684,-6.844 -0.015,-11.87 -0.3831,-5.026 -1.3354,-11.6571 -2.9939,-19.7463 -1.6563,-8.09 -4.0203,-17.6387 -5.7558,-27.249 -1.7347,-9.6081 -2.8384,-19.278 -4.0059,-29.0265 -1.1663,-9.747 -2.3945,-19.5705 -3.0087,-26.1567 -0.6137,-6.5839 -0.6137,-9.9308 -0.6137,-13.2769 2.1175,-2.242 4.2365,-4.4819 7.5215,-8.1658 3.2843,-3.6843 7.737,-8.8116 10.3615,-13.2017 2.6251,-4.3902 3.4231,-8.0429 3.191,-12.6338 -0.2295,-4.5894 -1.488,-10.1146 -2.4705,-15.0267 -0.9817,-4.9122 -1.6876,-9.2106 -1.3199,-14.7973 0.3684,-5.5878 1.8128,-12.4643 2.6867,-18.8198 z m -107.3891,80.2653 c 4.4966,0.4148 9.1645,0.3842 13.047,-0.4605 3.8837,-0.8436 6.9841,-2.501 11.1591,-3.8836 4.175,-1.3815 9.4253,-2.4852 13.355,-2.8853 3.9296,-0.3989 6.5404,-0.092 9.149,0.2152 -1.8725,5.2485 -3.7451,10.4992 -4.7128,17.3149 -0.966,6.816 -1.0278,15.1962 -0.8134,22.3799 0.2158,7.1844 0.7058,13.1711 0.4446,18.3589 -0.2612,5.1881 -1.2728,9.5782 -2.809,14.812 -1.534,5.2349 -3.5922,11.3145 -4.8506,16.7011 -1.2585,5.3881 -1.7179,10.0863 -1.7794,15.2898 -0.062,5.2028 0.2756,10.9148 0.9973,16.3084 0.7224,5.3959 1.8265,10.475 2.9324,15.5544 h -54.158 c 0.3699,-21.4741 0.7372,-42.9474 0.1537,-64.5898 -0.5817,-21.6435 -2.1179,-43.4542 -3.6519,-65.2657 2.7946,-0.6609 5.5867,-1.3211 9.1487,-1.2227 3.562,0.099 7.8906,0.9596 12.3883,1.373 z m 47.0631,108.5631 c 0.5367,-8.5254 2.6251,-19.2711 4.175,-26.5016 1.5516,-7.2293 2.5636,-10.9438 3.9293,-17.0842 1.3671,-6.14 3.086,-14.7052 4.6041,-22.8714 1.5208,-8.1662 2.8407,-15.9334 4.1603,-23.7006 1.5981,8.7497 3.1936,17.4998 4.9741,26.8784 1.7804,9.3785 3.7469,19.3867 5.9867,30.4381 2.2422,11.0526 4.7598,23.1495 6.7399,30.7016 1.9797,7.5521 3.4231,10.5608 4.298,13.684 0.8742,3.1233 1.1822,6.3607 1.4884,9.5978 h -38.8668 c -1.0131,-6.3073 -2.0258,-12.6146 -1.489,-21.1421 z M 599.17811,682.06411 c 13.42307,4.5843 21.66969,7.0949 36.84255,8.5562 -0.53739,20.5961 6.79347,25.5564 16.70367,48.3423 -22.9613,-10.4288 -51.01726,-48.5385 -53.54622,-56.8985 z m 28.46074,71.4155 c 8.5184,4.2064 18.9882,9.548 29.4557,14.8905 -1.1361,3.1619 -2.2723,6.3239 -4.2678,9.04 -1.9967,2.7184 -4.8507,4.9895 -9.1185,7.7974 -4.2679,2.8102 -9.9456,4.6299 -15.6254,9.502 -4.25686,17.0031 1.7189,58.6929 2.5772,88.0399 h -31.8634 c -1.4736,-30.6972 -2.9483,-61.3943 -4.574,-85.0942 -1.628,-23.6995 -1.20675,-38.9729 -2.98715,-55.6737 5.6486,0.8595 9.09695,0.2934 15.20605,2.2577 6.109,1.9643 12.6793,5.0341 21.1973,9.2404 z m 15.7894,64.5264 c 2.4259,-2.1179 4.8506,-4.2365 6.9247,-6.3857 2.0718,-2.1481 3.7897,-4.3287 5.5093,-6.5077 4.1146,10.0697 8.227,20.1397 12.7568,30.5612 4.5283,10.423 9.4695,21.1996 14.4119,31.9755 0.4922,5.0333 0.9829,10.0667 1.4747,15.1001 h -43.1032 c 0.7685,-12.1261 1.5373,-24.251 1.8755,-35.0413 0.3374,-10.7913 0.2435,-20.2462 0.1503,-29.7021 z m -123.0992,64.7434 v -137.4964 c 10.26144,-4.6165 32.02864,-7.4548 43.32176,-6.7399 2.56556,50.092 3.37643,97.7895 1.25284,144.2363 z m -0.50467,-170.7419 0.50467,-31.9617 c 14.8143,-0.5356 25.62748,-5.7052 35.06538,-2.4677 -3.21589,14.1347 -16.71895,20.6765 -35.57005,34.4294 z m 0.50467,-44.5813 v -41.5401 c 12.2119,1.8806 26.2415,0.5629 42.0883,-3.9588 -5.0625,14.0892 -19.0924,29.2553 -42.0883,45.4989 z m 0,-48.8155 v -37.0232 c 13.5462,0.7456 26.9307,-1.0028 40.1542,-5.2497 -8.2568,16.5881 -21.6413,30.6795 -40.1542,42.2729 z m 79.5377,-530.92144 c -7.6449,0.98361 -16.4252,3.92966 -22.2576,9.11848 -5.8331,5.18809 -8.7195,12.61675 -12.6481,18.0513 -3.9296,5.43417 -8.9033,8.87203 -12.5257,9.6405 -3.6228,0.76662 -5.8939,-1.13613 -8.9026,-3.5318 -3.0094,-2.39419 -6.7541,-5.27945 -9.3336,-5.40175 -2.5784,-0.12415 -3.9912,2.5176 -4.7888,5.92598 -0.7979,3.40653 -0.984,7.58154 -2.3934,10.06783 -1.4121,2.48666 -4.0498,3.28644 -6.6879,4.08439 V 53.126208 h 132.6178 c -1.6571,2.51576 -3.3156,5.03004 -4.9413,6.19675 -1.6283,1.16523 -3.2238,0.9814 -5.096,0.67563 -1.8737,-0.30834 -4.0229,-0.73642 -4.7902,0.0615 -0.7674,0.79794 -0.1536,2.82374 -0.9512,4.1437 -0.7991,1.31995 -3.0087,1.93406 -4.4823,2.57838 -1.4743,0.64432 -2.2114,1.31996 -1.5977,2.36399 0.6141,1.04329 2.5795,2.45608 4.2376,4.45167 1.6574,1.99448 3.0076,4.57508 0.4911,7.184772 -2.518,2.6086 -8.9037,5.24851 -15.3499,6.0785 -6.4483,0.82815 -12.956,-0.15436 -20.6002,0.82815 z m -79.5377,843.68624 h 358.0789 v 109.04569 h -358.0789 z m 118.113,-759.13397 c -2.809,1.35127 -7.1387,2.45497 -10.0844,3.02304 -2.9479,0.56806 -4.5143,0.59827 -5.7425,-0.0921 -1.2283,-0.69 -2.1179,-2.1039 -4.6344,-3.13171 -2.5176,-1.02856 -6.6624,-1.67288 -10.8375,-3.25366 -4.175,-1.58115 -8.3802,-4.09875 -12.5865,-7.18478 -4.2063,-3.08456 -8.4115,-6.73756 -11.3439,-10.88125 -2.9325,-4.14443 -4.5884,-8.78104 -3.6059,-13.09309 0.9818,-4.31352 4.6031,-8.3058 8.2572,-9.71786 3.6526,-1.41168 7.3369,-0.24645 10.101,1.25954 2.7622,1.50379 4.6031,3.34576 6.277,5.17225 1.6729,1.8265 3.1767,3.63826 4.6827,5.45002 0.4907,-2.94789 0.9814,-5.89393 0.8584,-8.88787 -0.1223,-2.99394 -0.8606,-6.03282 -0.6746,-8.30396 0.1839,-2.27226 1.2887,-3.77714 3.4386,-3.96097 2.1481,-0.18383 5.3414,0.95229 8.8264,2.25678 3.4835,1.30411 7.2595,2.77879 11.5576,3.96097 4.2984,1.18107 9.1177,2.07184 13.5381,2.45608 4.4203,0.38313 8.4428,0.25898 13.2946,0.35292 4.8495,0.0917 10.5283,0.39787 14.8577,1.76387 4.3286,1.36563 7.3056,3.78967 10.2841,6.21444 -0.4922,-2.79354 -0.9818,-5.58486 -1.4121,-9.20654 -0.4303,-3.62351 -0.7976,-8.07408 -0.8436,-12.5718 -0.048,-4.49772 0.2295,-9.04223 1.3962,-12.84847 1.1652,-3.80661 3.2234,-6.8757 4.9737,-7.85821 1.748,-0.98361 3.1925,0.12231 5.7863,1.99448 2.5939,1.87145 6.3375,4.5132 11.0806,7.15311 4.743,2.63991 10.4856,5.28092 16.3334,7.87478 5.8479,2.59423 11.8045,5.14204 16.3022,7.0459 4.4966,1.90276 7.5351,3.16193 8.8238,5.86446 1.2897,2.7007 0.8303,6.84402 -1.0422,9.83796 -1.8733,2.99393 -5.1575,4.83627 -10.2075,5.94109 -5.0503,1.10481 -11.8659,1.4732 -17.6221,2.07074 -5.7558,0.59606 -10.4532,1.42016 -14.8116,3.84603 -4.357,2.42477 -8.3751,6.45021 -13.8233,11.4261 -5.45,4.97516 -12.3305,10.90004 -18.0417,14.3692 -5.7119,3.46917 -10.2546,4.48188 -13.3863,4.71176 -3.1317,0.22987 -4.8495,-0.32161 -5.9241,-2.30136 -1.0757,-1.98012 -1.506,-5.38849 -1.1362,-8.67273 0.3677,-3.28423 1.534,-6.44615 2.7004,-9.60844 -2.1176,1.56457 -4.2366,3.13061 -5.9396,5.29455 -1.7042,2.16358 -2.9929,4.92801 -4.2826,7.10816 -1.2898,2.17942 -2.5784,3.7753 -5.3874,5.12657 z m 44.1295,655.29667 c -4.1761,-11.4047 -7.0603,-21.75 -8.0741,-28.9963 -1.0142,-7.2452 -0.1536,-11.3889 1.8261,-15.9949 1.9802,-4.6042 5.0817,-9.67 8.2738,-13.5381 3.1925,-3.8678 6.4789,-6.5401 9.4707,-8.5659 2.9939,-2.0258 5.6953,-3.4065 8.3957,-4.788 -1.5956,36.0731 -3.1922,72.1451 -4.788,108.2182 -5.4644,-12.4642 -10.9281,-24.9288 -15.1042,-36.335 z"
       style="display:inline;fill:none;stroke:#000016;stroke-width:0.368396;stroke-linecap:butt;stroke-linejoin:miter;stroke-miterlimit:4;stroke-dasharray:none;stroke-opacity:1"
       id="path3713-3"
       sodipodi:nodetypes="cccsccccccccccccccccccccccccccccccccccccccccccsscccccccccccccccsccccccccccccccccccccccccccccccsccccsccccccccccccccccccccccssccccccccccccccccccccccccccccscccccscccccccccccccccccccccccccccccccscccccccccsscccssccsccccccccccccccccccccccccccsscccccccccsccccccccsccccccccccccscccccccccccccccccsccccccscccscccccccccccccccsccscccccccsccccscccccsccccsccccccccsscccccccccccccccccccccccccccccccccccccccsccccccccscccscccccccccccccccccccccccccscccccccccscccccsccccccccc" />
    <path
       d="m 1081.1766,237.6167 c -9.3484,-1.79629 -21.7802,-5.14314 -30.3925,-7.95104 -8.6108,-2.81011 -13.4,-5.08162 -18.1887,-7.35388 -0.1234,3.03999 -0.2465,6.07776 -1.0603,10.2233 -0.8134,4.14369 -2.3179,9.39441 -4.9736,12.67864 -2.6547,3.28423 -6.462,4.60603 -9.8078,5.14277 -3.3468,0.53786 -6.2321,0.2914 -9.5926,-1.22785 -3.3627,-1.52036 -7.19912,-4.31279 -11.03602,-7.10742 v -37.39308 c 1.0735,-1.65814 2.147,-3.31554 4.46532,-2.60933 2.3165,0.70584 5.8785,3.77603 8.4724,6.61635 2.5938,2.83921 4.2218,5.45002 6.2936,6.83039 2.0718,1.38148 4.5906,1.5351 7.5532,-0.0295 2.9615,-1.56641 6.3702,-4.85064 9.8247,-6.3699 3.4533,-1.52073 6.9516,-1.27427 9.439,-1.59661 2.4862,-0.32382 3.9609,-1.21349 3.5004,-3.57785 -0.4616,-2.36435 -2.8561,-6.2008 -2.7644,-8.39606 0.092,-2.19489 2.6723,-2.74822 5.1214,-1.78045 2.4487,0.96593 4.7689,3.4537 6.4274,6.03171 1.6563,2.57839 2.6535,5.25072 4.6093,7.73701 1.9569,2.4874 4.8724,4.78912 9.4173,5.93998 4.5423,1.1516 10.7121,1.1516 16.8219,0.93757 6.1102,-0.21625 12.1563,-0.64543 16.916,-0.0295 4.7589,0.61412 8.2269,2.27152 9.4091,5.11184 1.1818,2.8392 0.078,6.8617 -1.7337,10.46864 -1.8106,3.60695 -4.3286,6.80018 -8.7184,8.27486 -4.3901,1.47321 -10.6547,1.22712 -20.003,-0.56806 z m 172.307,856.0144 -156.64,-0.096 v -11.2726 l -145.93182,-0.073 V 11.355508 H 1096.8436 V 0.18419801 h 156.64 V 11.355508 h 146.1971 V 1082.2626 h -146.1971 z m 52.1245,-982.47183 c -3.96,2.07185 -7.7055,2.87053 -10.6077,2.64065 -2.9,-0.23062 -4.9582,-1.48905 -5.8018,-2.6867 -0.844,-1.19765 -0.4763,-2.33377 -0.1065,-3.47027 -1.8736,0.64543 -3.7458,1.28975 -5.2205,1.6283 -1.4732,0.33708 -2.5467,0.3684 -3.7289,-0.27593 -1.1821,-0.64432 -2.473,-1.96611 -3.2551,-3.40838 -0.7821,-1.44226 -1.0599,-3.00867 -1.7344,-3.49937 -0.6756,-0.4907 -1.7491,0.0921 -2.855,0.27777 -1.1048,0.18383 -2.241,-0.0331 -3.6854,-1.33653 -1.4419,-1.305592 -3.1911,-3.699782 -4.9413,-6.094342 -1.9643,2.05601 -3.9297,4.11422 -5.0658,6.154752 -1.1361,2.04164 -1.4423,4.06855 -1.8567,5.31224 -0.4155,1.2437 -0.9357,1.70309 -1.443,1.22823 -0.5065,-0.47634 -0.9983,-1.88912 -2.1492,-1.32106 -1.152,0.56806 -2.9615,3.11587 -4.3297,4.8348 -1.3657,1.72003 -2.2859,2.6097 -3.6225,2.74858 -1.3357,0.13778 -3.0838,-0.47633 -5.356,-1.87254 -2.2723,-1.39806 -5.0658,-3.57637 -8.7803,-7.45997 -3.7153,-3.88472 -8.3519,-9.472522 -12.8643,-15.427232 -4.5121,-5.95619 -8.9023,-12.2804 -12.3725,-16.7166 -3.4677,-4.43582 -6.0159,-6.98401 -8.5335,-8.24318 -2.518,-1.25843 -5.0043,-1.22822 -8.0586,-1.18217 -3.0555,0.046 -6.6783,0.10757 -9.3808,-0.62848 -2.7014,-0.73753 -4.4808,-2.27262 -5.5712,-3.9455 -1.0901,-1.67177 -1.488,-3.48058 -1.888,-5.29013 h 181.8046 v 53.228102 c -0.9814,-1.99559 -1.9632,-3.99118 -4.112,-6.691512 -2.1481,-2.70253 -5.4648,-6.10981 -8.0586,-8.52021 -2.5943,-2.41003 -4.4664,-3.82208 -6.9999,-3.89834 -2.5323,-0.077 -5.7244,1.18217 -8.6882,3.93076 -2.9615,2.74638 -5.6946,6.9818 -9.149,10.773682 -3.4534,3.79188 -7.6273,7.13873 -11.5882,9.21058 z m -267.4408,159.58451 c -0.015,-3.69978 1.0279,-6.40232 2.7464,-8.1964 1.72,-1.79629 4.1135,-2.6878 8.8724,-1.35127 4.7575,1.3358 11.8815,4.89559 19.9246,7.19916 8.0428,2.30246 17.0076,3.34575 25.2044,1.82649 8.1975,-1.52036 15.625,-5.60253 20.5991,-9.29715 4.9726,-3.69462 7.4906,-7.00169 11.9883,-8.65504 4.4966,-1.65188 10.9752,-1.65188 18.1743,1.15196 7.1981,2.80385 15.1189,8.41264 21.1211,13.38227 6.0015,4.96779 10.0837,9.29605 13.7676,11.50789 3.6843,2.20963 6.9697,2.30136 11.4663,1.16523 4.4973,-1.13613 10.2074,-3.49937 15.5794,-5.80073 5.3726,-2.30246 10.4082,-4.5445 16.609,-5.94072 6.2019,-1.39731 13.569,-1.94991 20.8758,-0.7832 7.3067,1.16744 14.5519,4.05159 21.0596,7.36824 6.5091,3.31555 12.2807,7.05916 17.9293,9.68544 5.6482,2.62444 11.1734,4.12822 15.4718,4.97405 4.2981,0.84363 7.3684,1.02856 10.4386,1.21239 -0.092,-2.33414 -0.185,-4.66681 -1.0912,-7.20026 -0.9055,-2.53234 -2.6233,-5.26545 -5.8012,-8.47342 -3.1778,-3.20798 -7.8144,-6.89081 -11.299,-8.99323 -3.4835,-2.1039 -5.8155,-2.62628 -8.1493,-3.1483 1.9337,-1.96427 3.8678,-3.92965 7.7201,-6.29179 3.8534,-2.36398 9.6261,-5.12841 15.9044,-6.5401 6.2782,-1.41205 13.0618,-1.47357 18.8478,-1.61135 5.7885,-0.13778 10.5766,-0.35292 15.0887,0.50765 4.5142,0.85835 8.7508,2.79242 12.9884,4.72612 v 291.8976 c -2.5163,-9.0794 -2.6759,-14.5457 -7.3996,-21.9504 -1.4264,-2.21 -3.2683,-4.2671 -4.7283,-3.699 -1.4577,0.568 -1.9154,3.7842 -2.6382,7.1915 -0.5731,2.4363 -0.984,6.7903 -1.3723,10.8035 -1.5663,9.985 -5.0543,13.9145 -5.5058,23.1125 l 0.015,0.5681 c -6.5622,-4.8085 -14.5031,-1.9975 -17.6896,1.3926 -1.7804,-1.2592 -6.2262,-6.6724 -8.0682,-7.9924 -12.0688,-7.8989 -16.8287,-27.361 -26.481,-30.6521 -6.6604,1.2969 6.4524,34.3161 12.6967,40.1383 3.5923,3.2842 6.5998,5.4039 8.6713,6.816 2.0741,1.4117 3.2103,2.1175 4.3464,2.8237 -0.9523,1.3804 -1.9036,2.763 -2.6105,5.7245 -0.7062,2.9637 -1.1656,7.5082 -0.4616,11.8357 0.7058,4.3287 2.5792,8.4429 4.129,10.8666 1.5499,2.4258 2.7777,3.1641 4.0059,3.9005 -0.1234,3.6839 -0.2464,7.3671 -0.4918,12.7077 -0.2457,5.3425 -0.6141,12.3431 -1.2742,17.0707 -2.7205,15.0392 -27.1127,15.5475 -41.1511,17.9225 -6.7747,0.7484 -11.5761,1.4204 -19.1293,2.31 -7.5521,0.8897 -17.3753,1.2279 -25.0361,1.2279 -7.6596,0 -13.1535,-0.3382 -18.6495,-0.6756 0.2151,-13.7227 0.4303,-27.4465 0.6454,-41.1691 8.4731,2.5783 16.9461,5.1578 25.4339,7.3214 8.4889,2.1647 16.9933,3.9149 24.4838,4.8046 7.4917,0.8908 13.9684,0.9221 17.5606,0.076 3.5922,-0.8436 4.2981,-2.5625 2.4874,-5.3112 -1.8117,-2.7474 -6.1404,-6.5234 -14.7368,-11.9422 -8.5961,-5.4176 -21.4597,-12.48 -29.4421,-17.3922 -7.9823,-4.9111 -11.0827,-7.6744 -12.4789,-9.978 -1.397,-2.3017 -1.0901,-4.1436 -0.7832,-5.9856 3.8994,0.3382 7.7985,0.6756 13.4629,1.3052 5.6641,0.6289 13.0927,1.551 19.1557,1.9801 6.0642,0.4303 10.7601,0.3684 12.8938,-0.6601 2.1345,-1.0275 1.7053,-3.0242 -2.0707,-6.2782 -3.7764,-3.254 -10.8993,-7.7672 -17.715,-12.2952 -6.8149,-4.5279 -13.3229,-9.0724 -17.975,-12.6189 -4.6502,-3.5443 -7.4445,-6.0921 -9.3638,-8.5482 -1.9186,-2.4561 -2.9616,-4.8204 -3.4839,-6.77 -0.522,-1.9495 -0.522,-3.4846 -0.522,-5.0197 6.0796,0.921 12.1573,1.8419 19.4025,2.1488 7.246,0.3073 15.6575,0 19.7238,-1.1674 4.0686,-1.1652 3.793,-3.1921 0.8459,-5.5867 -2.9479,-2.3935 -8.5659,-5.1575 -13.5857,-7.9522 -5.019,-2.7935 -9.4401,-5.6169 -13.0168,-8.4575 -3.5756,-2.8381 -6.3084,-5.6943 -8.3961,-8.6422 -2.0873,-2.9461 -3.5307,-5.9857 -4.9736,-9.0245 3.5922,0.1219 7.1833,0.2464 10.0228,0.1838 2.8404,-0.062 4.9288,-0.3072 6.0785,-1.0905 1.152,-0.7832 1.3671,-2.1031 0.9527,-3.8677 -0.4148,-1.7661 -1.4581,-3.9757 -3.8983,-6.3858 -2.4418,-2.41 -6.2782,-5.0197 -9.5477,-7.5064 -3.2699,-2.4862 -5.9724,-4.8495 -7.3686,-7.0035 -1.3962,-2.1525 -1.4902,-4.0947 -1.5045,-5.0669 -0.015,-0.9703 0.047,-0.9703 0.1083,-0.9703 4.3588,0.3761 8.7188,0.753 11.7587,0.753 3.0385,0 4.7575,-0.3769 5.1093,-1.9109 0.354,-1.5362 -0.6587,-4.2295 -1.7031,-5.8678 -1.044,-1.6386 -2.1175,-2.221 -5.4647,-4.3076 -3.3458,-2.0884 -8.9638,-5.6806 -12.1718,-9.411 -3.208,-3.73 -4.007,-7.5981 -5.2205,-11.5893 -1.2124,-3.9912 -1.562,-9.4395 -2.0696,-15.4882 -0.5066,-6.0483 -1.1686,-12.6943 -1.5989,-17.1146 -0.4291,-4.4226 -1.9034,-5.2809 -3.3918,-2.9166 -1.4879,2.3622 -1.8259,12.3743 -2.5619,19.1285 -0.8896,9.6791 -1.2783,18.7803 -5.6499,25.1252 -2.0877,3.086 -5.4044,7.3214 -7.5064,10.8982 -2.1021,3.5774 -2.9939,6.4929 -2.7943,8.5003 0.2004,2.007 1.4902,3.1033 3.7915,3.3498 2.3029,0.2453 5.6195,-0.3614 8.1518,0 2.5331,0.3569 4.2815,1.678 4.0351,3.4272 -3.9445,9.1652 -21.05,11.1042 -24.6561,16.8859 -0.6454,1.1977 -0.7193,2.9886 -0.3122,4.102 0.4074,1.1132 3.1711,2.4371 4.7221,3.0052 1.5517,0.5691 3.8375,0.921 6.0943,1.0827 2.2575,0.1621 4.4819,0.1297 5.6795,0.1831 1.1981,0.054 1.366,0.193 1.4578,1.2131 1.8658,15.1823 -53.7632,36.1673 -29.963,42.7429 2.7317,0.2623 6.23,-0.015 10.7288,-0.8282 4.4977,-0.8134 9.9916,-2.1657 12.2491,-1.9963 2.2567,0.1691 1.2742,1.8586 -1.0138,4.7283 -2.2859,2.8706 -5.8781,6.9236 -10.1305,10.4687 -4.2524,3.5465 -9.1634,6.5861 -13.0157,9.3484 -3.8545,2.764 -6.6477,5.2507 -8.8743,7.4445 -2.2262,2.1959 -3.8825,4.0998 -5.31,6.1403 -1.4286,2.0417 -2.6241,4.2218 -2.7162,5.7872 -0.094,1.5664 0.9203,2.5168 3.2382,3.2079 2.3176,0.6915 5.94,1.1207 10.5608,1.1207 4.62,0 10.238,-0.4292 14.7272,-0.7361 4.4893,-0.3072 7.8479,-0.4918 9.5271,0.168 1.6802,0.6598 1.6802,2.1647 0.3297,4.1146 -1.3491,1.9495 -4.0476,4.3441 -8.1065,7.9194 -4.0601,3.5767 -9.4777,8.3363 -15.3956,12.0343 -5.9167,3.6998 -12.3349,6.3408 -16.679,8.3968 -4.3441,2.0575 -6.6145,3.5318 -8.4104,6.1403 -1.7963,2.6098 -3.1163,6.3556 -2.1032,8.7803 1.0127,2.4259 4.3596,3.5296 7.4298,3.4994 3.0691,-0.029 5.8637,-1.1958 9.6397,-2.3319 3.7761,-1.1361 8.5339,-2.241 13.1764,-3.1619 4.644,-0.9214 9.173,-1.6585 12.788,-2.1805 3.6132,-0.5213 6.3117,-0.8293 9.1126,-1.5038 2.8017,-0.6757 5.7057,-1.719 8.6086,-2.7634 -1.1048,4.2377 -2.2096,8.4735 -2.5938,13.845 -0.3843,5.3727 -0.046,11.8818 0.1838,16.1025 0.2299,4.2211 0.354,6.1551 0.4763,8.0892 -2.2578,-0.7666 -4.5176,-1.5344 -9.0153,-2.3791 -4.4977,-0.8436 -11.233,-1.7646 -16.8418,-2.2711 -5.6099,-0.5066 -10.0929,-0.5983 -15.312,0.2755 -5.2194,0.8764 -11.1748,2.7184 -14.767,4.4362 -3.5922,1.7197 -4.8194,3.3167 -6.1183,5.5816 -1.2993,2.2659 -2.6672,5.2024 -4.0372,8.137 -22.4791,-11.1549 -38.7171,-25.5263 -48.7201,-43.1116 11.5911,7.2264 44.337,12.4416 49.9384,8.7208 -33.6714,-32.482 -51.1404,-34.889 -51.654,-56.6792 10.9229,2.7663 17.1493,6.8122 27.9503,10.537 10.5994,3.8232 34.3415,7.4246 19.7873,0.525 -13.2069,-6.2612 -44.2755,-36.9292 -51.0683,-51.4557 7.7661,0.2715 27.2503,15.0194 20.387,1.9474 -3.537,-9.103 -19.946,-16.0805 -22.6091,-36.1806 -3.0908,-39.046 -7.1435,-39.046 -12.1592,0 -4.9928,19.0259 -19.8864,25.5938 -22.5645,37.2082 1.8205,5.0292 12.8308,1.3535 19.5245,0 -10.2056,20.0999 -26.3844,32.8714 -48.53552,38.314 V 302.53285 c 1.1969,-2.20963 2.3934,-4.42036 5.87842,-5.66406 3.4836,-1.24296 9.2552,-1.51852 15.3797,-1.64193 6.1238,-0.12304 12.6024,-0.0928 16.671,-0.44465 4.0674,-0.35403 5.7233,-1.09008 6.3687,-2.9781 0.6444,-1.88838 0.2767,-4.928 -0.4446,-8.79614 -0.7228,-3.86776 -1.7963,-8.56589 -1.811,-12.26382 z m 147.6519,-28.75498 c -2.6701,-0.76737 -5.4644,-2.39419 -10.4226,-5.47912 -4.9571,-3.08493 -12.08,-7.62944 -17.7297,-11.62062 -5.6482,-3.99007 -9.8225,-7.42902 -12.6315,-10.37581 -2.809,-2.94678 -4.252,-5.40286 -4.0976,-8.25791 0.1536,-2.85505 1.9027,-6.10908 5.2651,-9.3631 3.3605,-3.25402 8.3345,-6.50989 14.8591,-8.81161 6.5236,-2.30246 14.5954,-3.65263 20.153,-3.97423 5.5569,-0.32382 8.5946,0.38202 11.7879,1.41168 3.1921,1.02782 6.539,2.37798 8.2579,1.58004 1.7189,-0.79867 1.8129,-3.74582 3.2091,-6.44615 1.3962,-2.70254 4.0976,-5.15752 6.8911,-6.56957 2.7943,-1.41279 5.6788,-1.78044 8.535,-1.366 2.8558,0.4137 5.6795,1.61135 7.46,2.97736 1.7804,1.366 2.5179,2.9011 3.6684,5.94072 1.152,3.03777 2.7173,7.58265 4.2671,10.82193 1.5506,3.23818 3.0868,5.17225 5.449,6.3699 2.3643,1.19691 5.5575,1.6563 9.0411,0.47633 3.4846,-1.18217 7.261,-4.00812 10.4071,-7.75285 3.1476,-3.74582 5.664,-8.41153 8.3353,-13.80003 2.6705,-5.38813 5.4949,-11.49609 7.1678,-16.02402 1.6733,-4.53014 2.1953,-7.47618 2.7173,-10.42407 2.2409,0.98398 4.4822,1.96538 6.1551,3.45443 1.6729,1.48905 2.7788,3.4839 3.8063,5.81767 1.0285,2.33193 1.9808,5.00426 3.6684,6.96854 1.6895,1.96501 4.1146,3.22344 7.1082,3.2997 2.9939,0.0774 6.5542,-1.02745 9.3319,-3.11403 2.7788,-2.08843 4.7743,-5.15862 6.2479,-8.5659 1.4743,-3.40874 2.4248,-7.15457 3.7761,-10.03872 1.3512,-2.88637 3.1004,-4.91217 5.2024,-5.63385 2.1043,-0.72132 4.5604,-0.13889 8.5659,1.6574 4.007,1.79592 9.5624,4.80459 13.4762,7.46108 3.9142,2.65575 6.1854,4.95711 8.4565,7.25994 v 64.65237 c -2.8853,-1.25806 -5.7705,-2.5176 -9.4088,-4.64987 -3.636,-2.13447 -8.0262,-5.14204 -11.5723,-7.50639 -3.5454,-2.36398 -6.248,-4.0829 -9.2567,-4.78875 -3.0072,-0.70694 -6.3227,-0.39897 -9.3627,1.38148 -3.0378,1.77934 -5.8018,5.03447 -9.4246,9.21021 -3.6214,4.17427 -8.1044,9.27026 -14.6751,12.87794 -6.5695,3.60584 -15.2253,5.72595 -25.1115,5.84789 -9.8859,0.1223 -20.9981,-1.75024 -29.7018,-3.65373 -8.7029,-1.90275 -14.9969,-3.83682 -21.2906,-5.77052 -1.8725,2.36398 -3.7436,4.72612 -4.9416,6.44615 -1.1966,1.72003 -1.7189,2.79353 -4.252,4.13007 -2.5324,1.33468 -7.0772,2.9302 -10.6234,3.77603 -3.5454,0.84362 -6.0932,0.93572 -8.7637,0.16799 z m 150.3368,430.79011 c 0.8742,-6.3544 1.1822,-12.1887 1.0894,-18.4816 -0.092,-6.2936 -0.5828,-13.047 -0.798,-19.7551 -0.2162,-6.7084 -0.334,-13.3011 -0.2732,-17.3146 -0.196,-6.5856 -0.3713,-9.0624 2.1906,-10.7037 l 2.982,-3.0189 c 2.4857,-2.147 4.3772,-7.8699 4.416,-13.6664 0.045,-6.7397 0.9509,-12.3241 -3.6294,-17.9749 1.3211,-1.5038 2.6873,-3.1022 3.1,-4.7287 0.1204,-1.4742 0.4824,-4.2121 3.7017,-5.1232 2.0089,-0.445 5.2688,-2.2101 5.2688,-2.2101 v 322.9477 h -21.6244 c 0.1839,-3.4209 0.3684,-6.844 -0.015,-11.87 -0.3831,-5.026 -1.3354,-11.6571 -2.9939,-19.7463 -1.6563,-8.09 -4.0203,-17.6387 -5.7558,-27.249 -1.7347,-9.6081 -2.8384,-19.278 -4.0059,-29.0265 -1.1663,-9.747 -2.3945,-19.5705 -3.0087,-26.1567 -0.6137,-6.5839 -0.6137,-9.9308 -0.6137,-13.2769 2.1175,-2.242 4.2365,-4.4819 7.5215,-8.1658 3.2843,-3.6843 7.737,-8.8116 10.3615,-13.2017 2.6251,-4.3902 3.4231,-8.0429 3.191,-12.6338 -0.2295,-4.5894 -1.488,-10.1146 -2.4705,-15.0267 -0.9817,-4.9122 -1.6876,-9.2106 -1.3199,-14.7973 0.3684,-5.5878 1.8128,-12.4643 2.6867,-18.8198 z m -107.3891,80.2653 c 4.4966,0.4148 9.1645,0.3842 13.047,-0.4605 3.8837,-0.8436 6.9841,-2.501 11.1591,-3.8836 4.175,-1.3815 9.4253,-2.4852 13.355,-2.8853 3.9296,-0.3989 6.5404,-0.092 9.149,0.2152 -1.8725,5.2485 -3.7451,10.4992 -4.7128,17.3149 -0.966,6.816 -1.0278,15.1962 -0.8134,22.3799 0.2158,7.1844 0.7058,13.1711 0.4446,18.3589 -0.2612,5.1881 -1.2728,9.5782 -2.809,14.812 -1.534,5.2349 -3.5922,11.3145 -4.8506,16.7011 -1.2585,5.3881 -1.7179,10.0863 -1.7794,15.2898 -0.062,5.2028 0.2756,10.9148 0.9973,16.3084 0.7224,5.3959 1.8265,10.475 2.9324,15.5544 h -54.158 c 0.3699,-21.4741 0.7372,-42.9474 0.1537,-64.5898 -0.5817,-21.6435 -2.1179,-43.4542 -3.6519,-65.2657 2.7946,-0.6609 5.5867,-1.3211 9.1487,-1.2227 3.562,0.099 7.8906,0.9596 12.3883,1.373 z m 47.0631,108.5631 c 0.5367,-8.5254 2.6251,-19.2711 4.175,-26.5016 1.5516,-7.2293 2.5636,-10.9438 3.9293,-17.0842 1.3671,-6.14 3.086,-14.7052 4.6041,-22.8714 1.5208,-8.1662 2.8407,-15.9334 4.1603,-23.7006 1.5981,8.7497 3.1936,17.4998 4.9741,26.8784 1.7804,9.3785 3.7469,19.3867 5.9867,30.4381 2.2422,11.0526 4.7598,23.1495 6.7399,30.7016 1.9797,7.5521 3.4231,10.5608 4.298,13.684 0.8742,3.1233 1.1822,6.3607 1.4884,9.5978 h -38.8668 c -1.0131,-6.3073 -2.0258,-12.6146 -1.489,-21.1421 z m -200.8559,-179.5432 c 13.4231,4.5843 21.6697,7.0949 36.8426,8.5562 -0.5374,20.5961 6.7935,25.5564 16.7037,48.3423 -22.9613,-10.4288 -51.0173,-48.5385 -53.5463,-56.8985 z m 28.4608,71.4155 c 8.5184,4.2064 18.9882,9.548 29.4557,14.8905 -1.1361,3.1619 -2.2723,6.3239 -4.2678,9.04 -1.9967,2.7184 -4.8507,4.9895 -9.1185,7.7974 -4.2679,2.8102 -9.9456,4.6299 -15.6254,9.502 -4.2569,17.0031 1.7189,58.6929 2.5772,88.0399 h -31.8634 c -1.4736,-30.6972 -2.9483,-61.3943 -4.574,-85.0942 -1.628,-23.6995 -1.2068,-38.9729 -2.9872,-55.6737 5.6486,0.8595 9.097,0.2934 15.2061,2.2577 6.109,1.9643 12.6793,5.0341 21.1973,9.2404 z m 15.7894,64.5264 c 2.4259,-2.1179 4.8506,-4.2365 6.9247,-6.3857 2.0718,-2.1481 3.7897,-4.3287 5.5093,-6.5077 4.1146,10.0697 8.227,20.1397 12.7568,30.5612 4.5283,10.423 9.4695,21.1996 14.4119,31.9755 0.4922,5.0333 0.9829,10.0667 1.4747,15.1001 h -43.1032 c 0.7685,-12.1261 1.5373,-24.251 1.8755,-35.0413 0.3374,-10.7913 0.2435,-20.2462 0.1503,-29.7021 z m -123.09922,64.7434 v -137.4964 c 10.26142,-4.6165 32.02862,-7.4548 43.32172,-6.7399 2.5656,50.092 3.3765,97.7895 1.2529,144.2363 z m -0.50467,-170.7419 0.50467,-31.9617 c 14.81432,-0.5356 25.62752,-5.7052 35.06542,-2.4677 -3.2159,14.1347 -16.719,20.6765 -35.57009,34.4294 z m 0.50467,-44.5813 v -41.5401 c 12.21192,1.8806 26.24152,0.5629 42.08832,-3.9588 -5.0625,14.0892 -19.0924,29.2553 -42.08832,45.4989 z m 0,-48.8155 v -37.0232 c 13.54622,0.7456 26.93072,-1.0028 40.15422,-5.2497 -8.2568,16.5881 -21.6413,30.6795 -40.15422,42.2729 z M 1075.6628,87.689268 c -7.6449,0.98361 -16.4252,3.92966 -22.2576,9.11848 -5.8331,5.188092 -8.7195,12.616752 -12.6481,18.051302 -3.9296,5.43417 -8.9033,8.87203 -12.5257,9.6405 -3.6228,0.76662 -5.8939,-1.13613 -8.9026,-3.5318 -3.0094,-2.39419 -6.7541,-5.27945 -9.3336,-5.40175 -2.5784,-0.12415 -3.9912,2.5176 -4.7888,5.92598 -0.7979,3.40653 -0.984,7.58154 -2.3934,10.06783 -1.4121,2.48666 -4.04982,3.28644 -6.68792,4.08439 V 53.126208 h 132.61782 c -1.6571,2.51576 -3.3156,5.03004 -4.9413,6.19675 -1.6283,1.16523 -3.2238,0.9814 -5.096,0.67563 -1.8737,-0.30834 -4.0229,-0.73642 -4.7902,0.0615 -0.7674,0.79794 -0.1536,2.82374 -0.9512,4.1437 -0.7991,1.31995 -3.0087,1.93406 -4.4823,2.57838 -1.4743,0.64432 -2.2114,1.31996 -1.5977,2.36399 0.6141,1.04329 2.5795,2.45608 4.2376,4.45167 1.6574,1.99448 3.0076,4.57508 0.4911,7.18477 -2.518,2.6086 -8.9037,5.24851 -15.3499,6.0785 -6.4483,0.82815 -12.956,-0.15436 -20.6002,0.82815 z M 996.12508,931.37551 H 1354.204 V 1040.4212 H 996.12508 Z M 1114.2381,172.24154 c -2.809,1.35127 -7.1387,2.45497 -10.0844,3.02304 -2.9479,0.56806 -4.5143,0.59827 -5.7425,-0.0921 -1.2283,-0.69 -2.1179,-2.1039 -4.6344,-3.13171 -2.5176,-1.02856 -6.6624,-1.67288 -10.8375,-3.25366 -4.175,-1.58115 -8.3802,-4.09875 -12.5865,-7.18478 -4.2063,-3.08456 -8.4115,-6.73756 -11.3439,-10.88125 -2.9325,-4.14443 -4.5884,-8.78104 -3.6059,-13.09309 0.9818,-4.31352 4.6031,-8.3058 8.2572,-9.71786 3.6526,-1.41168 7.3369,-0.24645 10.101,1.25954 2.7622,1.50379 4.6031,3.34576 6.277,5.17225 1.6729,1.8265 3.1767,3.63826 4.6827,5.45002 0.4907,-2.94789 0.9814,-5.89393 0.8584,-8.88787 -0.1223,-2.99394 -0.8606,-6.03282 -0.6746,-8.30396 0.1839,-2.27226 1.2887,-3.77714 3.4386,-3.96097 2.1481,-0.18383 5.3414,0.95229 8.8264,2.25678 3.4835,1.30411 7.2595,2.77879 11.5576,3.96097 4.2984,1.18107 9.1177,2.07184 13.5381,2.45608 4.4203,0.38313 8.4428,0.25898 13.2946,0.35292 4.8495,0.0917 10.5283,0.39787 14.8577,1.76387 4.3286,1.36563 7.3056,3.78967 10.2841,6.21444 -0.4922,-2.79354 -0.9818,-5.58486 -1.4121,-9.20654 -0.4303,-3.62351 -0.7976,-8.07408 -0.8436,-12.5718 -0.048,-4.49772 0.2295,-9.04223 1.3962,-12.84847 1.1652,-3.806612 3.2234,-6.875702 4.9737,-7.858212 1.748,-0.98361 3.1925,0.12231 5.7863,1.99448 2.5939,1.87145 6.3375,4.5132 11.0806,7.153112 4.743,2.63991 10.4856,5.28092 16.3334,7.87478 5.8479,2.59423 11.8045,5.14204 16.3022,7.0459 4.4966,1.90276 7.5351,3.16193 8.8238,5.86446 1.2897,2.7007 0.8303,6.84402 -1.0422,9.83796 -1.8733,2.99393 -5.1575,4.83627 -10.2075,5.94109 -5.0503,1.10481 -11.8659,1.4732 -17.6221,2.07074 -5.7558,0.59606 -10.4532,1.42016 -14.8116,3.84603 -4.357,2.42477 -8.3751,6.45021 -13.8233,11.4261 -5.45,4.97516 -12.3305,10.90004 -18.0417,14.3692 -5.7119,3.46917 -10.2546,4.48188 -13.3863,4.71176 -3.1317,0.22987 -4.8495,-0.32161 -5.9241,-2.30136 -1.0757,-1.98012 -1.506,-5.38849 -1.1362,-8.67273 0.3677,-3.28423 1.534,-6.44615 2.7004,-9.60844 -2.1176,1.56457 -4.2366,3.13061 -5.9396,5.29455 -1.7042,2.16358 -2.9929,4.92801 -4.2826,7.10816 -1.2898,2.17942 -2.5784,3.7753 -5.3874,5.12657 z m 44.1295,655.29667 c -4.1761,-11.4047 -7.0603,-21.75 -8.0741,-28.9963 -1.0142,-7.2452 -0.1536,-11.3889 1.8261,-15.9949 1.9802,-4.6042 5.0817,-9.67 8.2738,-13.5381 3.1925,-3.8678 6.4789,-6.5401 9.4707,-8.5659 2.9939,-2.0258 5.6953,-3.4065 8.3957,-4.788 -1.5956,36.0731 -3.1922,72.1451 -4.788,108.2182 -5.4644,-12.4642 -10.9281,-24.9288 -15.1042,-36.335 z"
       style="display:inline;fill:none;stroke:#000016;stroke-width:0.368396;stroke-linecap:butt;stroke-linejoin:miter;stroke-miterlimit:4;stroke-dasharray:none;stroke-opacity:1"
       id="path3713-3-5"
       sodipodi:nodetypes="cccsccccccccccccccccccccccccccccccccccccccccccsscccccccccccccccsccccccccccccccccccccccccccccccsccccsccccccccccccccccccccccssccccccccccccccccccccccccccccscccccscccccccccccccccccccccccccccccccscccccccccsscccssccsccccccccccccccccccccccccccsscccccccccsccccccccsccccccccccccscccccccccccccccccsccccccscccscccccccccccccccsccscccccccsccccscccccsccccsccccccccsscccccccccccccccccccccccccccccccccccccccsccccccccscccscccccccccccccccccccccccccscccccccccscccccsccccccccc" />
    <path
       d="m 1840.0811,450.61021 v 156.791 l -11.7165,-0.1511 V 450.61021 Z M 1708.324,222.2489 l -135.7849,-78.39549 -5.8583,10.14679 135.6544,78.3198 z m -135.7856,691.75932 135.785,-78.39551 -5.9893,-10.0711 -135.654,78.31981 z m -131.8877,-868.241213 418.6017,241.658603 0.2217,482.5532 c -155.6067,89.8403 -263.2167,152.36391 -418.8234,242.20419 l -0.163,-57.50278 369.1424,-213.09561 -0.2495,-425.5328 -369.0301,-213.1843 z"
       style="fill:none;stroke:#2b0016;stroke-width:0.368396;stroke-linecap:butt;stroke-linejoin:miter;stroke-miterlimit:4;stroke-dasharray:none;stroke-opacity:1"
       id="path3715"
       inkscape:connector-curvature="0"
       sodipodi:nodetypes="cccccccccccccccccccccccc" />
    <path
       d="m 2009.793,454.77103 v 156.791 l -11.7165,-0.1511 v -156.6399 z m -131.7571,-228.36131 -135.7849,-78.39549 -5.8583,10.14679 135.6544,78.3198 z m -135.7856,691.75932 135.785,-78.39551 -5.9893,-10.0711 -135.654,78.31981 z m -131.8877,-868.241213 418.6017,241.658603 0.2217,482.5532 c -155.6067,89.8403 -263.2167,152.36391 -418.8234,242.20417 l -0.163,-57.50276 369.1424,-213.09561 -0.2495,-425.5328 -369.0301,-213.1843 z"
       style="display:inline;fill:none;stroke:#2b0016;stroke-width:0.368396;stroke-linecap:butt;stroke-linejoin:miter;stroke-miterlimit:4;stroke-dasharray:none;stroke-opacity:1"
       id="path3715-2"
       inkscape:connector-curvature="0"
       sodipodi:nodetypes="cccccccccccccccccccccccc" />
  </g>
  <g
     inkscape:groupmode="layer"
     id="layer2"
     inkscape:label="Layer 2"
     style="display:none">
    <rect
       style="fill:#d40000;fill-opacity:1;stroke:none;stroke-width:0.360385;stroke-linecap:butt;stroke-linejoin:round;stroke-miterlimit:4;stroke-dasharray:none;stroke-dashoffset:0;stroke-opacity:1"
       id="rect6790"
       width="156.79097"
       height="11.716536"
       x="1942.4102"
       y="387.89801" />
    <rect
       style="display:inline;fill:#0000ff;fill-opacity:1;stroke:none;stroke-width:0.611955;stroke-linecap:butt;stroke-linejoin:round;stroke-miterlimit:4;stroke-dasharray:none;stroke-dashoffset:0;stroke-opacity:1"
       id="rect6790-7"
       width="280.29684"
       height="18.897638"
       x="1942.4102"
       y="399.61453" />
    <rect
       style="display:inline;fill:#0000ff;fill-opacity:1;stroke:none;stroke-width:0.420178;stroke-linecap:butt;stroke-linejoin:round;stroke-miterlimit:4;stroke-dasharray:none;stroke-dashoffset:0;stroke-opacity:1"
       id="rect6790-7-0"
       width="132.1438"
       height="18.897638"
       x="1810.2665"
       y="399.61453" />
    <rect
       style="display:inline;fill:#0000ff;fill-opacity:1;stroke:none;stroke-width:0.612356;stroke-linecap:butt;stroke-linejoin:round;stroke-miterlimit:4;stroke-dasharray:none;stroke-dashoffset:0;stroke-opacity:1"
       id="rect6790-7-0-9"
       width="280.66534"
       height="18.897638"
       x="1942.4102"
       y="369.00037" />
    <rect
       style="display:inline;fill:#0000ff;fill-opacity:1;stroke:none;stroke-width:0.612356;stroke-linecap:butt;stroke-linejoin:round;stroke-miterlimit:4;stroke-dasharray:none;stroke-dashoffset:0;stroke-opacity:1"
       id="rect6790-7-0-9-1"
       width="280.66534"
       height="18.897638"
       x="932.27917"
       y="-1381.2253"
       transform="rotate(60)" />
    <rect
       style="display:inline;fill:#0000ff;fill-opacity:1;stroke:none;stroke-width:0.612356;stroke-linecap:butt;stroke-linejoin:round;stroke-miterlimit:4;stroke-dasharray:none;stroke-dashoffset:0;stroke-opacity:1"
       id="rect6790-7-0-9-1-9"
       width="280.66534"
       height="18.897638"
       x="651.61383"
       y="-1381.2253"
       transform="rotate(60)" />
    <rect
       style="display:inline;fill:#0000ff;fill-opacity:1;stroke:none;stroke-width:0.612356;stroke-linecap:butt;stroke-linejoin:round;stroke-miterlimit:4;stroke-dasharray:none;stroke-dashoffset:0;stroke-opacity:1"
       id="rect6790-7-0-9-1-8"
       width="280.66534"
       height="18.897638"
       x="932.27917"
       y="-1350.6112"
       transform="rotate(60)" />
    <rect
       style="display:inline;fill:#0000ff;fill-opacity:1;stroke:none;stroke-width:0.612356;stroke-linecap:butt;stroke-linejoin:round;stroke-miterlimit:4;stroke-dasharray:none;stroke-dashoffset:0;stroke-opacity:1"
       id="rect6790-7-0-9-1-8-7"
       width="280.66534"
       height="18.897638"
       x="651.61389"
       y="-1350.6112"
       transform="rotate(60)" />
    <rect
       style="display:inline;fill:#0000ff;fill-opacity:1;stroke:none;stroke-width:0.612356;stroke-linecap:butt;stroke-linejoin:round;stroke-miterlimit:4;stroke-dasharray:none;stroke-dashoffset:0;stroke-opacity:1"
       id="rect6790-7-0-9-6"
       width="280.66534"
       height="18.897638"
       x="807.93549"
       y="2119.043"
       transform="rotate(-60)" />
    <rect
       style="display:inline;fill:#0000ff;fill-opacity:1;stroke:none;stroke-width:0.612356;stroke-linecap:butt;stroke-linejoin:round;stroke-miterlimit:4;stroke-dasharray:none;stroke-dashoffset:0;stroke-opacity:1"
       id="rect6790-7-0-9-6-0"
       width="280.66534"
       height="18.897638"
       x="807.93549"
       y="2149.657"
       transform="rotate(-60)" />
    <rect
       style="display:inline;fill:#0000ff;fill-opacity:1;stroke:none;stroke-width:0.612356;stroke-linecap:butt;stroke-linejoin:round;stroke-miterlimit:4;stroke-dasharray:none;stroke-dashoffset:0;stroke-opacity:1"
       id="rect6790-7-0-9-6-0-6"
       width="280.66534"
       height="18.897638"
       x="1088.6008"
       y="2149.657"
       transform="rotate(-60)" />
    <rect
       style="display:inline;fill:#0000ff;fill-opacity:1;stroke:none;stroke-width:0.612356;stroke-linecap:butt;stroke-linejoin:round;stroke-miterlimit:4;stroke-dasharray:none;stroke-dashoffset:0;stroke-opacity:1"
       id="rect6790-7-0-9-6-0-6-2"
       width="280.66534"
       height="18.897638"
       x="1088.6008"
       y="2119.0427"
       transform="rotate(-60)" />
    <rect
       style="display:inline;fill:#0000ff;fill-opacity:1;stroke:none;stroke-width:0.428733;stroke-linecap:butt;stroke-linejoin:round;stroke-miterlimit:4;stroke-dasharray:none;stroke-dashoffset:0;stroke-opacity:1"
       id="rect6790-7-0-9-3"
       width="137.57983"
       height="18.897638"
       x="1804.8303"
       y="369.00037" />
    <rect
       style="display:inline;fill:#d40000;fill-opacity:1;stroke:none;stroke-width:0.360385;stroke-linecap:butt;stroke-linejoin:round;stroke-miterlimit:4;stroke-dasharray:none;stroke-dashoffset:0;stroke-opacity:1"
       id="rect6790-9"
       width="156.79097"
       height="11.716536"
       x="932.27917"
       y="-1362.3278"
       transform="rotate(60)" />
    <rect
       style="display:inline;fill:#d40000;fill-opacity:1;stroke:none;stroke-width:0.360385;stroke-linecap:butt;stroke-linejoin:round;stroke-miterlimit:4;stroke-dasharray:none;stroke-dashoffset:0;stroke-opacity:1"
       id="rect6790-1"
       width="156.79097"
       height="11.716536"
       x="931.80988"
       y="2137.9404"
       transform="rotate(-60)" />
  </g>
</svg>
