<?xml version="1.0" encoding="UTF-8" standalone="no"?>
<svg
   xmlns:osb="http://www.openswatchbook.org/uri/2009/osb"
   xmlns:dc="http://purl.org/dc/elements/1.1/"
   xmlns:cc="http://creativecommons.org/ns#"
   xmlns:rdf="http://www.w3.org/1999/02/22-rdf-syntax-ns#"
   xmlns:svg="http://www.w3.org/2000/svg"
   xmlns="http://www.w3.org/2000/svg"
   xmlns:xlink="http://www.w3.org/1999/xlink"
   xmlns:sodipodi="http://sodipodi.sourceforge.net/DTD/sodipodi-0.dtd"
   xmlns:inkscape="http://www.inkscape.org/namespaces/inkscape"
   version="1.1"
   width="595.2756"
   height="841.8898"
   id="svg3729"
   sodipodi:docname="lantern.svg"
   inkscape:version="0.92.3 (2405546, 2018-03-11)">
  <metadata
     id="metadata3735">
    <rdf:RDF>
      <cc:Work
         rdf:about="">
        <dc:format>image/svg+xml</dc:format>
        <dc:type
           rdf:resource="http://purl.org/dc/dcmitype/StillImage" />
        <dc:title></dc:title>
      </cc:Work>
    </rdf:RDF>
  </metadata>
  <defs
     id="defs3733">
    <linearGradient
       id="linearGradient4546"
       osb:paint="solid">
      <stop
         style="stop-color:#000016;stop-opacity:1;"
         offset="0"
         id="stop4544" />
    </linearGradient>
    <linearGradient
       inkscape:collect="always"
       xlink:href="#linearGradient4546"
       id="linearGradient4548"
       x1="321.1917"
       y1="516.08155"
       x2="443.2255"
       y2="516.08155"
       gradientUnits="userSpaceOnUse" />
  </defs>
  <sodipodi:namedview
     pagecolor="#ffffff"
     bordercolor="#666666"
     borderopacity="1"
     objecttolerance="10"
     gridtolerance="10"
     guidetolerance="10"
     inkscape:pageopacity="0"
     inkscape:pageshadow="2"
     inkscape:window-width="3840"
     inkscape:window-height="2066"
     id="namedview3731"
     showgrid="false"
     inkscape:measure-start="158.054,731.343"
     inkscape:measure-end="255.353,747.56"
     inkscape:zoom="3.095887"
     inkscape:cx="-60.050497"
     inkscape:cy="464.6079"
     inkscape:window-x="-11"
     inkscape:window-y="-11"
     inkscape:window-maximized="1"
     inkscape:current-layer="svg3729" />
  <path
     d="  M92.3417,432.1616 C89.8041,431.6740 86.4295,430.7655 84.0917,430.0033 C81.7543,429.2405 80.4543,428.6239 79.1544,428.0071 C79.1209,428.8323 79.0875,429.6569 78.8666,430.7822 C78.6458,431.9070 78.2374,433.3323 77.5165,434.2238 C76.7959,435.1153 75.7624,435.4741 74.8542,435.6198 C73.9457,435.7658 73.1625,435.6989 72.2503,435.2865 C71.3375,434.8738 70.2961,434.1158 69.2546,433.3572 L69.2546,423.2069 C69.5460,422.7568 69.8374,422.3069 70.4667,422.4986 C71.0955,422.6902 72.0624,423.5236 72.7665,424.2946 C73.4706,425.0653 73.9125,425.7740 74.4749,426.1487 C75.0373,426.5237 75.7210,426.5654 76.5252,426.1405 C77.3291,425.7153 78.2544,424.8238 79.1921,424.4114 C80.1295,423.9986 81.0791,424.0655 81.7543,423.9780 C82.4292,423.8901 82.8295,423.6486 82.7045,423.0068 C82.5792,422.3650 81.9292,421.3236 81.9541,420.7277 C81.9791,420.1319 82.6795,419.9817 83.3443,420.2444 C84.0090,420.5066 84.6388,421.1819 85.0890,421.8817 C85.5386,422.5816 85.8093,423.3070 86.3402,423.9819 C86.8714,424.6571 87.6628,425.2819 88.8965,425.5943 C90.1295,425.9069 91.8043,425.9069 93.4628,425.8488 C95.1214,425.7901 96.7626,425.6736 98.0546,425.8403 C99.3464,426.0070 100.2878,426.4569 100.6087,427.2279 C100.9295,427.9986 100.6299,429.0905 100.1381,430.0696 C99.6466,431.0487 98.9631,431.9155 97.7715,432.3158 C96.5798,432.7157 94.8793,432.6489 92.3417,432.1616 Z Z M139.1142,669.9237 L96.5945,669.9237 L96.5945,661.4198 L56.9815,661.4198 L56.9815,370.7433 L96.5945,370.7433 L96.5945,362.2394 L139.1142,362.2394 L139.1142,370.7433 L178.7992,370.7433 L178.7992,661.4198 L139.1142,661.4198 L139.1142,669.9237 Z Z M153.2633,397.8349 C152.1884,398.3973 151.1717,398.6141 150.3839,398.5517 C149.5967,398.4891 149.0380,398.1475 148.8090,397.8224 C148.5799,397.4973 148.6797,397.1889 148.7801,396.8804 C148.2715,397.0556 147.7633,397.2305 147.3630,397.3224 C146.9631,397.4139 146.6717,397.4224 146.3508,397.2475 C146.0299,397.0726 145.6795,396.7138 145.4672,396.3223 C145.2549,395.9308 145.1795,395.5056 144.9964,395.3724 C144.8130,395.2392 144.5216,395.3974 144.2214,395.4478 C143.9215,395.4977 143.6131,395.4390 143.2210,395.0850 C142.8296,394.7306 142.3548,394.0807 141.8797,393.4307 C141.3465,393.9888 140.8130,394.5475 140.5046,395.1014 C140.1962,395.6556 140.1131,396.2058 140.0006,396.5434 C139.8878,396.8810 139.7466,397.0057 139.6089,396.8768 C139.4714,396.7475 139.3379,396.3640 139.0255,396.5182 C138.7128,396.6724 138.2216,397.3640 137.8502,397.8306 C137.4795,398.2975 137.2297,398.5390 136.8669,398.5767 C136.5043,398.6141 136.0298,398.4474 135.4130,398.0684 C134.7962,397.6889 134.0379,397.0976 133.0296,396.0434 C132.0211,394.9889 130.7625,393.4721 129.5376,391.8557 C128.3128,390.2389 127.1211,388.5222 126.1791,387.3180 C125.2378,386.1139 124.5461,385.4222 123.8627,385.0804 C123.1792,384.7388 122.5043,384.7470 121.6752,384.7595 C120.8458,384.7720 119.8624,384.7887 119.1288,384.5889 C118.3955,384.3887 117.9125,383.9720 117.6165,383.5179 C117.3206,383.0641 117.2126,382.5731 117.1040,382.0819 L166.4546,382.0819 L166.4546,396.5306 C166.1882,395.9889 165.9217,395.4472 165.3384,394.7142 C164.7553,393.9806 163.8550,393.0557 163.1509,392.4014 C162.4467,391.7472 161.9385,391.3639 161.2508,391.3432 C160.5634,391.3223 159.6969,391.6641 158.8924,392.4102 C158.0885,393.1557 157.3466,394.3054 156.4089,395.3347 C155.4715,396.3640 154.3385,397.2725 153.2633,397.8349 Z Z M80.6669,441.1539 C80.6627,440.1496 80.9459,439.4160 81.4124,438.9290 C81.8793,438.4414 82.5290,438.1994 83.8208,438.5622 C85.1122,438.9248 87.0460,439.8911 89.2293,440.5164 C91.4125,441.1414 93.8460,441.4246 96.0710,441.0122 C98.2962,440.5995 100.3124,439.4914 101.6626,438.4885 C103.0124,437.4856 103.6959,436.5879 104.9168,436.1391 C106.1374,435.6907 107.8960,435.6907 109.8502,436.4518 C111.8041,437.2129 113.9542,438.7354 115.5835,440.0844 C117.2126,441.4329 118.3207,442.6078 119.3207,443.2082 C120.3208,443.8080 121.2126,443.8329 122.4332,443.5245 C123.6540,443.2161 125.2040,442.5746 126.6622,441.9499 C128.1206,441.3249 129.4875,440.7163 131.1707,440.3373 C132.8542,439.9580 134.8540,439.8080 136.8374,440.1247 C138.8208,440.4416 140.7875,441.2245 142.5540,442.1248 C144.3209,443.0248 145.8876,444.0410 147.4209,444.7539 C148.9541,445.4663 150.4539,445.8745 151.6207,446.1041 C152.7874,446.3331 153.6208,446.3833 154.4542,446.4332 C154.4292,445.7996 154.4040,445.1664 154.1580,444.4787 C153.9122,443.7913 153.4459,443.0494 152.5833,442.1786 C151.7207,441.3078 150.4621,440.3081 149.5162,439.7374 C148.5706,439.1663 147.9376,439.0245 147.3041,438.8828 C147.8290,438.3496 148.3540,437.8161 149.3997,437.1749 C150.4457,436.5332 152.0127,435.7828 153.7169,435.3996 C155.4211,435.0163 157.2625,434.9996 158.8331,434.9622 C160.4044,434.9248 161.7041,434.8664 162.9289,435.1000 C164.1543,435.3330 165.3043,435.8580 166.4546,436.3829 L166.4546,515.6181 C166.0978,515.5101 165.7406,511.6516 165.4245,511.2765 C165.1088,510.9018 164.8338,510.2600 164.4460,509.6597 C164.0588,509.0598 163.5588,508.5014 163.1625,508.6556 C162.7668,508.8098 162.4754,509.6767 162.2792,510.6016 C162.0836,511.5268 161.9838,512.5099 161.8353,513.1310 C161.6871,513.7517 161.4909,514.0100 161.5490,514.3683 C161.6074,514.7269 161.9206,515.1849 162.0522,515.8103 C162.1837,516.4353 162.1335,517.2267 161.8540,517.7934 C161.5751,518.3603 161.0668,518.7019 160.8165,519.0270 C160.5668,519.3519 160.5750,519.6600 160.5793,519.8142 C160.5835,519.9684 160.5835,519.9684 160.5835,519.9684 C160.2003,519.7351 159.8170,519.5015 159.1379,519.3349 C158.4587,519.1682 157.4836,519.0684 156.7539,519.0602 C156.0249,519.0520 155.5418,519.1350 155.0585,519.2186 C154.5752,518.8768 154.0916,518.5352 153.5916,518.1769 C153.0916,517.8186 152.5751,517.4433 152.0833,516.8015 C151.5915,516.1601 151.1252,515.2516 150.5832,514.2847 C150.0415,513.3183 149.4252,512.2933 148.7999,511.5098 C148.1749,510.7266 147.5419,510.1846 146.9750,510.0763 C146.4083,509.9681 145.9083,510.2932 145.6081,510.9891 C145.3082,511.6847 145.2084,512.7517 145.4083,513.8889 C145.6081,515.0268 146.1081,516.2349 146.9251,517.4433 C147.7417,518.6517 148.8747,519.8604 149.8499,520.7519 C150.8250,521.6434 151.6414,522.2188 152.2037,522.6021 C152.7667,522.9853 153.0751,523.1769 153.3835,523.3686 C153.1250,523.7433 152.8668,524.1186 152.6749,524.9225 C152.4832,525.7270 152.3585,526.9606 152.5496,528.1353 C152.7412,529.3103 153.2497,530.4271 153.6704,531.0850 C154.0911,531.7435 154.4244,531.9439 154.7578,532.1438 C154.7243,533.1438 154.6909,534.1436 154.6243,535.5933 C154.5576,537.0435 154.4576,538.9438 154.2784,540.2271 C154.0993,541.5106 153.8410,542.1773 153.5825,542.8440 C153.1409,542.5773 152.6992,542.3108 152.2658,542.2603 C151.8327,542.2105 151.4075,542.3771 150.9866,542.7354 C150.5659,543.0937 150.1492,543.6442 149.7325,544.1941 C149.2240,543.5606 148.7157,542.9276 148.0782,542.5356 C147.4410,542.1441 146.6739,541.9939 145.9324,542.0313 C145.1908,542.0687 144.4740,542.2941 143.9614,542.7689 C143.4489,543.2440 143.1408,543.9691 142.8324,544.6942 C141.3989,545.0856 139.9657,545.4777 137.9154,545.7192 C135.8654,545.9607 133.1989,546.0525 131.1194,546.0525 C129.0402,546.0525 127.5489,545.9607 126.0570,545.8691 C126.1154,542.1441 126.1738,538.4188 126.2322,534.6938 C128.5322,535.3937 130.8322,536.0939 133.1362,536.6812 C135.4405,537.2688 137.7490,537.7439 139.7823,537.9854 C141.8159,538.2272 143.5740,538.2357 144.5491,538.0061 C145.5242,537.7771 145.7158,537.3105 145.2243,536.5644 C144.7325,535.8186 143.5575,534.7936 141.2240,533.3227 C138.8906,531.8521 135.3988,529.9350 133.2320,528.6016 C131.0652,527.2685 130.2236,526.5184 129.8446,525.8931 C129.4654,525.2683 129.5487,524.7683 129.6320,524.2683 C130.6905,524.3601 131.7489,524.4517 133.2865,524.6226 C134.8240,524.7933 136.8405,525.0436 138.4863,525.1601 C140.1324,525.2769 141.4071,525.2601 141.9863,524.9809 C142.5657,524.7020 142.4492,524.1600 141.4242,523.2767 C140.3991,522.3934 138.4656,521.1683 136.6155,519.9392 C134.7656,518.7101 132.9990,517.4765 131.7362,516.5138 C130.4739,515.5517 129.7154,514.8601 129.1944,514.1934 C128.6736,513.5267 128.3905,512.8849 128.2487,512.3557 C128.1070,511.8265 128.1070,511.4098 128.1070,510.9931 C129.7573,511.2431 131.4071,511.4931 133.3738,511.5764 C135.3407,511.6598 137.6240,511.5764 138.7278,511.2595 C139.8322,510.9432 139.7574,510.3930 138.9574,509.7430 C138.1572,509.0933 136.6322,508.3430 135.2696,507.5844 C133.9072,506.8261 132.7071,506.0597 131.7362,505.2886 C130.7656,504.5182 130.0238,503.7429 129.4571,502.9427 C128.8905,502.1430 128.4987,501.3179 128.1070,500.4930 C129.0821,500.5261 130.0569,500.5599 130.8277,500.5429 C131.5987,500.5261 132.1656,500.4595 132.4777,500.2469 C132.7904,500.0343 132.8488,499.6760 132.7363,499.1970 C132.6237,498.7176 132.3405,498.1178 131.6781,497.4636 C131.0153,496.8094 129.9739,496.1010 129.0864,495.4260 C128.1988,494.7511 127.4652,494.1096 127.0862,493.5249 C126.7072,492.9406 126.6817,492.4134 126.6778,492.1495 C126.6735,491.8861 126.6905,491.8861 126.7072,491.8861 C127.8904,491.9882 129.0739,492.0905 129.8991,492.0905 C130.7239,492.0905 131.1905,491.9882 131.2860,491.5718 C131.3821,491.1548 131.1072,490.4237 130.8237,489.9790 C130.5403,489.5342 130.2489,489.3761 129.3403,488.8097 C128.4321,488.2428 126.9071,487.2677 126.0363,486.2551 C125.1655,485.2426 124.9486,484.1926 124.6192,483.1092 C124.2901,482.0258 123.8488,480.9093 123.7110,479.2674 C123.5735,477.6256 123.7402,475.4591 123.6234,474.2592 C123.5069,473.0587 123.1067,472.8257 122.7027,473.4675 C122.2988,474.1087 121.8900,475.6255 121.6902,477.4589 C121.4904,479.2924 121.4986,481.4422 121.3860,482.7798 C121.2738,484.1172 121.0402,484.6428 120.4736,485.4801 C119.9069,486.3178 119.0066,487.4675 118.4360,488.4384 C117.8654,489.4095 117.6233,490.2009 117.6775,490.7458 C117.7319,491.2906 118.0820,491.5882 118.7067,491.6551 C119.3318,491.7217 120.2321,491.5570 120.9195,491.6540 C121.6071,491.7509 122.0817,492.1095 122.0148,492.5843 C121.9484,493.0594 121.3401,493.6513 120.3650,494.3344 C119.3899,495.0179 118.0485,495.7926 117.2024,496.3093 C116.3565,496.8261 116.0065,497.0846 115.8313,497.4092 C115.6561,497.7343 115.6561,498.1260 115.7666,498.4282 C115.8772,498.7304 116.0980,498.9430 116.5190,499.0972 C116.9402,499.2517 117.5607,499.3472 118.1733,499.3911 C118.7861,499.4351 119.3899,499.4263 119.7150,499.4408 C120.0402,499.4555 120.0858,499.4932 120.1107,499.7701 C120.1357,500.0474 120.1399,500.5638 119.6209,501.1577 C119.1025,501.7516 118.0607,502.4228 117.2565,502.9330 C116.4526,503.4436 115.8857,503.7936 115.2984,504.2602 C114.7105,504.7271 114.1024,505.3102 113.5358,505.8850 C112.9689,506.4605 112.4436,507.0268 111.9773,507.5853 C111.5104,508.1434 111.1020,508.6936 110.8106,509.2396 C110.5186,509.7852 110.3437,510.3269 110.5228,510.7059 C110.7020,511.0849 111.2352,511.3020 111.9773,511.3726 C112.7188,511.4438 113.6684,511.3684 114.8896,511.1478 C116.1105,510.9270 117.6018,510.5599 118.2146,510.6059 C118.8272,510.6518 118.5605,511.1104 117.9394,511.8894 C117.3189,512.6686 116.3438,513.7688 115.1895,514.7311 C114.0352,515.6938 112.7021,516.5189 111.6564,517.2687 C110.6101,518.0190 109.8519,518.6940 109.2475,519.2895 C108.6432,519.8856 108.1936,520.4024 107.8061,520.9563 C107.4183,521.5105 107.0938,522.1023 107.0688,522.5272 C107.0433,522.9524 107.3186,523.2104 107.9478,523.3980 C108.5769,523.5857 109.5602,523.7022 110.8145,523.7022 C112.0686,523.7022 113.5936,523.5857 114.8122,523.5024 C116.0308,523.4190 116.9425,523.3689 117.3983,523.5480 C117.8544,523.7271 117.8544,524.1356 117.4878,524.6649 C117.1216,525.1941 116.3891,525.8441 115.2873,526.8146 C114.1852,527.7855 112.7146,529.0775 111.1082,530.0813 C109.5021,531.0856 107.7599,531.8025 106.5807,532.3606 C105.4015,532.9191 104.7852,533.3193 104.2977,534.0274 C103.8101,534.7358 103.4518,535.7526 103.7268,536.4108 C104.0017,537.0693 104.9102,537.3689 105.7436,537.3607 C106.5767,537.3524 107.3353,537.0361 108.3603,536.7277 C109.3853,536.4193 110.6768,536.1194 111.9370,535.8694 C113.1976,535.6193 114.4270,535.4192 115.4083,535.2775 C116.3891,535.1360 117.1216,535.0524 117.8819,534.8693 C118.6424,534.6859 119.4307,534.4027 120.2187,534.1192 C119.9188,535.2695 119.6189,536.4193 119.5146,537.8774 C119.4103,539.3358 119.5021,541.1027 119.5645,542.2484 C119.6269,543.3942 119.6606,543.9192 119.6938,544.4442 C119.0809,544.2361 118.4675,544.0277 117.2466,543.7984 C116.0257,543.5694 114.1974,543.3194 112.6749,543.1819 C111.1521,543.0444 109.9352,543.0195 108.5185,543.2567 C107.1017,543.4946 105.4851,543.9946 104.5100,544.4609 C103.5349,544.9277 103.2018,545.3612 102.8492,545.9760 C102.4965,546.5911 102.1252,547.3882 101.7533,548.1848 C95.6514,545.1568 91.2436,541.2557 88.5283,536.4822 C91.6747,538.4438 94.1579,538.9194 95.6784,537.9094 C96.3941,535.9708 93.8781,532.2875 88.1303,526.8597 C87.7921,525.7463 87.7921,524.4208 88.1303,522.8833 C91.0953,523.6342 93.4024,524.0900 95.0278,523.7348 C95.1840,523.7008 99.8785,522.7835 95.9278,520.9106 C92.3428,519.2110 89.4492,516.8511 87.6053,512.9079 C89.7134,512.9816 91.0967,512.4648 91.7552,511.3579 C90.7951,508.8869 89.0620,506.1696 86.5553,503.2066 C85.7163,492.6076 84.6162,492.6076 83.2547,503.2066 C79.9756,507.1105 77.9338,510.4772 77.1296,513.3067 C78.8460,513.6741 80.6125,513.6741 82.4295,513.3067 C79.6592,518.7628 75.2675,522.2296 69.2546,523.7070 L69.2546,449.7829 C69.5795,449.1831 69.9043,448.5830 70.8503,448.2454 C71.7959,447.9080 73.3626,447.8332 75.0251,447.7997 C76.6874,447.7663 78.4460,447.7745 79.5504,447.6790 C80.6545,447.5829 81.1040,447.3831 81.2792,446.8706 C81.4541,446.3580 81.3543,445.5329 81.1585,444.4829 C80.9623,443.4330 80.6709,442.1577 80.6669,441.1539 Z Z M120.7468,433.3484 C120.0220,433.1401 119.2635,432.6985 117.9176,431.8611 C116.5720,431.0237 114.6385,429.7901 113.1049,428.7067 C111.5717,427.6236 110.4386,426.6901 109.6761,425.8902 C108.9136,425.0903 108.5219,424.4236 108.5638,423.6486 C108.6055,422.8736 109.0803,421.9903 109.9930,421.1070 C110.9052,420.2237 112.2554,419.3399 114.0265,418.7151 C115.7973,418.0901 117.9884,417.7236 119.4970,417.6363 C121.0054,417.5484 121.8300,417.7400 122.6968,418.0195 C123.5633,418.2985 124.4718,418.6650 124.9384,418.4484 C125.4050,418.2316 125.4305,417.4316 125.8095,416.6986 C126.1885,415.9650 126.9218,415.2986 127.6801,414.9153 C128.4386,414.5318 129.2216,414.4320 129.9969,414.5445 C130.7721,414.6568 131.5386,414.9819 132.0219,415.3527 C132.5052,415.7235 132.7054,416.1402 133.0177,416.9653 C133.3304,417.7899 133.7553,419.0236 134.1760,419.9029 C134.5969,420.7819 135.0139,421.3069 135.6551,421.6320 C136.2969,421.9569 137.1637,422.0816 138.1093,421.7613 C139.0552,421.4404 140.0803,420.6733 140.9343,419.6568 C141.7887,418.6400 142.4718,417.3735 143.1969,415.9108 C143.9218,414.4482 144.6885,412.7902 145.1426,411.5611 C145.5968,410.3314 145.7385,409.5317 145.8802,408.7315 C146.4885,408.9986 147.0969,409.2650 147.5510,409.6692 C148.0051,410.0734 148.3053,410.6149 148.5842,411.2484 C148.8634,411.8814 149.1219,412.6068 149.5800,413.1400 C150.0386,413.6734 150.6969,414.0150 151.5095,414.0357 C152.3222,414.0567 153.2886,413.7568 154.0426,413.1904 C154.7969,412.6235 155.3386,411.7901 155.7386,410.8652 C156.1388,409.9399 156.3968,408.9231 156.7636,408.1402 C157.1304,407.3567 157.6052,406.8068 158.1758,406.6109 C158.7470,406.4151 159.4137,406.5732 160.5010,407.0608 C161.5887,407.5483 163.0967,408.3650 164.1591,409.0861 C165.2216,409.8070 165.8381,410.4317 166.4546,411.0568 L166.4546,428.6066 C165.6714,428.2651 164.8882,427.9232 163.9006,427.3444 C162.9136,426.7650 161.7219,425.9486 160.7593,425.3068 C159.7969,424.6651 159.0633,424.1985 158.2466,424.0069 C157.4303,423.8150 156.5303,423.8986 155.7051,424.3819 C154.8805,424.8649 154.1302,425.7485 153.1468,426.8820 C152.1638,428.0151 150.9469,429.3984 149.1633,430.3777 C147.3800,431.3565 145.0304,431.9320 142.3468,431.9651 C139.6633,431.9983 136.6469,431.4900 134.2843,430.9733 C131.9219,430.4568 130.2134,429.9318 128.5050,429.4069 C127.9967,430.0486 127.4888,430.6898 127.1636,431.1567 C126.8388,431.6236 126.6970,431.9150 126.0094,432.2778 C125.3220,432.6401 124.0883,433.0732 123.1257,433.3028 C122.1633,433.5318 121.4717,433.5568 120.7468,433.3484 Z Z M161.5555,550.2858 C161.7928,548.5609 161.8764,546.9772 161.8512,545.2690 C161.8262,543.5606 161.6930,541.7274 161.6346,539.9065 C161.5759,538.0855 161.5921,536.2775 161.7710,535.2021 C161.9501,534.1272 162.2923,533.7856 162.5712,533.2774 C162.8504,532.7688 163.0670,532.0939 163.1585,531.2563 C163.2504,530.4189 163.2169,529.4188 162.9918,528.7147 C162.7668,528.0106 162.3504,527.6018 162.0377,527.2478 C161.7253,526.8937 161.5170,526.5938 161.3710,526.0856 C161.2253,525.5773 161.1420,524.8602 161.4169,524.2768 C161.6919,523.6934 162.3251,523.2438 162.6834,522.8351 C163.0420,522.4269 163.1251,522.0601 163.1625,521.6513 C163.2005,521.2431 163.1920,520.7936 163.1837,520.3434 C163.8422,520.4353 164.5002,520.5266 165.0453,520.4058 C165.5906,520.2850 166.0226,519.9517 166.4546,519.6183 L166.4546,607.2820 L160.5847,607.2820 C160.6346,606.3534 160.6847,605.4242 160.5804,604.0599 C160.4764,602.6956 160.2179,600.8956 159.7677,598.6998 C159.3181,596.5038 158.6764,593.9118 158.2053,591.3031 C157.7344,588.6950 157.4348,586.0701 157.1179,583.4239 C156.8013,580.7781 156.4679,578.1115 156.3012,576.3237 C156.1346,574.5365 156.1346,573.6280 156.1346,572.7197 C156.7094,572.1111 157.2846,571.5031 158.1763,570.5031 C159.0678,569.5030 160.2765,568.1112 160.9889,566.9195 C161.7015,565.7278 161.9181,564.7363 161.8551,563.4901 C161.7928,562.2443 161.4512,560.7445 161.1845,559.4111 C160.9180,558.0777 160.7264,556.9109 160.8262,555.3944 C160.9262,553.8776 161.3183,552.0110 161.5555,550.2858 Z Z M132.4049,572.0737 C133.6255,572.1863 134.8926,572.1780 135.9465,571.9487 C137.0007,571.7197 137.8423,571.2698 138.9756,570.8945 C140.1089,570.5195 141.5341,570.2199 142.6008,570.1113 C143.6675,570.0030 144.3762,570.0864 145.0843,570.1697 C144.5760,571.5944 144.0677,573.0197 143.8050,574.8698 C143.5428,576.7200 143.5260,578.9948 143.5842,580.9448 C143.6428,582.8950 143.7758,584.5201 143.7049,585.9283 C143.6340,587.3366 143.3594,588.5283 142.9424,589.9490 C142.5260,591.3700 141.9673,593.0203 141.6257,594.4825 C141.2841,595.9451 141.1594,597.2204 141.1427,598.6329 C141.1260,600.0452 141.2175,601.5957 141.4134,603.0598 C141.6095,604.5245 141.9092,605.9032 142.2094,607.2820 L127.5083,607.2820 C127.6087,601.4529 127.7084,595.6240 127.5500,589.7492 C127.3921,583.8741 126.9751,577.9536 126.5587,572.0329 C127.3173,571.8535 128.0752,571.6743 129.0421,571.7010 C130.0090,571.7279 131.1840,571.9615 132.4049,572.0737 Z Z M145.1801,601.5430 C145.3258,599.2288 145.8927,596.3119 146.3134,594.3492 C146.7346,592.3868 147.0093,591.3785 147.3800,589.7117 C147.7511,588.0450 148.2177,585.7200 148.6298,583.5033 C149.0426,581.2866 149.4009,579.1782 149.7591,577.0698 C150.1929,579.4449 150.6260,581.8201 151.1093,584.3659 C151.5926,586.9117 152.1264,589.6284 152.7344,592.6283 C153.3430,595.6285 154.0264,598.9122 154.5639,600.9622 C155.1013,603.0122 155.4931,603.8289 155.7306,604.6767 C155.9679,605.5245 156.0515,606.4033 156.1346,607.2820 L145.5843,607.2820 C145.3093,605.5699 145.0344,603.8578 145.1801,601.5430 Z Z M90.6795,554.8331 C94.5181,555.1330 98.3511,555.0330 102.1796,554.5329 C103.2897,560.0143 105.1894,565.8477 107.8795,572.0329 C101.6467,569.2020 95.9134,563.4686 90.6795,554.8331 Z Z M98.3837,572.1919 C100.6960,573.3337 103.5380,574.7837 106.3794,576.2339 C106.0710,577.0922 105.7626,577.9505 105.2209,578.6878 C104.6789,579.4257 103.9042,580.0422 102.7457,580.8044 C101.5872,581.5672 100.0460,582.4755 98.5042,583.3837 C98.7375,591.3496 98.9708,599.3158 99.2038,607.2820 L90.5545,607.2820 C90.1545,598.9493 89.7542,590.6166 89.3129,584.1833 C88.8710,577.7501 88.3879,573.2169 87.9046,568.6835 C89.4379,568.9168 90.9714,569.1504 92.6297,569.6836 C94.2880,570.2168 96.0715,571.0501 98.3837,572.1919 Z Z M102.6697,589.7075 C103.3282,589.1326 103.9864,588.5575 104.5494,587.9741 C105.1118,587.3910 105.5781,586.7991 106.0449,586.2076 C107.1618,588.9410 108.2781,591.6745 109.5077,594.5034 C110.7369,597.3327 112.0782,600.2580 113.4198,603.1831 C113.5534,604.5494 113.6866,605.9157 113.8201,607.2820 L102.1198,607.2820 C102.3284,603.9904 102.5371,600.6991 102.6289,597.7701 C102.7205,594.8408 102.6950,592.2743 102.6697,589.7075 Z Z M69.2546,607.2820 L69.2546,569.9588 C69.7209,569.6836 70.1878,569.4089 71.0461,569.1960 C71.9039,568.9837 73.1543,568.8334 74.3958,568.7583 C75.6374,568.6835 76.8711,568.6835 77.8961,569.1084 C78.9211,569.5336 79.7374,570.3834 80.2794,571.9003 C80.8211,573.4171 81.0876,575.6003 81.3212,579.4254 C81.5542,583.2505 81.7546,588.7174 81.7546,593.6338 C81.7546,598.5502 81.5542,602.9158 81.3543,607.2820 L69.2546,607.2820 Z Z M69.2546,565.2584 L69.2546,552.2584 C73.2759,552.1130 76.5675,552.4795 79.1294,553.3583 C77.6633,557.5584 74.3717,561.5252 69.2546,565.2584 Z Z M69.2546,548.8328 L69.2546,537.5568 C72.5695,538.0673 76.3778,537.7096 80.6794,536.4822 C79.3052,540.3067 75.4968,544.4235 69.2546,548.8328 Z Z M69.2546,535.5819 L69.2546,525.5320 C72.9317,525.7344 76.5649,525.2598 80.1544,524.1070 C77.9131,528.6098 74.2799,532.4349 69.2546,535.5819 Z Z M90.8450,391.4640 C88.7698,391.7310 86.3864,392.5307 84.8032,393.9392 C83.2198,395.3475 82.4363,397.3640 81.3699,398.8392 C80.3032,400.3143 78.9531,401.2475 77.9698,401.4561 C76.9864,401.6642 76.3699,401.1477 75.5532,400.4974 C74.7363,399.8475 73.7198,399.0643 73.0196,399.0311 C72.3197,398.9974 71.9362,399.7145 71.7197,400.6397 C71.5031,401.5644 71.4526,402.6977 71.0700,403.3726 C70.6867,404.0476 69.9707,404.2647 69.2546,404.4813 L69.2546,382.0819 L105.2535,382.0819 C104.8037,382.7648 104.3535,383.4473 103.9122,383.7640 C103.4702,384.0803 103.0371,384.0304 102.5289,383.9474 C102.0203,383.8637 101.4369,383.7475 101.2286,383.9641 C101.0203,384.1807 101.1869,384.7306 100.9704,385.0889 C100.7535,385.4472 100.1537,385.6139 99.7537,385.7888 C99.3535,385.9637 99.1534,386.1471 99.3200,386.4305 C99.4867,386.7137 100.0202,387.0972 100.4703,387.6389 C100.9202,388.1803 101.2867,388.8808 100.6036,389.5892 C99.9201,390.2973 98.1867,391.0139 96.4369,391.2392 C94.6865,391.4640 92.9200,391.1973 90.8450,391.4640 Z Z M69.2546,620.4815 L166.4546,620.4815 L166.4546,650.0818 L69.2546,650.0818 L69.2546,620.4815 Z Z M101.3162,414.4156 C100.5537,414.7824 99.3784,415.0820 98.5788,415.2362 C97.7786,415.3904 97.3534,415.3986 97.0200,415.2112 C96.6866,415.0239 96.4451,414.6401 95.7620,414.3611 C95.0786,414.0819 93.9535,413.9070 92.8202,413.4779 C91.6869,413.0487 90.5454,412.3653 89.4036,411.5276 C88.2618,410.6903 87.1203,409.6987 86.3243,408.5739 C85.5283,407.4489 85.0788,406.1903 85.3455,405.0198 C85.6120,403.8489 86.5950,402.7652 87.5869,402.3819 C88.5784,401.9987 89.5785,402.3150 90.3288,402.7238 C91.0786,403.1320 91.5783,403.6320 92.0327,404.1278 C92.4868,404.6236 92.8950,405.1154 93.3038,405.6072 C93.4370,404.8070 93.5702,404.0073 93.5368,403.1946 C93.5036,402.3819 93.3032,401.5570 93.3537,400.9405 C93.4036,400.3237 93.7035,399.9152 94.2871,399.8653 C94.8702,399.8154 95.7370,400.1238 96.6830,400.4779 C97.6286,400.8319 98.6536,401.2322 99.8203,401.5531 C100.9871,401.8737 102.2953,402.1155 103.4952,402.2198 C104.6951,402.3238 105.7870,402.2901 107.1040,402.3156 C108.4204,402.3405 109.9619,402.4236 111.1371,402.7944 C112.3121,403.1651 113.1202,403.8231 113.9287,404.4813 C113.7951,403.7230 113.6622,402.9653 113.5454,401.9822 C113.4286,400.9986 113.3289,399.7905 113.3164,398.5696 C113.3033,397.3487 113.3787,396.1151 113.6954,395.0819 C114.0117,394.0486 114.5704,393.2155 115.0455,392.9488 C115.5200,392.6818 115.9121,392.9820 116.6162,393.4902 C117.3203,393.9982 118.3365,394.7153 119.6240,395.4319 C120.9115,396.1485 122.4703,396.8654 124.0577,397.5695 C125.6451,398.2737 127.2620,398.9653 128.4829,399.4821 C129.7035,399.9986 130.5283,400.3404 130.8781,401.0740 C131.2282,401.8071 131.1035,402.9318 130.5952,403.7445 C130.0867,404.5572 129.1952,405.0573 127.8244,405.3572 C126.4535,405.6571 124.6034,405.7571 123.0409,405.9193 C121.4785,406.0811 120.2034,406.3048 119.0203,406.9633 C117.8376,407.6215 116.7469,408.7142 115.2680,410.0649 C113.7886,411.4154 111.9209,413.0237 110.3706,413.9654 C108.8201,414.9071 107.5870,415.1820 106.7369,415.2444 C105.8868,415.3068 105.4205,415.1571 105.1288,414.6197 C104.8368,414.0822 104.7200,413.1570 104.8204,412.2655 C104.9202,411.3740 105.2368,410.5157 105.5534,409.6573 C104.9786,410.0820 104.4034,410.5071 103.9411,411.0945 C103.4785,411.6818 103.1287,412.4322 102.7786,413.0240 C102.4285,413.6156 102.0787,414.0488 101.3162,414.4156 Z Z M113.2951,592.2950 C112.1615,589.1992 111.3786,586.3910 111.1034,584.4240 C110.8281,582.4573 111.0617,581.3325 111.5991,580.0822 C112.1366,578.8324 112.9785,577.4573 113.8450,576.4073 C114.7116,575.3574 115.6037,574.6320 116.4158,574.0821 C117.2285,573.5322 117.9618,573.1574 118.6948,572.7824 C118.2617,582.5744 117.8283,592.3661 117.3951,602.1581 C115.9118,598.7747 114.4287,595.3912 113.2951,592.2950 Z"
     style="stroke-width:0.1;stroke:#000016;stroke-dasharray:none;stroke-linecap:butt;stroke-linejoin:miter;fill:none;stroke-miterlimit:4;stroke-opacity:1"
     id="path3713" />
  <path
     d="m 185.8972,318.6317 h -42.5197 v -8.5039 h 42.5197 z m 66.619,-38.4624 21.2598,-36.8232 -7.3644,-4.252 -21.2598,36.8232 z M 55.4984,243.3458 76.7582,280.169 84.1226,275.917 62.8628,239.0939 Z m 255.46,-38.4624 -73.1605,126.7177 H 91.4774 C 67.090366,289.36187 42.703333,247.12263 18.3163,204.8834 Z"
     style="fill:none;stroke:#2b0016;stroke-width:0.1;stroke-linecap:butt;stroke-linejoin:miter;stroke-miterlimit:4;stroke-dasharray:none;stroke-opacity:1"
     id="path3715"
     inkscape:connector-curvature="0"
     sodipodi:nodetypes="cccccccccccccccccccc" />
  <path
     d="  M224.5008,432.1616 C221.9632,431.6740 218.5886,430.7655 216.2509,430.0033 C213.9134,429.2405 212.6134,428.6239 211.3135,428.0071 C211.2800,428.8323 211.2466,429.6569 211.0258,430.7822 C210.8049,431.9070 210.3965,433.3323 209.6756,434.2238 C208.9551,435.1153 207.9215,435.4741 207.0133,435.6198 C206.1048,435.7658 205.3216,435.6989 204.4094,435.2865 C203.4967,434.8738 202.4552,434.1158 201.4138,433.3572 L201.4138,423.2069 C201.7052,422.7568 201.9966,422.3069 202.6259,422.4986 C203.2546,422.6902 204.2215,423.5236 204.9256,424.2946 C205.6297,425.0653 206.0717,425.7740 206.6340,426.1487 C207.1964,426.5237 207.8802,426.5654 208.6843,426.1405 C209.4883,425.7153 210.4135,424.8238 211.3512,424.4114 C212.2886,423.9986 213.2382,424.0655 213.9134,423.9780 C214.5883,423.8901 214.9886,423.6486 214.8636,423.0068 C214.7383,422.3650 214.0883,421.3236 214.1133,420.7277 C214.1382,420.1319 214.8386,419.9817 215.5034,420.2444 C216.1681,420.5066 216.7980,421.1819 217.2481,421.8817 C217.6977,422.5816 217.9684,423.3070 218.4993,423.9819 C219.0305,424.6571 219.8220,425.2819 221.0556,425.5943 C222.2887,425.9069 223.9634,425.9069 225.6219,425.8488 C227.2805,425.7901 228.9217,425.6736 230.2138,425.8403 C231.5055,426.0070 232.4469,426.4569 232.7678,427.2279 C233.0887,427.9986 232.7890,429.0905 232.2972,430.0696 C231.8057,431.0487 231.1223,431.9155 229.9306,432.3158 C228.7389,432.7157 227.0384,432.6489 224.5008,432.1616 Z Z M271.2733,669.9237 L228.7536,669.9237 L228.7536,661.4198 L189.1406,661.4198 L189.1406,370.7433 L228.7536,370.7433 L228.7536,362.2394 L271.2733,362.2394 L271.2733,370.7433 L310.9584,370.7433 L310.9584,661.4198 L271.2733,661.4198 L271.2733,669.9237 Z Z M285.4225,397.8349 C284.3476,398.3973 283.3308,398.6141 282.5430,398.5517 C281.7558,398.4891 281.1971,398.1475 280.9681,397.8224 C280.7391,397.4973 280.8388,397.1889 280.9392,396.8804 C280.4306,397.0556 279.9224,397.2305 279.5221,397.3224 C279.1222,397.4139 278.8308,397.4224 278.5099,397.2475 C278.1890,397.0726 277.8386,396.7138 277.6263,396.3223 C277.4140,395.9308 277.3386,395.5056 277.1555,395.3724 C276.9721,395.2392 276.6807,395.3974 276.3805,395.4478 C276.0806,395.4977 275.7722,395.4390 275.3802,395.0850 C274.9887,394.7306 274.5139,394.0807 274.0388,393.4307 C273.5056,393.9888 272.9721,394.5475 272.6637,395.1014 C272.3553,395.6556 272.2723,396.2058 272.1597,396.5434 C272.0469,396.8810 271.9057,397.0057 271.7680,396.8768 C271.6305,396.7475 271.4970,396.3640 271.1846,396.5182 C270.8719,396.6724 270.3807,397.3640 270.0094,397.8306 C269.6386,398.2975 269.3889,398.5390 269.0260,398.5767 C268.6635,398.6141 268.1889,398.4474 267.5721,398.0684 C266.9553,397.6889 266.1970,397.0976 265.1888,396.0434 C264.1802,394.9889 262.9216,393.4721 261.6968,391.8557 C260.4719,390.2389 259.2802,388.5222 258.3383,387.3180 C257.3969,386.1139 256.7052,385.4222 256.0218,385.0804 C255.3384,384.7388 254.6634,384.7470 253.8343,384.7595 C253.0049,384.7720 252.0215,384.7887 251.2879,384.5889 C250.5546,384.3887 250.0716,383.9720 249.7757,383.5179 C249.4797,383.0641 249.3717,382.5731 249.2631,382.0819 L298.6138,382.0819 L298.6138,396.5306 C298.3473,395.9889 298.0809,395.4472 297.4975,394.7142 C296.9144,393.9806 296.0141,393.0557 295.3100,392.4014 C294.6059,391.7472 294.0976,391.3639 293.4099,391.3432 C292.7225,391.3223 291.8560,391.6641 291.0515,392.4102 C290.2476,393.1557 289.5058,394.3054 288.5681,395.3347 C287.6306,396.3640 286.4976,397.2725 285.4225,397.8349 Z Z M212.8260,441.1539 C212.8218,440.1496 213.1050,439.4160 213.5716,438.9290 C214.0384,438.4414 214.6881,438.1994 215.9799,438.5622 C217.2713,438.9248 219.2051,439.8911 221.3884,440.5164 C223.5716,441.1414 226.0052,441.4246 228.2301,441.0122 C230.4553,440.5995 232.4716,439.4914 233.8217,438.4885 C235.1716,437.4856 235.8550,436.5879 237.0759,436.1391 C238.2965,435.6907 240.0551,435.6907 242.0093,436.4518 C243.9632,437.2129 246.1133,438.7354 247.7426,440.0844 C249.3717,441.4329 250.4798,442.6078 251.4798,443.2082 C252.4799,443.8080 253.3717,443.8329 254.5923,443.5245 C255.8132,443.2161 257.3631,442.5746 258.8213,441.9499 C260.2797,441.3249 261.6466,440.7163 263.3298,440.3373 C265.0133,439.9580 267.0131,439.8080 268.9965,440.1247 C270.9799,440.4416 272.9466,441.2245 274.7132,442.1248 C276.4800,443.0248 278.0467,444.0410 279.5800,444.7539 C281.1132,445.4663 282.6130,445.8745 283.7798,446.1041 C284.9465,446.3331 285.7799,446.3833 286.6133,446.4332 C286.5883,445.7996 286.5631,445.1664 286.3171,444.4787 C286.0713,443.7913 285.6050,443.0494 284.7424,442.1786 C283.8798,441.3078 282.6213,440.3081 281.6753,439.7374 C280.7297,439.1663 280.0967,439.0245 279.4632,438.8828 C279.9882,438.3496 280.5131,437.8161 281.5588,437.1749 C282.6048,436.5332 284.1718,435.7828 285.8760,435.3996 C287.5802,435.0163 289.4216,434.9996 290.9923,434.9622 C292.5635,434.9248 293.8632,434.8664 295.0880,435.1000 C296.3134,435.3330 297.4635,435.8580 298.6138,436.3829 L298.6138,515.6181 C298.2569,515.5101 297.8997,511.6516 297.5837,511.2765 C297.2679,510.9018 296.9929,510.2600 296.6051,509.6597 C296.2179,509.0598 295.7179,508.5014 295.3216,508.6556 C294.9259,508.8098 294.6345,509.6767 294.4383,510.6016 C294.2427,511.5268 294.1430,512.5099 293.9944,513.1310 C293.8462,513.7517 293.6500,514.0100 293.7081,514.3683 C293.7665,514.7269 294.0797,515.1849 294.2113,515.8103 C294.3428,516.4353 294.2926,517.2267 294.0131,517.7934 C293.7342,518.3603 293.2260,518.7019 292.9757,519.0270 C292.7259,519.3519 292.7341,519.6600 292.7384,519.8142 C292.7426,519.9684 292.7426,519.9684 292.7426,519.9684 C292.3594,519.7351 291.9762,519.5015 291.2970,519.3349 C290.6178,519.1682 289.6427,519.0684 288.9130,519.0602 C288.1840,519.0520 287.7009,519.1350 287.2176,519.2186 C286.7343,518.8768 286.2507,518.5352 285.7507,518.1769 C285.2507,517.8186 284.7342,517.4433 284.2424,516.8015 C283.7506,516.1601 283.2843,515.2516 282.7423,514.2847 C282.2006,513.3183 281.5843,512.2933 280.9590,511.5098 C280.3340,510.7266 279.7010,510.1846 279.1341,510.0763 C278.5674,509.9681 278.0674,510.2932 277.7672,510.9891 C277.4673,511.6847 277.3675,512.7517 277.5674,513.8889 C277.7672,515.0268 278.2672,516.2349 279.0842,517.4433 C279.9009,518.6517 281.0339,519.8604 282.0090,520.7519 C282.9841,521.6434 283.8005,522.2188 284.3629,522.6021 C284.9258,522.9853 285.2342,523.1769 285.5426,523.3686 C285.2841,523.7433 285.0259,524.1186 284.8340,524.9225 C284.6424,525.7270 284.5176,526.9606 284.7087,528.1353 C284.9003,529.3103 285.4089,530.4271 285.8295,531.0850 C286.2502,531.7435 286.5835,531.9439 286.9169,532.1438 C286.8834,533.1438 286.8500,534.1436 286.7834,535.5933 C286.7168,537.0435 286.6167,538.9438 286.4375,540.2271 C286.2584,541.5106 286.0002,542.1773 285.7416,542.8440 C285.3000,542.5773 284.8584,542.3108 284.4249,542.2603 C283.9918,542.2105 283.5666,542.3771 283.1457,542.7354 C282.7250,543.0937 282.3083,543.6442 281.8916,544.1941 C281.3831,543.5606 280.8748,542.9276 280.2373,542.5356 C279.6001,542.1441 278.8330,541.9939 278.0915,542.0313 C277.3500,542.0687 276.6331,542.2941 276.1206,542.7689 C275.6081,543.2440 275.2999,543.9691 274.9915,544.6942 C273.5580,545.0856 272.1249,545.4777 270.0746,545.7192 C268.0245,545.9607 265.3580,546.0525 263.2785,546.0525 C261.1993,546.0525 259.7080,545.9607 258.2161,545.8691 C258.2745,542.1441 258.3329,538.4188 258.3913,534.6938 C260.6913,535.3937 262.9913,536.0939 265.2953,536.6812 C267.5996,537.2688 269.9082,537.7439 271.9414,537.9854 C273.9750,538.2272 275.7331,538.2357 276.7082,538.0061 C277.6833,537.7771 277.8749,537.3105 277.3834,536.5644 C276.8916,535.8186 275.7166,534.7936 273.3831,533.3227 C271.0497,531.8521 267.5580,529.9350 265.3911,528.6016 C263.2243,527.2685 262.3827,526.5184 262.0037,525.8931 C261.6245,525.2683 261.7078,524.7683 261.7911,524.2683 C262.8496,524.3601 263.9081,524.4517 265.4456,524.6226 C266.9831,524.7933 268.9997,525.0436 270.6454,525.1601 C272.2915,525.2769 273.5663,525.2601 274.1454,524.9809 C274.7248,524.7020 274.6083,524.1600 273.5833,523.2767 C272.5583,522.3934 270.6248,521.1683 268.7746,519.9392 C266.9247,518.7101 265.1581,517.4765 263.8953,516.5138 C262.6330,515.5517 261.8745,514.8601 261.3535,514.1934 C260.8328,513.5267 260.5496,512.8849 260.4078,512.3557 C260.2661,511.8265 260.2661,511.4098 260.2661,510.9931 C261.9164,511.2431 263.5662,511.4931 265.5329,511.5764 C267.4998,511.6598 269.7831,511.5764 270.8870,511.2595 C271.9913,510.9432 271.9165,510.3930 271.1166,509.7430 C270.3163,509.0933 268.7913,508.3430 267.4287,507.5844 C266.0664,506.8261 264.8662,506.0597 263.8953,505.2886 C262.9247,504.5182 262.1829,503.7429 261.6163,502.9427 C261.0496,502.1430 260.6579,501.3179 260.2661,500.4930 C261.2412,500.5261 262.2161,500.5599 262.9868,500.5429 C263.7578,500.5261 264.3248,500.4595 264.6369,500.2469 C264.9495,500.0343 265.0079,499.6760 264.8954,499.1970 C264.7828,498.7176 264.4997,498.1178 263.8372,497.4636 C263.1745,496.8094 262.1330,496.1010 261.2455,495.4260 C260.3580,494.7511 259.6243,494.1096 259.2454,493.5249 C258.8664,492.9406 258.8409,492.4134 258.8369,492.1495 C258.8326,491.8861 258.8496,491.8861 258.8664,491.8861 C260.0495,491.9882 261.2330,492.0905 262.0582,492.0905 C262.8831,492.0905 263.3496,491.9882 263.4452,491.5718 C263.5413,491.1548 263.2663,490.4237 262.9828,489.9790 C262.6994,489.5342 262.4080,489.3761 261.4995,488.8097 C260.5912,488.2428 259.0662,487.2677 258.1954,486.2551 C257.3246,485.2426 257.1077,484.1926 256.7784,483.1092 C256.4493,482.0258 256.0079,480.9093 255.8701,479.2674 C255.7327,477.6256 255.8993,475.4591 255.7826,474.2592 C255.6660,473.0587 255.2658,472.8257 254.8619,473.4675 C254.4579,474.1087 254.0492,475.6255 253.8493,477.4589 C253.6495,479.2924 253.6577,481.4422 253.5452,482.7798 C253.4329,484.1172 253.1993,484.6428 252.6327,485.4801 C252.0660,486.3178 251.1658,487.4675 250.5951,488.4384 C250.0245,489.4095 249.7825,490.2009 249.8366,490.7458 C249.8910,491.2906 250.2411,491.5882 250.8659,491.6551 C251.4909,491.7217 252.3912,491.5570 253.0786,491.6540 C253.7663,491.7509 254.2408,492.1095 254.1739,492.5843 C254.1076,493.0594 253.4992,493.6513 252.5241,494.3344 C251.5490,495.0179 250.2077,495.7926 249.3615,496.3093 C248.5157,496.8261 248.1656,497.0846 247.9904,497.4092 C247.8152,497.7343 247.8152,498.1260 247.9258,498.4282 C248.0363,498.7304 248.2571,498.9430 248.6781,499.0972 C249.0993,499.2517 249.7198,499.3472 250.3324,499.3911 C250.9452,499.4351 251.5490,499.4263 251.8741,499.4408 C252.1993,499.4555 252.2449,499.4932 252.2699,499.7701 C252.2948,500.0474 252.2991,500.5638 251.7800,501.1577 C251.2616,501.7516 250.2198,502.4228 249.4157,502.9330 C248.6117,503.4436 248.0448,503.7936 247.4575,504.2602 C246.8696,504.7271 246.2615,505.3102 245.6949,505.8850 C245.1280,506.4605 244.6027,507.0268 244.1364,507.5853 C243.6695,508.1434 243.2611,508.6936 242.9697,509.2396 C242.6777,509.7852 242.5028,510.3269 242.6820,510.7059 C242.8611,511.0849 243.3943,511.3020 244.1364,511.3726 C244.8780,511.4438 245.8276,511.3684 247.0487,511.1478 C248.2696,510.9270 249.7609,510.5599 250.3738,510.6059 C250.9863,510.6518 250.7196,511.1104 250.0985,511.8894 C249.4780,512.6686 248.5029,513.7688 247.3486,514.7311 C246.1944,515.6938 244.8612,516.5189 243.8155,517.2687 C242.7693,518.0190 242.0110,518.6940 241.4066,519.2895 C240.8023,519.8856 240.3527,520.4024 239.9652,520.9563 C239.5774,521.5105 239.2529,522.1023 239.2279,522.5272 C239.2024,522.9524 239.4777,523.2104 240.1070,523.3980 C240.7360,523.5857 241.7193,523.7022 242.9736,523.7022 C244.2277,523.7022 245.7527,523.5857 246.9713,523.5024 C248.1900,523.4190 249.1016,523.3689 249.5574,523.5480 C250.0135,523.7271 250.0135,524.1356 249.6470,524.6649 C249.2807,525.1941 248.5483,525.8441 247.4464,526.8146 C246.3443,527.7855 244.8737,529.0775 243.2673,530.0813 C241.6612,531.0856 239.9190,531.8025 238.7398,532.3606 C237.5606,532.9191 236.9443,533.3193 236.4568,534.0274 C235.9692,534.7358 235.6109,535.7526 235.8859,536.4108 C236.1609,537.0693 237.0694,537.3689 237.9027,537.3607 C238.7358,537.3524 239.4944,537.0361 240.5194,536.7277 C241.5444,536.4193 242.8359,536.1194 244.0962,535.8694 C245.3567,535.6193 246.5861,535.4192 247.5675,535.2775 C248.5483,535.1360 249.2807,535.0524 250.0410,534.8693 C250.8015,534.6859 251.5898,534.4027 252.3779,534.1192 C252.0780,535.2695 251.7780,536.4193 251.6737,537.8774 C251.5694,539.3358 251.6613,541.1027 251.7236,542.2484 C251.7860,543.3942 251.8197,543.9192 251.8529,544.4442 C251.2400,544.2361 250.6266,544.0277 249.4057,543.7984 C248.1849,543.5694 246.3565,543.3194 244.8340,543.1819 C243.3112,543.0444 242.0943,543.0195 240.6776,543.2567 C239.2608,543.4946 237.6442,543.9946 236.6691,544.4609 C235.6940,544.9277 235.3609,545.3612 235.0083,545.9760 C234.6557,546.5911 234.2843,547.3882 233.9124,548.1848 C227.8106,545.1568 223.4027,541.2557 220.6874,536.4822 C223.8338,538.4438 226.3170,538.9194 227.8375,537.9094 C228.5532,535.9708 226.0372,532.2875 220.2894,526.8597 C219.9512,525.7463 219.9512,524.4208 220.2894,522.8833 C223.2544,523.6342 225.5615,524.0900 227.1869,523.7348 C227.3431,523.7008 232.0376,522.7835 228.0869,520.9106 C224.5020,519.2110 221.6083,516.8511 219.7644,512.9079 C221.8725,512.9816 223.2558,512.4648 223.9143,511.3579 C222.9542,508.8869 221.2211,506.1696 218.7145,503.2066 C217.8754,492.6076 216.7753,492.6076 215.4138,503.2066 C212.1347,507.1105 210.0929,510.4772 209.2887,513.3067 C211.0051,513.6741 212.7716,513.6741 214.5886,513.3067 C211.8183,518.7628 207.4266,522.2296 201.4138,523.7070 L201.4138,449.7829 C201.7386,449.1831 202.0635,448.5830 203.0094,448.2454 C203.9550,447.9080 205.5217,447.8332 207.1843,447.7997 C208.8465,447.7663 210.6051,447.7745 211.7095,447.6790 C212.8136,447.5829 213.2631,447.3831 213.4383,446.8706 C213.6132,446.3580 213.5134,445.5329 213.3176,444.4829 C213.1214,443.4330 212.8300,442.1577 212.8260,441.1539 Z Z M252.9060,433.3484 C252.1811,433.1401 251.4226,432.6985 250.0767,431.8611 C248.7311,431.0237 246.7976,429.7901 245.2640,428.7067 C243.7308,427.6236 242.5978,426.6901 241.8352,425.8902 C241.0727,425.0903 240.6810,424.4236 240.7229,423.6486 C240.7646,422.8736 241.2394,421.9903 242.1522,421.1070 C243.0643,420.2237 244.4145,419.3399 246.1856,418.7151 C247.9564,418.0901 250.1476,417.7236 251.6562,417.6363 C253.1645,417.5484 253.9891,417.7400 254.8559,418.0195 C255.7225,418.2985 256.6310,418.6650 257.0975,418.4484 C257.5641,418.2316 257.5896,417.4316 257.9686,416.6986 C258.3476,415.9650 259.0809,415.2986 259.8392,414.9153 C260.5978,414.5318 261.3807,414.4320 262.1560,414.5445 C262.9312,414.6568 263.6977,414.9819 264.1810,415.3527 C264.6643,415.7235 264.8645,416.1402 265.1769,416.9653 C265.4895,417.7899 265.9144,419.0236 266.3351,419.9029 C266.7560,420.7819 267.1730,421.3069 267.8142,421.6320 C268.4560,421.9569 269.3228,422.0816 270.2684,421.7613 C271.2144,421.4404 272.2394,420.6733 273.0934,419.6568 C273.9478,418.6400 274.6310,417.3735 275.3561,415.9108 C276.0809,414.4482 276.8477,412.7902 277.3018,411.5611 C277.7559,410.3314 277.8976,409.5317 278.0393,408.7315 C278.6477,408.9986 279.2560,409.2650 279.7101,409.6692 C280.1642,410.0734 280.4644,410.6149 280.7433,411.2484 C281.0225,411.8814 281.2810,412.6068 281.7391,413.1400 C282.1978,413.6734 282.8560,414.0150 283.6687,414.0357 C284.4814,414.0567 285.4477,413.7568 286.2017,413.1904 C286.9560,412.6235 287.4977,411.7901 287.8977,410.8652 C288.2979,409.9399 288.5559,408.9231 288.9227,408.1402 C289.2895,407.3567 289.7643,406.8068 290.3349,406.6109 C290.9061,406.4151 291.5728,406.5732 292.6602,407.0608 C293.7478,407.5483 295.2558,408.3650 296.3183,409.0861 C297.3807,409.8070 297.9972,410.4317 298.6138,411.0568 L298.6138,428.6066 C297.8306,428.2651 297.0473,427.9232 296.0597,427.3444 C295.0727,426.7650 293.8810,425.9486 292.9184,425.3068 C291.9560,424.6651 291.2224,424.1985 290.4058,424.0069 C289.5894,423.8150 288.6894,423.8986 287.8642,424.3819 C287.0396,424.8649 286.2893,425.7485 285.3060,426.8820 C284.3229,428.0151 283.1060,429.3984 281.3224,430.3777 C279.5391,431.3565 277.1895,431.9320 274.5060,431.9651 C271.8224,431.9983 268.8060,431.4900 266.4434,430.9733 C264.0810,430.4568 262.3725,429.9318 260.6641,429.4069 C260.1558,430.0486 259.6479,430.6898 259.3227,431.1567 C258.9979,431.6236 258.8562,431.9150 258.1685,432.2778 C257.4811,432.6401 256.2474,433.0732 255.2848,433.3028 C254.3224,433.5318 253.6308,433.5568 252.9060,433.3484 Z Z M293.7146,550.2858 C293.9519,548.5609 294.0355,546.9772 294.0103,545.2690 C293.9854,543.5606 293.8521,541.7274 293.7937,539.9065 C293.7351,538.0855 293.7512,536.2775 293.9301,535.2021 C294.1092,534.1272 294.4514,533.7856 294.7303,533.2774 C295.0095,532.7688 295.2261,532.0939 295.3176,531.2563 C295.4095,530.4189 295.3760,529.4188 295.1510,528.7147 C294.9259,528.0106 294.5095,527.6018 294.1968,527.2478 C293.8844,526.8937 293.6761,526.5938 293.5301,526.0856 C293.3844,525.5773 293.3011,524.8602 293.5760,524.2768 C293.8510,523.6934 294.4843,523.2438 294.8426,522.8351 C295.2011,522.4269 295.2842,522.0601 295.3216,521.6513 C295.3596,521.2431 295.3511,520.7936 295.3429,520.3434 C296.0014,520.4353 296.6593,520.5266 297.2044,520.4058 C297.7498,520.2850 298.1818,519.9517 298.6138,519.6183 L298.6138,607.2820 L292.7438,607.2820 C292.7937,606.3534 292.8438,605.4242 292.7395,604.0599 C292.6355,602.6956 292.3770,600.8956 291.9268,598.6998 C291.4773,596.5038 290.8355,593.9118 290.3644,591.3031 C289.8935,588.6950 289.5939,586.0701 289.2770,583.4239 C288.9604,580.7781 288.6270,578.1115 288.4603,576.3237 C288.2937,574.5365 288.2937,573.6280 288.2937,572.7197 C288.8685,572.1111 289.4437,571.5031 290.3355,570.5031 C291.2270,569.5030 292.4357,568.1112 293.1480,566.9195 C293.8606,565.7278 294.0772,564.7363 294.0143,563.4901 C293.9519,562.2443 293.6103,560.7445 293.3436,559.4111 C293.0771,558.0777 292.8855,556.9109 292.9853,555.3944 C293.0854,553.8776 293.4774,552.0110 293.7146,550.2858 Z Z M264.5640,572.0737 C265.7846,572.1863 267.0517,572.1780 268.1056,571.9487 C269.1598,571.7197 270.0014,571.2698 271.1347,570.8945 C272.2680,570.5195 273.6933,570.2199 274.7599,570.1113 C275.8266,570.0030 276.5353,570.0864 277.2434,570.1697 C276.7351,571.5944 276.2269,573.0197 275.9641,574.8698 C275.7019,576.7200 275.6852,578.9948 275.7433,580.9448 C275.8020,582.8950 275.9349,584.5201 275.8640,585.9283 C275.7932,587.3366 275.5185,588.5283 275.1015,589.9490 C274.6851,591.3700 274.1264,593.0203 273.7848,594.4825 C273.4432,595.9451 273.3185,597.2204 273.3018,598.6329 C273.2851,600.0452 273.3766,601.5957 273.5725,603.0598 C273.7687,604.5245 274.0683,605.9032 274.3685,607.2820 L259.6674,607.2820 C259.7678,601.4529 259.8676,595.6240 259.7091,589.7492 C259.5512,583.8741 259.1342,577.9536 258.7178,572.0329 C259.4764,571.8535 260.2344,571.6743 261.2013,571.7010 C262.1682,571.7279 263.3431,571.9615 264.5640,572.0737 Z Z M277.3392,601.5430 C277.4849,599.2288 278.0518,596.3119 278.4725,594.3492 C278.8937,592.3868 279.1684,591.3785 279.5391,589.7117 C279.9102,588.0450 280.3768,585.7200 280.7889,583.5033 C281.2017,581.2866 281.5600,579.1782 281.9183,577.0698 C282.3520,579.4449 282.7851,581.8201 283.2684,584.3659 C283.7517,586.9117 284.2855,589.6284 284.8935,592.6283 C285.5021,595.6285 286.1855,598.9122 286.7230,600.9622 C287.2604,603.0122 287.6522,603.8289 287.8897,604.6767 C288.1270,605.5245 288.2106,606.4033 288.2937,607.2820 L277.7434,607.2820 C277.4684,605.5699 277.1935,603.8578 277.3392,601.5430 Z Z M222.8386,554.8331 C226.6773,555.1330 230.5103,555.0330 234.3387,554.5329 C235.4488,560.0143 237.3486,565.8477 240.0386,572.0329 C233.8058,569.2020 228.0725,563.4686 222.8386,554.8331 Z Z M230.5429,572.1919 C232.8551,573.3337 235.6971,574.7837 238.5386,576.2339 C238.2301,577.0922 237.9217,577.9505 237.3800,578.6878 C236.8380,579.4257 236.0633,580.0422 234.9048,580.8044 C233.7463,581.5672 232.2051,582.4755 230.6633,583.3837 C230.8966,591.3496 231.1299,599.3158 231.3629,607.2820 L222.7136,607.2820 C222.3136,598.9493 221.9134,590.6166 221.4720,584.1833 C221.0301,577.7501 220.5471,573.2169 220.0637,568.6835 C221.5970,568.9168 223.1306,569.1504 224.7888,569.6836 C226.4471,570.2168 228.2306,571.0501 230.5429,572.1919 Z Z M234.8289,589.7075 C235.4873,589.1326 236.1455,588.5575 236.7085,587.9741 C237.2709,587.3910 237.7372,586.7991 238.2041,586.2076 C239.3209,588.9410 240.4372,591.6745 241.6669,594.5034 C242.8960,597.3327 244.2373,600.2580 245.5790,603.1831 C245.7125,604.5494 245.8457,605.9157 245.9792,607.2820 L234.2789,607.2820 C234.4876,603.9904 234.6962,600.6991 234.7880,597.7701 C234.8796,594.8408 234.8541,592.2743 234.8289,589.7075 Z Z M201.4138,607.2820 L201.4138,569.9588 C201.8801,569.6836 202.3469,569.4089 203.2053,569.1960 C204.0630,568.9837 205.3134,568.8334 206.5550,568.7583 C207.7965,568.6835 209.0302,568.6835 210.0552,569.1084 C211.0802,569.5336 211.8966,570.3834 212.4386,571.9003 C212.9803,573.4171 213.2467,575.6003 213.4803,579.4254 C213.7133,583.2505 213.9137,588.7174 213.9137,593.6338 C213.9137,598.5502 213.7133,602.9158 213.5134,607.2820 L201.4138,607.2820 Z Z M201.4138,565.2584 L201.4138,552.2584 C205.4350,552.1130 208.7266,552.4795 211.2885,553.3583 C209.8225,557.5584 206.5309,561.5252 201.4138,565.2584 Z Z M201.4138,548.8328 L201.4138,537.5568 C204.7286,538.0673 208.5369,537.7096 212.8385,536.4822 C211.4643,540.3067 207.6559,544.4235 201.4138,548.8328 Z Z M201.4138,535.5819 L201.4138,525.5320 C205.0909,525.7344 208.7240,525.2598 212.3135,524.1070 C210.0722,528.6098 206.4390,532.4349 201.4138,535.5819 Z Z M223.0041,391.4640 C220.9289,391.7310 218.5455,392.5307 216.9624,393.9392 C215.3789,395.3475 214.5954,397.3640 213.5290,398.8392 C212.4624,400.3143 211.1122,401.2475 210.1289,401.4561 C209.1455,401.6642 208.5290,401.1477 207.7123,400.4974 C206.8954,399.8475 205.8789,399.0643 205.1787,399.0311 C204.4789,398.9974 204.0953,399.7145 203.8788,400.6397 C203.6622,401.5644 203.6117,402.6977 203.2291,403.3726 C202.8458,404.0476 202.1298,404.2647 201.4138,404.4813 L201.4138,382.0819 L237.4126,382.0819 C236.9628,382.7648 236.5126,383.4473 236.0713,383.7640 C235.6294,384.0803 235.1962,384.0304 234.6880,383.9474 C234.1794,383.8637 233.5961,383.7475 233.3877,383.9641 C233.1794,384.1807 233.3460,384.7306 233.1295,385.0889 C232.9126,385.4472 232.3128,385.6139 231.9129,385.7888 C231.5126,385.9637 231.3125,386.1471 231.4791,386.4305 C231.6458,386.7137 232.1793,387.0972 232.6294,387.6389 C233.0793,388.1803 233.4458,388.8808 232.7627,389.5892 C232.0792,390.2973 230.3459,391.0139 228.5960,391.2392 C226.8456,391.4640 225.0791,391.1973 223.0041,391.4640 Z Z M201.4138,620.4815 L298.6138,620.4815 L298.6138,650.0818 L201.4138,650.0818 L201.4138,620.4815 Z Z M233.4753,414.4156 C232.7128,414.7824 231.5375,415.0820 230.7379,415.2362 C229.9377,415.3904 229.5125,415.3986 229.1791,415.2112 C228.8458,415.0239 228.6043,414.6401 227.9211,414.3611 C227.2377,414.0819 226.1126,413.9070 224.9793,413.4779 C223.8460,413.0487 222.7045,412.3653 221.5627,411.5276 C220.4209,410.6903 219.2794,409.6987 218.4834,408.5739 C217.6875,407.4489 217.2379,406.1903 217.5046,405.0198 C217.7711,403.8489 218.7541,402.7652 219.7460,402.3819 C220.7375,401.9987 221.7376,402.3150 222.4879,402.7238 C223.2377,403.1320 223.7374,403.6320 224.1918,404.1278 C224.6460,404.6236 225.0541,405.1154 225.4629,405.6072 C225.5961,404.8070 225.7294,404.0073 225.6959,403.1946 C225.6627,402.3819 225.4623,401.5570 225.5128,400.9405 C225.5627,400.3237 225.8626,399.9152 226.4462,399.8653 C227.0293,399.8154 227.8962,400.1238 228.8421,400.4779 C229.7877,400.8319 230.8127,401.2322 231.9795,401.5531 C233.1462,401.8737 234.4544,402.1155 235.6543,402.2198 C236.8542,402.3238 237.9461,402.2901 239.2631,402.3156 C240.5795,402.3405 242.1210,402.4236 243.2962,402.7944 C244.4712,403.1651 245.2793,403.8231 246.0878,404.4813 C245.9543,403.7230 245.8213,402.9653 245.7045,401.9822 C245.5877,400.9986 245.4880,399.7905 245.4755,398.5696 C245.4625,397.3487 245.5379,396.1151 245.8545,395.0819 C246.1708,394.0486 246.7295,393.2155 247.2046,392.9488 C247.6791,392.6818 248.0712,392.9820 248.7753,393.4902 C249.4794,393.9982 250.4957,394.7153 251.7831,395.4319 C253.0706,396.1485 254.6294,396.8654 256.2168,397.5695 C257.8042,398.2737 259.4211,398.9653 260.6420,399.4821 C261.8626,399.9986 262.6875,400.3404 263.0373,401.0740 C263.3873,401.8071 263.2626,402.9318 262.7544,403.7445 C262.2458,404.5572 261.3543,405.0573 259.9835,405.3572 C258.6127,405.6571 256.7625,405.7571 255.2000,405.9193 C253.6376,406.0811 252.3626,406.3048 251.1794,406.9633 C249.9968,407.6215 248.9060,408.7142 247.4271,410.0649 C245.9477,411.4154 244.0800,413.0237 242.5297,413.9654 C240.9792,414.9071 239.7461,415.1820 238.8960,415.2444 C238.0459,415.3068 237.5796,415.1571 237.2879,414.6197 C236.9959,414.0822 236.8791,413.1570 236.9795,412.2655 C237.0793,411.3740 237.3959,410.5157 237.7125,409.6573 C237.1377,410.0820 236.5625,410.5071 236.1002,411.0945 C235.6376,411.6818 235.2878,412.4322 234.9377,413.0240 C234.5876,413.6156 234.2378,414.0488 233.4753,414.4156 Z Z M245.4542,592.2950 C244.3207,589.1992 243.5377,586.3910 243.2625,584.4240 C242.9872,582.4573 243.2208,581.3325 243.7583,580.0822 C244.2957,578.8324 245.1376,577.4573 246.0042,576.4073 C246.8707,575.3574 247.7628,574.6320 248.5749,574.0821 C249.3876,573.5322 250.1209,573.1574 250.8540,572.7824 C250.4208,582.5744 249.9874,592.3661 249.5543,602.1581 C248.0709,598.7747 246.5878,595.3912 245.4542,592.2950 Z"
     style="stroke-width:0.1;stroke:#000016;stroke-dasharray:none;stroke-linecap:butt;stroke-linejoin:miter;fill:none;stroke-miterlimit:4;stroke-opacity:1"
     id="path3719" />
  <path
     d="  M356.6599,432.1616 C354.1224,431.6740 350.7477,430.7655 348.4100,430.0033 C346.0725,429.2405 344.7726,428.6239 343.4726,428.0071 C343.4391,428.8323 343.4057,429.6569 343.1849,430.7822 C342.9641,431.9070 342.5556,433.3323 341.8347,434.2238 C341.1142,435.1153 340.0807,435.4741 339.1724,435.6198 C338.2639,435.7658 337.4807,435.6989 336.5685,435.2865 C335.6558,434.8738 334.6143,434.1158 333.5729,433.3572 L333.5729,423.2069 C333.8643,422.7568 334.1557,422.3069 334.7850,422.4986 C335.4137,422.6902 336.3806,423.5236 337.0847,424.2946 C337.7889,425.0653 338.2308,425.7740 338.7932,426.1487 C339.3556,426.5237 340.0393,426.5654 340.8435,426.1405 C341.6474,425.7153 342.5726,424.8238 343.5103,424.4114 C344.4477,423.9986 345.3973,424.0655 346.0725,423.9780 C346.7475,423.8901 347.1477,423.6486 347.0227,423.0068 C346.8974,422.3650 346.2474,421.3236 346.2724,420.7277 C346.2973,420.1319 346.9978,419.9817 347.6625,420.2444 C348.3272,420.5066 348.9571,421.1819 349.4072,421.8817 C349.8568,422.5816 350.1275,423.3070 350.6584,423.9819 C351.1896,424.6571 351.9811,425.2819 353.2147,425.5943 C354.4478,425.9069 356.1225,425.9069 357.7810,425.8488 C359.4396,425.7901 361.0809,425.6736 362.3729,425.8403 C363.6646,426.0070 364.6060,426.4569 364.9269,427.2279 C365.2478,427.9986 364.9482,429.0905 364.4563,430.0696 C363.9648,431.0487 363.2814,431.9155 362.0897,432.3158 C360.8980,432.7157 359.1975,432.6489 356.6599,432.1616 Z Z M403.4324,669.9237 L360.9128,669.9237 L360.9128,661.4198 L321.2997,661.4198 L321.2997,370.7433 L360.9128,370.7433 L360.9128,362.2394 L403.4324,362.2394 L403.4324,370.7433 L443.1175,370.7433 L443.1175,661.4198 L403.4324,661.4198 L403.4324,669.9237 Z Z M417.5816,397.8349 C416.5067,398.3973 415.4899,398.6141 414.7021,398.5517 C413.9150,398.4891 413.3563,398.1475 413.1272,397.8224 C412.8982,397.4973 412.9980,397.1889 413.0983,396.8804 C412.5898,397.0556 412.0815,397.2305 411.6813,397.3224 C411.2813,397.4139 410.9899,397.4224 410.6690,397.2475 C410.3481,397.0726 409.9978,396.7138 409.7854,396.3223 C409.5731,395.9308 409.4977,395.5056 409.3146,395.3724 C409.1312,395.2392 408.8398,395.3974 408.5396,395.4478 C408.2397,395.4977 407.9313,395.4390 407.5393,395.0850 C407.1478,394.7306 406.6730,394.0807 406.1979,393.4307 C405.6647,393.9888 405.1312,394.5475 404.8228,395.1014 C404.5144,395.6556 404.4314,396.2058 404.3188,396.5434 C404.2060,396.8810 404.0649,397.0057 403.9271,396.8768 C403.7896,396.7475 403.6561,396.3640 403.3437,396.5182 C403.0311,396.6724 402.5398,397.3640 402.1685,397.8306 C401.7977,398.2975 401.5480,398.5390 401.1851,398.5767 C400.8226,398.6141 400.3481,398.4474 399.7312,398.0684 C399.1144,397.6889 398.3562,397.0976 397.3479,396.0434 C396.3393,394.9889 395.0807,393.4721 393.8559,391.8557 C392.6310,390.2389 391.4393,388.5222 390.4974,387.3180 C389.5560,386.1139 388.8643,385.4222 388.1809,385.0804 C387.4975,384.7388 386.8226,384.7470 385.9934,384.7595 C385.1640,384.7720 384.1807,384.7887 383.4471,384.5889 C382.7137,384.3887 382.2307,383.9720 381.9348,383.5179 C381.6388,383.0641 381.5308,382.5731 381.4223,382.0819 L430.7729,382.0819 L430.7729,396.5306 C430.5064,395.9889 430.2400,395.4472 429.6566,394.7142 C429.0735,393.9806 428.1732,393.0557 427.4691,392.4014 C426.7650,391.7472 426.2567,391.3639 425.5690,391.3432 C424.8816,391.3223 424.0151,391.6641 423.2106,392.4102 C422.4067,393.1557 421.6649,394.3054 420.7272,395.3347 C419.7898,396.3640 418.6568,397.2725 417.5816,397.8349 Z Z M344.9852,441.1539 C344.9809,440.1496 345.2641,439.4160 345.7307,438.9290 C346.1975,438.4414 346.8472,438.1994 348.1390,438.5622 C349.4305,438.9248 351.3643,439.8911 353.5475,440.5164 C355.7307,441.1414 358.1643,441.4246 360.3892,441.0122 C362.6144,440.5995 364.6307,439.4914 365.9808,438.4885 C367.3307,437.4856 368.0141,436.5879 369.2350,436.1391 C370.4556,435.6907 372.2142,435.6907 374.1684,436.4518 C376.1223,437.2129 378.2724,438.7354 379.9018,440.0844 C381.5308,441.4329 382.6389,442.6078 383.6390,443.2082 C384.6390,443.8080 385.5308,443.8329 386.7514,443.5245 C387.9723,443.2161 389.5223,442.5746 390.9804,441.9499 C392.4388,441.3249 393.8057,440.7163 395.4889,440.3373 C397.1724,439.9580 399.1723,439.8080 401.1557,440.1247 C403.1391,440.4416 405.1057,441.2245 406.8723,442.1248 C408.6391,443.0248 410.2058,444.0410 411.7391,444.7539 C413.2723,445.4663 414.7722,445.8745 415.9389,446.1041 C417.1056,446.3331 417.9390,446.3833 418.7724,446.4332 C418.7475,445.7996 418.7222,445.1664 418.4762,444.4787 C418.2304,443.7913 417.7641,443.0494 416.9015,442.1786 C416.0390,441.3078 414.7804,440.3081 413.8345,439.7374 C412.8888,439.1663 412.2558,439.0245 411.6223,438.8828 C412.1473,438.3496 412.6723,437.8161 413.7180,437.1749 C414.7639,436.5332 416.3309,435.7828 418.0351,435.3996 C419.7393,435.0163 421.5807,434.9996 423.1514,434.9622 C424.7226,434.9248 426.0223,434.8664 427.2471,435.1000 C428.4726,435.3330 429.6226,435.8580 430.7729,436.3829 L430.7729,515.6181 C430.4160,515.5101 430.0588,511.6516 429.7428,511.2765 C429.4270,510.9018 429.1520,510.2600 428.7643,509.6597 C428.3770,509.0598 427.8770,508.5014 427.4807,508.6556 C427.0850,508.8098 426.7936,509.6767 426.5974,510.6016 C426.4019,511.5268 426.3021,512.5099 426.1535,513.1310 C426.0053,513.7517 425.8091,514.0100 425.8672,514.3683 C425.9256,514.7269 426.2389,515.1849 426.3704,515.8103 C426.5019,516.4353 426.4517,517.2267 426.1723,517.7934 C425.8933,518.3603 425.3851,518.7019 425.1348,519.0270 C424.8850,519.3519 424.8933,519.6600 424.8975,519.8142 C424.9018,519.9684 424.9018,519.9684 424.9018,519.9684 C424.5185,519.7351 424.1353,519.5015 423.4561,519.3349 C422.7769,519.1682 421.8018,519.0684 421.0722,519.0602 C420.3431,519.0520 419.8601,519.1350 419.3768,519.2186 C418.8934,518.8768 418.4099,518.5352 417.9098,518.1769 C417.4098,517.8186 416.8933,517.4433 416.4015,516.8015 C415.9097,516.1601 415.4434,515.2516 414.9014,514.2847 C414.3597,513.3183 413.7435,512.2933 413.1181,511.5098 C412.4931,510.7266 411.8601,510.1846 411.2932,510.0763 C410.7266,509.9681 410.2265,510.2932 409.9263,510.9891 C409.6264,511.6847 409.5266,512.7517 409.7265,513.8889 C409.9263,515.0268 410.4264,516.2349 411.2433,517.4433 C412.0600,518.6517 413.1930,519.8604 414.1681,520.7519 C415.1432,521.6434 415.9596,522.2188 416.5220,522.6021 C417.0849,522.9853 417.3934,523.1769 417.7018,523.3686 C417.4432,523.7433 417.1850,524.1186 416.9931,524.9225 C416.8015,525.7270 416.6768,526.9606 416.8678,528.1353 C417.0594,529.3103 417.5680,530.4271 417.9886,531.0850 C418.4093,531.7435 418.7426,531.9439 419.0760,532.1438 C419.0426,533.1438 419.0091,534.1436 418.9425,535.5933 C418.8759,537.0435 418.7758,538.9438 418.5967,540.2271 C418.4175,541.5106 418.1593,542.1773 417.9008,542.8440 C417.4591,542.5773 417.0175,542.3108 416.5841,542.2603 C416.1509,542.2105 415.7257,542.3771 415.3048,542.7354 C414.8841,543.0937 414.4674,543.6442 414.0507,544.1941 C413.5422,543.5606 413.0340,542.9276 412.3964,542.5356 C411.7592,542.1441 410.9922,541.9939 410.2506,542.0313 C409.5091,542.0687 408.7922,542.2941 408.2797,542.7689 C407.7672,543.2440 407.4591,543.9691 407.1506,544.6942 C405.7172,545.0856 404.2840,545.4777 402.2337,545.7192 C400.1837,545.9607 397.5171,546.0525 395.4376,546.0525 C393.3584,546.0525 391.8671,545.9607 390.3752,545.8691 C390.4336,542.1441 390.4920,538.4188 390.5504,534.6938 C392.8504,535.3937 395.1505,536.0939 397.4545,536.6812 C399.7587,537.2688 402.0673,537.7439 404.1006,537.9854 C406.1341,538.2272 407.8922,538.2357 408.8673,538.0061 C409.8424,537.7771 410.0340,537.3105 409.5425,536.5644 C409.0507,535.8186 407.8757,534.7936 405.5423,533.3227 C403.2088,531.8521 399.7171,529.9350 397.5503,528.6016 C395.3835,527.2685 394.5419,526.5184 394.1629,525.8931 C393.7836,525.2683 393.8669,524.7683 393.9503,524.2683 C395.0087,524.3601 396.0672,524.4517 397.6047,524.6226 C399.1422,524.7933 401.1588,525.0436 402.8046,525.1601 C404.4506,525.2769 405.7254,525.2601 406.3045,524.9809 C406.8839,524.7020 406.7674,524.1600 405.7424,523.2767 C404.7174,522.3934 402.7839,521.1683 400.9337,519.9392 C399.0838,518.7101 397.3173,517.4765 396.0544,516.5138 C394.7922,515.5517 394.0336,514.8601 393.5126,514.1934 C392.9919,513.5267 392.7087,512.8849 392.5670,512.3557 C392.4252,511.8265 392.4252,511.4098 392.4252,510.9931 C394.0756,511.2431 395.7253,511.4931 397.6920,511.5764 C399.6590,511.6598 401.9423,511.5764 403.0461,511.2595 C404.1505,510.9432 404.0756,510.3930 403.2757,509.7430 C402.4755,509.0933 400.9504,508.3430 399.5878,507.5844 C398.2255,506.8261 397.0253,506.0597 396.0544,505.2886 C395.0838,504.5182 394.3420,503.7429 393.7754,502.9427 C393.2087,502.1430 392.8170,501.3179 392.4252,500.4930 C393.4003,500.5261 394.3752,500.5599 395.1459,500.5429 C395.9169,500.5261 396.4839,500.4595 396.7960,500.2469 C397.1086,500.0343 397.1670,499.6760 397.0545,499.1970 C396.9420,498.7176 396.6588,498.1178 395.9963,497.4636 C395.3336,496.8094 394.2921,496.1010 393.4046,495.4260 C392.5171,494.7511 391.7835,494.1096 391.4045,493.5249 C391.0255,492.9406 391.0000,492.4134 390.9960,492.1495 C390.9917,491.8861 391.0088,491.8861 391.0255,491.8861 C392.2087,491.9882 393.3921,492.0905 394.2173,492.0905 C395.0422,492.0905 395.5088,491.9882 395.6043,491.5718 C395.7004,491.1548 395.4254,490.4237 395.1420,489.9790 C394.8585,489.5342 394.5671,489.3761 393.6586,488.8097 C392.7504,488.2428 391.2253,487.2677 390.3545,486.2551 C389.4837,485.2426 389.2669,484.1926 388.9375,483.1092 C388.6084,482.0258 388.1670,480.9093 388.0293,479.2674 C387.8918,477.6256 388.0585,475.4591 387.9417,474.2592 C387.8252,473.0587 387.4249,472.8257 387.0210,473.4675 C386.6170,474.1087 386.2083,475.6255 386.0084,477.4589 C385.8086,479.2924 385.8168,481.4422 385.7043,482.7798 C385.5920,484.1172 385.3585,484.6428 384.7918,485.4801 C384.2252,486.3178 383.3249,487.4675 382.7543,488.4384 C382.1837,489.4095 381.9416,490.2009 381.9957,490.7458 C382.0501,491.2906 382.4002,491.5882 383.0250,491.6551 C383.6500,491.7217 384.5503,491.5570 385.2377,491.6540 C385.9254,491.7509 386.3999,492.1095 386.3330,492.5843 C386.2667,493.0594 385.6584,493.6513 384.6832,494.3344 C383.7081,495.0179 382.3668,495.7926 381.5206,496.3093 C380.6748,496.8261 380.3247,497.0846 380.1495,497.4092 C379.9743,497.7343 379.9743,498.1260 380.0849,498.4282 C380.1954,498.7304 380.4163,498.9430 380.8372,499.0972 C381.2584,499.2517 381.8789,499.3472 382.4915,499.3911 C383.1043,499.4351 383.7081,499.4263 384.0333,499.4408 C384.3584,499.4555 384.4040,499.4932 384.4290,499.7701 C384.4539,500.0474 384.4582,500.5638 383.9391,501.1577 C383.4207,501.7516 382.3790,502.4228 381.5748,502.9330 C380.7709,503.4436 380.2039,503.7936 379.6166,504.2602 C379.0287,504.7271 378.4207,505.3102 377.8540,505.8850 C377.2871,506.4605 376.7618,507.0268 376.2955,507.5853 C375.8287,508.1434 375.4202,508.6936 375.1288,509.2396 C374.8368,509.7852 374.6619,510.3269 374.8411,510.7059 C375.0202,511.0849 375.5534,511.3020 376.2955,511.3726 C377.0371,511.4438 377.9867,511.3684 379.2078,511.1478 C380.4287,510.9270 381.9200,510.5599 382.5329,510.6059 C383.1454,510.6518 382.8787,511.1104 382.2576,511.8894 C381.6371,512.6686 380.6620,513.7688 379.5077,514.7311 C378.3535,515.6938 377.0203,516.5189 375.9746,517.2687 C374.9284,518.0190 374.1701,518.6940 373.5658,519.2895 C372.9614,519.8856 372.5118,520.4024 372.1243,520.9563 C371.7366,521.5105 371.4120,522.1023 371.3871,522.5272 C371.3615,522.9524 371.6368,523.2104 372.2661,523.3980 C372.8951,523.5857 373.8784,523.7022 375.1328,523.7022 C376.3868,523.7022 377.9118,523.5857 379.1305,523.5024 C380.3491,523.4190 381.2607,523.3689 381.7165,523.5480 C382.1726,523.7271 382.1726,524.1356 381.8061,524.6649 C381.4398,525.1941 380.7074,525.8441 379.6055,526.8146 C378.5034,527.7855 377.0328,529.0775 375.4264,530.0813 C373.8203,531.0856 372.0781,531.8025 370.8989,532.3606 C369.7197,532.9191 369.1035,533.3193 368.6159,534.0274 C368.1283,534.7358 367.7700,535.7526 368.0450,536.4108 C368.3200,537.0693 369.2285,537.3689 370.0619,537.3607 C370.8950,537.3524 371.6535,537.0361 372.6785,536.7277 C373.7035,536.4193 374.9950,536.1194 376.2553,535.8694 C377.5158,535.6193 378.7452,535.4192 379.7266,535.2775 C380.7074,535.1360 381.4398,535.0524 382.2001,534.8693 C382.9606,534.6859 383.7489,534.4027 384.5370,534.1192 C384.2371,535.2695 383.9372,536.4193 383.8329,537.8774 C383.7285,539.3358 383.8204,541.1027 383.8827,542.2484 C383.9451,543.3942 383.9788,543.9192 384.0120,544.4442 C383.3991,544.2361 382.7857,544.0277 381.5649,543.7984 C380.3440,543.5694 378.5156,543.3194 376.9931,543.1819 C375.4704,543.0444 374.2534,543.0195 372.8367,543.2567 C371.4199,543.4946 369.8033,543.9946 368.8282,544.4609 C367.8531,544.9277 367.5200,545.3612 367.1674,545.9760 C366.8148,546.5911 366.4434,547.3882 366.0715,548.1848 C359.9697,545.1568 355.5618,541.2557 352.8465,536.4822 C355.9929,538.4438 358.4761,538.9194 359.9966,537.9094 C360.7123,535.9708 358.1963,532.2875 352.4485,526.8597 C352.1103,525.7463 352.1103,524.4208 352.4485,522.8833 C355.4135,523.6342 357.7207,524.0900 359.3460,523.7348 C359.5022,523.7008 364.1967,522.7835 360.2460,520.9106 C356.6611,519.2110 353.7675,516.8511 351.9235,512.9079 C354.0317,512.9816 355.4150,512.4648 356.0734,511.3579 C355.1134,508.8869 353.3803,506.1696 350.8736,503.2066 C350.0345,492.6076 348.9344,492.6076 347.5729,503.2066 C344.2938,507.1105 342.2520,510.4772 341.4478,513.3067 C343.1642,513.6741 344.9307,513.6741 346.7477,513.3067 C343.9774,518.7628 339.5857,522.2296 333.5729,523.7070 L333.5729,449.7829 C333.8977,449.1831 334.2226,448.5830 335.1685,448.2454 C336.1141,447.9080 337.6809,447.8332 339.3434,447.7997 C341.0056,447.7663 342.7642,447.7745 343.8686,447.6790 C344.9727,447.5829 345.4223,447.3831 345.5974,446.8706 C345.7723,446.3580 345.6726,445.5329 345.4767,444.4829 C345.2805,443.4330 344.9891,442.1577 344.9852,441.1539 Z Z M385.0651,433.3484 C384.3403,433.1401 383.5817,432.6985 382.2358,431.8611 C380.8902,431.0237 378.9567,429.7901 377.4231,428.7067 C375.8899,427.6236 374.7569,426.6901 373.9944,425.8902 C373.2318,425.0903 372.8401,424.4236 372.8820,423.6486 C372.9237,422.8736 373.3985,421.9903 374.3113,421.1070 C375.2235,420.2237 376.5736,419.3399 378.3447,418.7151 C380.1155,418.0901 382.3067,417.7236 383.8153,417.6363 C385.3236,417.5484 386.1482,417.7400 387.0150,418.0195 C387.8816,418.2985 388.7901,418.6650 389.2567,418.4484 C389.7232,418.2316 389.7488,417.4316 390.1277,416.6986 C390.5067,415.9650 391.2401,415.2986 391.9983,414.9153 C392.7569,414.5318 393.5398,414.4320 394.3151,414.5445 C395.0904,414.6568 395.8569,414.9819 396.3402,415.3527 C396.8235,415.7235 397.0236,416.1402 397.3360,416.9653 C397.6486,417.7899 398.0735,419.0236 398.4942,419.9029 C398.9151,420.7819 399.3321,421.3069 399.9733,421.6320 C400.6151,421.9569 401.4819,422.0816 402.4276,421.7613 C403.3735,421.4404 404.3985,420.6733 405.2526,419.6568 C406.1069,418.6400 406.7901,417.3735 407.5152,415.9108 C408.2400,414.4482 409.0068,412.7902 409.4609,411.5611 C409.9150,410.3314 410.0567,409.5317 410.1985,408.7315 C410.8068,408.9986 411.4151,409.2650 411.8692,409.6692 C412.3233,410.0734 412.6235,410.6149 412.9024,411.2484 C413.1816,411.8814 413.4402,412.6068 413.8982,413.1400 C414.3569,413.6734 415.0151,414.0150 415.8278,414.0357 C416.6405,414.0567 417.6068,413.7568 418.3608,413.1904 C419.1151,412.6235 419.6568,411.7901 420.0568,410.8652 C420.4570,409.9399 420.7150,408.9231 421.0818,408.1402 C421.4486,407.3567 421.9234,406.8068 422.4940,406.6109 C423.0652,406.4151 423.7319,406.5732 424.8193,407.0608 C425.9069,407.5483 427.4150,408.3650 428.4774,409.0861 C429.5398,409.8070 430.1563,410.4317 430.7729,411.0568 L430.7729,428.6066 C429.9897,428.2651 429.2065,427.9232 428.2189,427.3444 C427.2318,426.7650 426.0402,425.9486 425.0775,425.3068 C424.1151,424.6651 423.3815,424.1985 422.5649,424.0069 C421.7485,423.8150 420.8485,423.8986 420.0233,424.3819 C419.1987,424.8649 418.4484,425.7485 417.4651,426.8820 C416.4820,428.0151 415.2651,429.3984 413.4815,430.3777 C411.6983,431.3565 409.3486,431.9320 406.6651,431.9651 C403.9815,431.9983 400.9652,431.4900 398.6025,430.9733 C396.2401,430.4568 394.5317,429.9318 392.8232,429.4069 C392.3150,430.0486 391.8070,430.6898 391.4819,431.1567 C391.1570,431.6236 391.0153,431.9150 390.3276,432.2778 C389.6402,432.6401 388.4066,433.0732 387.4439,433.3028 C386.4815,433.5318 385.7899,433.5568 385.0651,433.3484 Z Z M425.8738,550.2858 C426.1110,548.5609 426.1946,546.9772 426.1694,545.2690 C426.1445,543.5606 426.0112,541.7274 425.9529,539.9065 C425.8942,538.0855 425.9103,536.2775 426.0892,535.2021 C426.2683,534.1272 426.6105,533.7856 426.8894,533.2774 C427.1686,532.7688 427.3852,532.0939 427.4768,531.2563 C427.5686,530.4189 427.5351,529.4188 427.3101,528.7147 C427.0850,528.0106 426.6686,527.6018 426.3559,527.2478 C426.0436,526.8937 425.8352,526.5938 425.6892,526.0856 C425.5435,525.5773 425.4602,524.8602 425.7351,524.2768 C426.0101,523.6934 426.6434,523.2438 427.0017,522.8351 C427.3603,522.4269 427.4433,522.0601 427.4807,521.6513 C427.5187,521.2431 427.5102,520.7936 427.5020,520.3434 C428.1605,520.4353 428.8184,520.5266 429.3635,520.4058 C429.9089,520.2850 430.3409,519.9517 430.7729,519.6183 L430.7729,607.2820 L424.9029,607.2820 C424.9528,606.3534 425.0030,605.4242 424.8986,604.0599 C424.7946,602.6956 424.5361,600.8956 424.0860,598.6998 C423.6364,596.5038 422.9946,593.9118 422.5235,591.3031 C422.0527,588.6950 421.7530,586.0701 421.4361,583.4239 C421.1195,580.7781 420.7861,578.1115 420.6195,576.3237 C420.4528,574.5365 420.4528,573.6280 420.4528,572.7197 C421.0277,572.1111 421.6028,571.5031 422.4946,570.5031 C423.3861,569.5030 424.5948,568.1112 425.3071,566.9195 C426.0197,565.7278 426.2363,564.7363 426.1734,563.4901 C426.1110,562.2443 425.7694,560.7445 425.5027,559.4111 C425.2363,558.0777 425.0446,556.9109 425.1444,555.3944 C425.2445,553.8776 425.6365,552.0110 425.8738,550.2858 Z Z M396.7231,572.0737 C397.9437,572.1863 399.2108,572.1780 400.2647,571.9487 C401.3189,571.7197 402.1605,571.2698 403.2938,570.8945 C404.4271,570.5195 405.8524,570.2199 406.9191,570.1113 C407.9857,570.0030 408.6944,570.0864 409.4025,570.1697 C408.8942,571.5944 408.3860,573.0197 408.1232,574.8698 C407.8610,576.7200 407.8443,578.9948 407.9024,580.9448 C407.9611,582.8950 408.0940,584.5201 408.0231,585.9283 C407.9523,587.3366 407.6776,588.5283 407.2606,589.9490 C406.8442,591.3700 406.2855,593.0203 405.9439,594.4825 C405.6024,595.9451 405.4776,597.2204 405.4609,598.6329 C405.4442,600.0452 405.5357,601.5957 405.7316,603.0598 C405.9278,604.5245 406.2274,605.9032 406.5276,607.2820 L391.8266,607.2820 C391.9269,601.4529 392.0267,595.6240 391.8682,589.7492 C391.7103,583.8741 391.2934,577.9536 390.8769,572.0329 C391.6355,571.8535 392.3935,571.6743 393.3604,571.7010 C394.3273,571.7279 395.5022,571.9615 396.7231,572.0737 Z Z M409.4983,601.5430 C409.6440,599.2288 410.2109,596.3119 410.6316,594.3492 C411.0528,592.3868 411.3275,591.3785 411.6983,589.7117 C412.0693,588.0450 412.5359,585.7200 412.9481,583.5033 C413.3608,581.2866 413.7191,579.1782 414.0774,577.0698 C414.5111,579.4449 414.9442,581.8201 415.4275,584.3659 C415.9108,586.9117 416.4446,589.6284 417.0526,592.6283 C417.6612,595.6285 418.3447,598.9122 418.8821,600.9622 C419.4196,603.0122 419.8113,603.8289 420.0489,604.6767 C420.2861,605.5245 420.3697,606.4033 420.4528,607.2820 L409.9025,607.2820 C409.6276,605.5699 409.3526,603.8578 409.4983,601.5430 Z Z M354.9977,554.8331 C358.8364,555.1330 362.6694,555.0330 366.4979,554.5329 C367.6079,560.0143 369.5077,565.8477 372.1978,572.0329 C365.9649,569.2020 360.2316,563.4686 354.9977,554.8331 Z Z M362.7020,572.1919 C365.0142,573.3337 367.8562,574.7837 370.6977,576.2339 C370.3893,577.0922 370.0809,577.9505 369.5391,578.6878 C368.9972,579.4257 368.2225,580.0422 367.0639,580.8044 C365.9054,581.5672 364.3642,582.4755 362.8225,583.3837 C363.0557,591.3496 363.2890,599.3158 363.5220,607.2820 L354.8727,607.2820 C354.4727,598.9493 354.0725,590.6166 353.6311,584.1833 C353.1892,577.7501 352.7062,573.2169 352.2229,568.6835 C353.7561,568.9168 355.2897,569.1504 356.9479,569.6836 C358.6062,570.2168 360.3898,571.0501 362.7020,572.1919 Z Z M366.9880,589.7075 C367.6465,589.1326 368.3047,588.5575 368.8676,587.9741 C369.4300,587.3910 369.8963,586.7991 370.3632,586.2076 C371.4800,588.9410 372.5963,591.6745 373.8260,594.5034 C375.0551,597.3327 376.3964,600.2580 377.7381,603.1831 C377.8716,604.5494 378.0048,605.9157 378.1383,607.2820 L366.4380,607.2820 C366.6467,603.9904 366.8553,600.6991 366.9471,597.7701 C367.0387,594.8408 367.0132,592.2743 366.9880,589.7075 Z Z M333.5729,607.2820 L333.5729,569.9588 C334.0392,569.6836 334.5060,569.4089 335.3644,569.1960 C336.2221,568.9837 337.4725,568.8334 338.7141,568.7583 C339.9557,568.6835 341.1893,568.6835 342.2143,569.1084 C343.2393,569.5336 344.0557,570.3834 344.5977,571.9003 C345.1394,573.4171 345.4058,575.6003 345.6394,579.4254 C345.8724,583.2505 346.0728,588.7174 346.0728,593.6338 C346.0728,598.5502 345.8724,602.9158 345.6726,607.2820 L333.5729,607.2820 Z Z M333.5729,565.2584 L333.5729,552.2584 C337.5941,552.1130 340.8857,552.4795 343.4477,553.3583 C341.9816,557.5584 338.6900,561.5252 333.5729,565.2584 Z Z M333.5729,548.8328 L333.5729,537.5568 C336.8877,538.0673 340.6961,537.7096 344.9976,536.4822 C343.6234,540.3067 339.8151,544.4235 333.5729,548.8328 Z Z M333.5729,535.5819 L333.5729,525.5320 C337.2500,525.7344 340.8831,525.2598 344.4727,524.1070 C342.2313,528.6098 338.5981,532.4349 333.5729,535.5819 Z Z M355.1632,391.4640 C353.0880,391.7310 350.7046,392.5307 349.1215,393.9392 C347.5380,395.3475 346.7546,397.3640 345.6882,398.8392 C344.6215,400.3143 343.2713,401.2475 342.2880,401.4561 C341.3047,401.6642 340.6881,401.1477 339.8715,400.4974 C339.0545,399.8475 338.0380,399.0643 337.3379,399.0311 C336.6380,398.9974 336.2545,399.7145 336.0379,400.6397 C335.8213,401.5644 335.7709,402.6977 335.3882,403.3726 C335.0049,404.0476 334.2889,404.2647 333.5729,404.4813 L333.5729,382.0819 L369.5717,382.0819 C369.1219,382.7648 368.6717,383.4473 368.2304,383.7640 C367.7885,384.0803 367.3553,384.0304 366.8471,383.9474 C366.3386,383.8637 365.7552,383.7475 365.5468,383.9641 C365.3385,384.1807 365.5052,384.7306 365.2886,385.0889 C365.0717,385.4472 364.4719,385.6139 364.0720,385.7888 C363.6717,385.9637 363.4716,386.1471 363.6383,386.4305 C363.8049,386.7137 364.3384,387.0972 364.7886,387.6389 C365.2384,388.1803 365.6049,388.8808 364.9218,389.5892 C364.2384,390.2973 362.5050,391.0139 360.7551,391.2392 C359.0048,391.4640 357.2382,391.1973 355.1632,391.4640 Z Z M333.5729,620.4815 L430.7729,620.4815 L430.7729,650.0818 L333.5729,650.0818 L333.5729,620.4815 Z Z M365.6344,414.4156 C364.8719,414.7824 363.6967,415.0820 362.8970,415.2362 C362.0968,415.3904 361.6716,415.3986 361.3382,415.2112 C361.0049,415.0239 360.7634,414.6401 360.0802,414.3611 C359.3968,414.0819 358.2717,413.9070 357.1384,413.4779 C356.0051,413.0487 354.8636,412.3653 353.7218,411.5276 C352.5800,410.6903 351.4385,409.6987 350.6426,408.5739 C349.8466,407.4489 349.3970,406.1903 349.6637,405.0198 C349.9302,403.8489 350.9133,402.7652 351.9051,402.3819 C352.8967,401.9987 353.8967,402.3150 354.6471,402.7238 C355.3968,403.1320 355.8966,403.6320 356.3510,404.1278 C356.8051,404.6236 357.2133,405.1154 357.6220,405.6072 C357.7552,404.8070 357.8885,404.0073 357.8550,403.1946 C357.8219,402.3819 357.6214,401.5570 357.6719,400.9405 C357.7218,400.3237 358.0217,399.9152 358.6054,399.8653 C359.1884,399.8154 360.0553,400.1238 361.0012,400.4779 C361.9468,400.8319 362.9718,401.2322 364.1386,401.5531 C365.3053,401.8737 366.6135,402.1155 367.8134,402.2198 C369.0133,402.3238 370.1052,402.2901 371.4222,402.3156 C372.7386,402.3405 374.2801,402.4236 375.4553,402.7944 C376.6303,403.1651 377.4385,403.8231 378.2469,404.4813 C378.1134,403.7230 377.9804,402.9653 377.8637,401.9822 C377.7469,400.9986 377.6471,399.7905 377.6346,398.5696 C377.6216,397.3487 377.6970,396.1151 378.0136,395.0819 C378.3300,394.0486 378.8887,393.2155 379.3637,392.9488 C379.8383,392.6818 380.2303,392.9820 380.9344,393.4902 C381.6386,393.9982 382.6548,394.7153 383.9423,395.4319 C385.2298,396.1485 386.7885,396.8654 388.3759,397.5695 C389.9633,398.2737 391.5802,398.9653 392.8011,399.4821 C394.0217,399.9986 394.8466,400.3404 395.1964,401.0740 C395.5465,401.8071 395.4217,402.9318 394.9135,403.7445 C394.4049,404.5572 393.5134,405.0573 392.1426,405.3572 C390.7718,405.6571 388.9216,405.7571 387.3591,405.9193 C385.7967,406.0811 384.5217,406.3048 383.3385,406.9633 C382.1559,407.6215 381.0651,408.7142 379.5863,410.0649 C378.1069,411.4154 376.2391,413.0237 374.6889,413.9654 C373.1383,414.9071 371.9052,415.1820 371.0551,415.2444 C370.2050,415.3068 369.7387,415.1571 369.4470,414.6197 C369.1551,414.0822 369.0383,413.1570 369.1386,412.2655 C369.2384,411.3740 369.5550,410.5157 369.8717,409.6573 C369.2968,410.0820 368.7216,410.5071 368.2593,411.0945 C367.7967,411.6818 367.4469,412.4322 367.0968,413.0240 C366.7467,413.6156 366.3969,414.0488 365.6344,414.4156 Z Z M377.6134,592.2950 C376.4798,589.1992 375.6969,586.3910 375.4216,584.4240 C375.1464,582.4573 375.3799,581.3325 375.9174,580.0822 C376.4548,578.8324 377.2967,577.4573 378.1633,576.4073 C379.0298,575.3574 379.9219,574.6320 380.7340,574.0821 C381.5467,573.5322 382.2800,573.1574 383.0131,572.7824 C382.5799,582.5744 382.1465,592.3661 381.7134,602.1581 C380.2300,598.7747 378.7469,595.3912 377.6134,592.2950 Z"
     style="stroke-width:0.1;stroke:url(#linearGradient4548);stroke-dasharray:none;stroke-linecap:butt;stroke-linejoin:miter;fill:none;stroke-miterlimit:4"
     id="path3721" />
</svg>
